<?xml version="1.0" encoding="utf-8" standalone="no"?>
<!DOCTYPE svg PUBLIC "-//W3C//DTD SVG 1.1//EN"
  "http://www.w3.org/Graphics/SVG/1.1/DTD/svg11.dtd">
<svg xmlns:xlink="http://www.w3.org/1999/xlink" width="711.765625pt" height="566.390625pt" viewBox="0 0 711.765625 566.390625" xmlns="http://www.w3.org/2000/svg" version="1.1">
 <metadata>
  <rdf:RDF xmlns:dc="http://purl.org/dc/elements/1.1/" xmlns:cc="http://creativecommons.org/ns#" xmlns:rdf="http://www.w3.org/1999/02/22-rdf-syntax-ns#">
   <cc:Work>
    <dc:type rdf:resource="http://purl.org/dc/dcmitype/StillImage"/>
    <dc:date>2026-04-21T21:33:00.737666</dc:date>
    <dc:format>image/svg+xml</dc:format>
    <dc:creator>
     <cc:Agent>
      <dc:title>Matplotlib v3.10.7, https://matplotlib.org/</dc:title>
     </cc:Agent>
    </dc:creator>
   </cc:Work>
  </rdf:RDF>
 </metadata>
 <defs>
  <style type="text/css">*{stroke-linejoin: round; stroke-linecap: butt}</style>
 </defs>
 <g id="figure_1">
  <g id="patch_1">
   <path d="M 0 566.390625 
L 711.765625 566.390625 
L 711.765625 0 
L 0 0 
z
" style="fill: #ffffff"/>
  </g>
  <g id="axes_1">
   <g id="patch_2">
    <path d="M 42.815625 527.23125 
L 704.565625 527.23125 
L 704.565625 24.39125 
L 42.815625 24.39125 
z
" style="fill: #ffffff"/>
   </g>
   <g id="matplotlib.axis_1">
    <g id="xtick_1">
     <g id="line2d_1">
      <defs>
       <path id="m32ccfa08d8" d="M 0 0 
L 0 3.5 
" style="stroke: #000000; stroke-width: 0.8"/>
      </defs>
      <g>
       <use xlink:href="#m32ccfa08d8" x="72.89517" y="527.23125" style="stroke: #000000; stroke-width: 0.8"/>
      </g>
     </g>
     <g id="text_1">
      <!-- 0.0 -->
      <g transform="translate(65.827202 542.225) scale(0.1 -0.1)">
       <defs>
        <path id="MicrosoftYaHei-30" d="M 284 2325 
Q 284 3606 709 4264 
Q 1134 4922 1941 4922 
Q 3478 4922 3478 2441 
Q 3478 1216 3045 567 
Q 2613 -81 1831 -81 
Q 1094 -81 689 534 
Q 284 1150 284 2325 
z
M 909 2353 
Q 909 425 1888 425 
Q 2850 425 2850 2384 
Q 2850 4413 1906 4413 
Q 909 4413 909 2353 
z
" transform="scale(0.015625)"/>
        <path id="MicrosoftYaHei-2e" d="M 372 322 
Q 372 491 487 606 
Q 603 722 775 722 
Q 950 722 1065 605 
Q 1181 488 1181 322 
Q 1181 159 1065 42 
Q 950 -75 772 -75 
Q 600 -75 486 42 
Q 372 159 372 322 
z
" transform="scale(0.015625)"/>
       </defs>
       <use xlink:href="#MicrosoftYaHei-30"/>
       <use xlink:href="#MicrosoftYaHei-2e" transform="translate(58.642578 0)"/>
       <use xlink:href="#MicrosoftYaHei-30" transform="translate(82.714844 0)"/>
      </g>
     </g>
    </g>
    <g id="xtick_2">
     <g id="line2d_2">
      <g>
       <use xlink:href="#m32ccfa08d8" x="193.213352" y="527.23125" style="stroke: #000000; stroke-width: 0.8"/>
      </g>
     </g>
     <g id="text_2">
      <!-- 0.2 -->
      <g transform="translate(186.145384 542.225) scale(0.1 -0.1)">
       <defs>
        <path id="MicrosoftYaHei-32" d="M 2666 3572 
Q 2666 3963 2419 4186 
Q 2172 4409 1747 4409 
Q 1447 4409 1140 4256 
Q 834 4103 569 3819 
L 569 4413 
Q 806 4659 1107 4790 
Q 1409 4922 1816 4922 
Q 2472 4922 2872 4570 
Q 3272 4219 3272 3619 
Q 3272 3084 3026 2693 
Q 2781 2303 2188 1894 
Q 1581 1475 1376 1294 
Q 1172 1113 1090 947 
Q 1009 781 1009 544 
L 3416 544 
L 3416 0 
L 372 0 
L 372 241 
Q 372 659 486 951 
Q 600 1244 862 1520 
Q 1125 1797 1681 2184 
Q 2250 2584 2458 2886 
Q 2666 3188 2666 3572 
z
" transform="scale(0.015625)"/>
       </defs>
       <use xlink:href="#MicrosoftYaHei-30"/>
       <use xlink:href="#MicrosoftYaHei-2e" transform="translate(58.642578 0)"/>
       <use xlink:href="#MicrosoftYaHei-32" transform="translate(82.714844 0)"/>
      </g>
     </g>
    </g>
    <g id="xtick_3">
     <g id="line2d_3">
      <g>
       <use xlink:href="#m32ccfa08d8" x="313.531534" y="527.23125" style="stroke: #000000; stroke-width: 0.8"/>
      </g>
     </g>
     <g id="text_3">
      <!-- 0.4 -->
      <g transform="translate(306.463565 542.225) scale(0.1 -0.1)">
       <defs>
        <path id="MicrosoftYaHei-34" d="M 2906 4841 
L 2906 1644 
L 3631 1644 
L 3631 1138 
L 2906 1138 
L 2906 0 
L 2313 0 
L 2313 1138 
L 53 1138 
L 53 1616 
Q 656 2294 1265 3178 
Q 1875 4063 2272 4841 
L 2906 4841 
z
M 741 1644 
L 2313 1644 
L 2313 3950 
Q 1988 3366 1616 2817 
Q 1244 2269 741 1644 
z
" transform="scale(0.015625)"/>
       </defs>
       <use xlink:href="#MicrosoftYaHei-30"/>
       <use xlink:href="#MicrosoftYaHei-2e" transform="translate(58.642578 0)"/>
       <use xlink:href="#MicrosoftYaHei-34" transform="translate(82.714844 0)"/>
      </g>
     </g>
    </g>
    <g id="xtick_4">
     <g id="line2d_4">
      <g>
       <use xlink:href="#m32ccfa08d8" x="433.849716" y="527.23125" style="stroke: #000000; stroke-width: 0.8"/>
      </g>
     </g>
     <g id="text_4">
      <!-- 0.6 -->
      <g transform="translate(426.781747 542.225) scale(0.1 -0.1)">
       <defs>
        <path id="MicrosoftYaHei-36" d="M 3181 4219 
Q 2803 4413 2391 4413 
Q 1763 4413 1381 3866 
Q 1000 3319 994 2372 
L 1009 2372 
Q 1353 3038 2106 3038 
Q 2734 3038 3109 2628 
Q 3484 2219 3484 1541 
Q 3484 831 3051 375 
Q 2619 -81 1947 -81 
Q 1209 -81 789 495 
Q 369 1072 369 2131 
Q 369 3413 920 4167 
Q 1472 4922 2372 4922 
Q 2888 4922 3181 4781 
L 3181 4219 
z
M 1031 1584 
Q 1031 1106 1286 765 
Q 1541 425 1963 425 
Q 2363 425 2613 719 
Q 2863 1013 2863 1475 
Q 2863 1975 2627 2253 
Q 2391 2531 1956 2531 
Q 1544 2531 1287 2250 
Q 1031 1969 1031 1584 
z
" transform="scale(0.015625)"/>
       </defs>
       <use xlink:href="#MicrosoftYaHei-30"/>
       <use xlink:href="#MicrosoftYaHei-2e" transform="translate(58.642578 0)"/>
       <use xlink:href="#MicrosoftYaHei-36" transform="translate(82.714844 0)"/>
      </g>
     </g>
    </g>
    <g id="xtick_5">
     <g id="line2d_5">
      <g>
       <use xlink:href="#m32ccfa08d8" x="554.167898" y="527.23125" style="stroke: #000000; stroke-width: 0.8"/>
      </g>
     </g>
     <g id="text_5">
      <!-- 0.8 -->
      <g transform="translate(547.099929 542.225) scale(0.1 -0.1)">
       <defs>
        <path id="MicrosoftYaHei-38" d="M 306 1350 
Q 306 1769 556 2122 
Q 806 2475 1200 2625 
Q 884 2803 700 3081 
Q 516 3359 516 3684 
Q 516 4028 692 4312 
Q 869 4597 1183 4759 
Q 1497 4922 1875 4922 
Q 2256 4922 2572 4761 
Q 2888 4600 3063 4315 
Q 3238 4031 3238 3684 
Q 3238 3366 3058 3086 
Q 2878 2806 2559 2625 
Q 2953 2472 3200 2119 
Q 3447 1766 3447 1350 
Q 3447 938 3250 611 
Q 3053 284 2690 103 
Q 2328 -78 1875 -78 
Q 1425 -78 1065 103 
Q 706 284 506 612 
Q 306 941 306 1350 
z
M 906 1378 
Q 906 947 1172 687 
Q 1438 428 1878 428 
Q 2309 428 2582 692 
Q 2856 956 2856 1378 
Q 2856 1778 2579 2051 
Q 2303 2325 1878 2325 
Q 1456 2325 1181 2058 
Q 906 1791 906 1378 
z
M 1081 3634 
Q 1081 3309 1312 3076 
Q 1544 2844 1878 2844 
Q 2206 2844 2445 3078 
Q 2684 3313 2684 3634 
Q 2684 3963 2454 4191 
Q 2225 4419 1878 4419 
Q 1534 4419 1307 4195 
Q 1081 3972 1081 3634 
z
" transform="scale(0.015625)"/>
       </defs>
       <use xlink:href="#MicrosoftYaHei-30"/>
       <use xlink:href="#MicrosoftYaHei-2e" transform="translate(58.642578 0)"/>
       <use xlink:href="#MicrosoftYaHei-38" transform="translate(82.714844 0)"/>
      </g>
     </g>
    </g>
    <g id="xtick_6">
     <g id="line2d_6">
      <g>
       <use xlink:href="#m32ccfa08d8" x="674.48608" y="527.23125" style="stroke: #000000; stroke-width: 0.8"/>
      </g>
     </g>
     <g id="text_6">
      <!-- 1.0 -->
      <g transform="translate(667.418111 542.225) scale(0.1 -0.1)">
       <defs>
        <path id="MicrosoftYaHei-31" d="M 1781 0 
L 1781 4141 
Q 1638 3997 1295 3819 
Q 953 3641 663 3569 
L 663 4169 
Q 1047 4275 1484 4508 
Q 1922 4741 2156 4947 
L 2388 4947 
L 2388 0 
L 1781 0 
z
" transform="scale(0.015625)"/>
       </defs>
       <use xlink:href="#MicrosoftYaHei-31"/>
       <use xlink:href="#MicrosoftYaHei-2e" transform="translate(58.642578 0)"/>
       <use xlink:href="#MicrosoftYaHei-30" transform="translate(82.714844 0)"/>
      </g>
     </g>
    </g>
    <g id="text_7">
     <!-- 召回率 (Recall) -->
     <g transform="translate(339.9875 556.704687) scale(0.1 -0.1)">
      <defs>
       <path id="MicrosoftYaHei-53ec" d="M 913 1884 
L 5525 1884 
L 5525 -866 
L 5025 -866 
L 5025 -478 
L 1413 -478 
L 1413 -878 
L 913 -878 
L 913 1884 
z
M 406 4941 
L 5713 4941 
Q 5638 3916 5581 3409 
Q 5469 2397 4475 2397 
Q 3856 2397 3194 2403 
Q 3150 2678 3063 2966 
Q 3769 2916 4388 2916 
Q 4994 2916 5069 3509 
Q 5119 3897 5156 4472 
L 2625 4472 
Q 2550 3453 2125 2934 
Q 1594 2316 438 1834 
Q 244 2109 88 2297 
Q 1288 2753 1694 3259 
Q 2050 3647 2119 4472 
L 406 4472 
L 406 4941 
z
M 5025 1428 
L 1413 1428 
L 1413 -34 
L 5025 -34 
L 5025 1428 
z
" transform="scale(0.015625)"/>
       <path id="MicrosoftYaHei-56de" d="M 475 4947 
L 5938 4947 
L 5938 -778 
L 5413 -778 
L 5413 -378 
L 1000 -378 
L 1000 -778 
L 475 -778 
L 475 4947 
z
M 5413 4484 
L 1000 4484 
L 1000 72 
L 5413 72 
L 5413 4484 
z
M 1875 3528 
L 4531 3528 
L 4531 797 
L 4044 797 
L 4044 1147 
L 2363 1147 
L 2363 797 
L 1875 797 
L 1875 3528 
z
M 4044 3091 
L 2363 3091 
L 2363 1584 
L 4044 1584 
L 4044 3091 
z
" transform="scale(0.015625)"/>
       <path id="MicrosoftYaHei-7387" d="M 2525 2009 
Q 2622 2016 3928 2081 
Q 3772 2300 3625 2491 
L 3963 2703 
Q 4413 2203 4794 1653 
L 4394 1403 
Q 4284 1569 4178 1725 
Q 2991 1659 2213 1597 
Q 2075 1584 1881 1541 
L 1725 1966 
Q 1913 2028 2006 2084 
Q 2534 2441 3050 2913 
Q 2597 2894 2275 2866 
Q 2144 2847 1988 2809 
L 1800 3191 
Q 1956 3247 2088 3366 
Q 2509 3722 2875 4228 
L 231 4228 
L 231 4666 
L 3031 4666 
Q 2878 4944 2744 5153 
L 3194 5372 
Q 3438 5000 3616 4666 
L 6175 4666 
L 6175 4228 
L 3053 4228 
L 3350 4072 
Q 2844 3553 2494 3247 
Q 2850 3256 3425 3269 
Q 3675 3519 3925 3797 
L 4356 3547 
Q 3363 2603 2525 2009 
z
M 144 991 
L 2994 991 
L 2994 1541 
L 3488 1541 
L 3488 991 
L 6275 991 
L 6275 553 
L 3488 553 
L 3488 -853 
L 2994 -853 
L 2994 553 
L 144 553 
L 144 991 
z
M 1719 2672 
L 1944 2303 
Q 1200 1866 425 1409 
L 163 1828 
Q 813 2134 1719 2672 
z
M 4856 2678 
Q 5750 2172 6250 1816 
L 5975 1409 
Q 5331 1909 4600 2341 
L 4856 2678 
z
M 5994 3591 
Q 5519 3178 4963 2809 
L 4644 3141 
Q 5244 3534 5638 3928 
L 5994 3591 
z
M 363 3634 
L 681 3941 
Q 1200 3528 1588 3159 
L 1238 2816 
Q 875 3197 363 3634 
z
" transform="scale(0.015625)"/>
       <path id="MicrosoftYaHei-20" transform="scale(0.015625)"/>
       <path id="MicrosoftYaHei-28" d="M 1531 -1100 
Q 478 100 478 1847 
Q 478 3594 1531 4841 
L 2072 4841 
Q 1016 3544 1016 1853 
Q 1016 166 2066 -1100 
L 1531 -1100 
z
" transform="scale(0.015625)"/>
       <path id="MicrosoftYaHei-52" d="M 4159 0 
L 3422 0 
L 2619 1344 
Q 2378 1747 2178 1892 
Q 1978 2038 1700 2038 
L 1250 2038 
L 1250 0 
L 625 0 
L 625 4841 
L 2100 4841 
Q 2806 4841 3206 4500 
Q 3606 4159 3606 3547 
Q 3606 2541 2531 2241 
L 2531 2225 
Q 2731 2141 2876 1984 
Q 3022 1828 3253 1450 
L 4159 0 
z
M 1250 4294 
L 1250 2584 
L 1988 2584 
Q 2416 2584 2683 2834 
Q 2950 3084 2950 3491 
Q 2950 3869 2706 4081 
Q 2463 4294 1997 4294 
L 1250 4294 
z
" transform="scale(0.015625)"/>
       <path id="MicrosoftYaHei-65" d="M 3363 1572 
L 944 1572 
Q 959 1019 1246 717 
Q 1534 416 2050 416 
Q 2631 416 3116 788 
L 3116 241 
Q 2659 -81 1906 -81 
Q 1156 -81 736 394 
Q 316 869 316 1713 
Q 316 2506 777 3022 
Q 1238 3538 1922 3538 
Q 2600 3538 2981 3102 
Q 3363 2666 3363 1881 
L 3363 1572 
z
M 2750 2063 
Q 2747 2531 2528 2787 
Q 2309 3044 1913 3044 
Q 1547 3044 1280 2772 
Q 1013 2500 944 2063 
L 2750 2063 
z
" transform="scale(0.015625)"/>
       <path id="MicrosoftYaHei-63" d="M 2934 156 
Q 2538 -81 1978 -81 
Q 1228 -81 772 400 
Q 316 881 316 1647 
Q 316 2497 808 3017 
Q 1300 3538 2125 3538 
Q 2600 3538 2938 3369 
L 2938 2763 
Q 2572 3031 2125 3031 
Q 1600 3031 1270 2667 
Q 941 2303 941 1697 
Q 941 1100 1252 762 
Q 1563 425 2091 425 
Q 2538 425 2934 719 
L 2934 156 
z
" transform="scale(0.015625)"/>
       <path id="MicrosoftYaHei-61" d="M 628 3216 
Q 1144 3538 1819 3538 
Q 3069 3538 3069 2225 
L 3069 0 
L 2463 0 
L 2463 534 
L 2447 534 
Q 2088 -81 1388 -81 
Q 884 -81 587 191 
Q 291 463 291 925 
Q 291 1894 1438 2053 
L 2463 2197 
Q 2463 3044 1763 3044 
Q 1141 3044 628 2625 
L 628 3216 
z
M 1653 1625 
Q 1228 1569 1067 1412 
Q 906 1256 906 975 
Q 906 728 1081 572 
Q 1256 416 1544 416 
Q 1944 416 2203 697 
Q 2463 978 2463 1403 
L 2463 1734 
L 1653 1625 
z
" transform="scale(0.015625)"/>
       <path id="MicrosoftYaHei-6c" d="M 544 0 
L 544 5116 
L 1156 5116 
L 1156 0 
L 544 0 
z
" transform="scale(0.015625)"/>
       <path id="MicrosoftYaHei-29" d="M 78 -1100 
Q 1131 163 1131 1853 
Q 1131 3547 72 4841 
L 616 4841 
Q 1672 3603 1672 1847 
Q 1672 91 616 -1100 
L 78 -1100 
z
" transform="scale(0.015625)"/>
      </defs>
      <use xlink:href="#MicrosoftYaHei-53ec"/>
      <use xlink:href="#MicrosoftYaHei-56de" transform="translate(100 0)"/>
      <use xlink:href="#MicrosoftYaHei-7387" transform="translate(200 0)"/>
      <use xlink:href="#MicrosoftYaHei-20" transform="translate(300 0)"/>
      <use xlink:href="#MicrosoftYaHei-28" transform="translate(329.589844 0)"/>
      <use xlink:href="#MicrosoftYaHei-52" transform="translate(362.988281 0)"/>
      <use xlink:href="#MicrosoftYaHei-65" transform="translate(425.271484 0)"/>
      <use xlink:href="#MicrosoftYaHei-63" transform="translate(482.009766 0)"/>
      <use xlink:href="#MicrosoftYaHei-61" transform="translate(532.15625 0)"/>
      <use xlink:href="#MicrosoftYaHei-6c" transform="translate(587.429688 0)"/>
      <use xlink:href="#MicrosoftYaHei-6c" transform="translate(614.041016 0)"/>
      <use xlink:href="#MicrosoftYaHei-29" transform="translate(640.652344 0)"/>
     </g>
    </g>
   </g>
   <g id="matplotlib.axis_2">
    <g id="ytick_1">
     <g id="line2d_7">
      <defs>
       <path id="mc7a724fe4c" d="M 0 0 
L -3.5 0 
" style="stroke: #000000; stroke-width: 0.8"/>
      </defs>
      <g>
       <use xlink:href="#mc7a724fe4c" x="42.815625" y="448.764761" style="stroke: #000000; stroke-width: 0.8"/>
      </g>
     </g>
     <g id="text_8">
      <!-- 0.2 -->
      <g transform="translate(21.679688 452.761636) scale(0.1 -0.1)">
       <use xlink:href="#MicrosoftYaHei-30"/>
       <use xlink:href="#MicrosoftYaHei-2e" transform="translate(58.642578 0)"/>
       <use xlink:href="#MicrosoftYaHei-32" transform="translate(82.714844 0)"/>
      </g>
     </g>
    </g>
    <g id="ytick_2">
     <g id="line2d_8">
      <g>
       <use xlink:href="#mc7a724fe4c" x="42.815625" y="348.385474" style="stroke: #000000; stroke-width: 0.8"/>
      </g>
     </g>
     <g id="text_9">
      <!-- 0.4 -->
      <g transform="translate(21.679688 352.382349) scale(0.1 -0.1)">
       <use xlink:href="#MicrosoftYaHei-30"/>
       <use xlink:href="#MicrosoftYaHei-2e" transform="translate(58.642578 0)"/>
       <use xlink:href="#MicrosoftYaHei-34" transform="translate(82.714844 0)"/>
      </g>
     </g>
    </g>
    <g id="ytick_3">
     <g id="line2d_9">
      <g>
       <use xlink:href="#mc7a724fe4c" x="42.815625" y="248.006188" style="stroke: #000000; stroke-width: 0.8"/>
      </g>
     </g>
     <g id="text_10">
      <!-- 0.6 -->
      <g transform="translate(21.679688 252.003063) scale(0.1 -0.1)">
       <use xlink:href="#MicrosoftYaHei-30"/>
       <use xlink:href="#MicrosoftYaHei-2e" transform="translate(58.642578 0)"/>
       <use xlink:href="#MicrosoftYaHei-36" transform="translate(82.714844 0)"/>
      </g>
     </g>
    </g>
    <g id="ytick_4">
     <g id="line2d_10">
      <g>
       <use xlink:href="#mc7a724fe4c" x="42.815625" y="147.626901" style="stroke: #000000; stroke-width: 0.8"/>
      </g>
     </g>
     <g id="text_11">
      <!-- 0.8 -->
      <g transform="translate(21.679688 151.623776) scale(0.1 -0.1)">
       <use xlink:href="#MicrosoftYaHei-30"/>
       <use xlink:href="#MicrosoftYaHei-2e" transform="translate(58.642578 0)"/>
       <use xlink:href="#MicrosoftYaHei-38" transform="translate(82.714844 0)"/>
      </g>
     </g>
    </g>
    <g id="ytick_5">
     <g id="line2d_11">
      <g>
       <use xlink:href="#mc7a724fe4c" x="42.815625" y="47.247614" style="stroke: #000000; stroke-width: 0.8"/>
      </g>
     </g>
     <g id="text_12">
      <!-- 1.0 -->
      <g transform="translate(21.679688 51.244489) scale(0.1 -0.1)">
       <use xlink:href="#MicrosoftYaHei-31"/>
       <use xlink:href="#MicrosoftYaHei-2e" transform="translate(58.642578 0)"/>
       <use xlink:href="#MicrosoftYaHei-30" transform="translate(82.714844 0)"/>
      </g>
     </g>
    </g>
    <g id="text_13">
     <!-- 精确率 (Precision) -->
     <g transform="translate(15.19375 317.11125) rotate(-90) scale(0.1 -0.1)">
      <defs>
       <path id="MicrosoftYaHei-7cbe" d="M 3225 -822 
L 2775 -822 
L 2775 2347 
L 5919 2347 
L 5919 -91 
Q 5919 -772 5219 -772 
L 4200 -772 
Q 4169 -572 4106 -291 
Q 4688 -328 5063 -328 
Q 5469 -328 5469 9 
L 5469 297 
L 3225 297 
L 3225 -822 
z
M 2488 3122 
L 4106 3122 
L 4106 3553 
L 2750 3553 
L 2750 3947 
L 4106 3947 
L 4106 4366 
L 2588 4366 
L 2588 4759 
L 4106 4759 
L 4106 5322 
L 4556 5322 
L 4556 4759 
L 6200 4759 
L 6200 4366 
L 4556 4366 
L 4556 3947 
L 6013 3947 
L 6013 3553 
L 4556 3553 
L 4556 3122 
L 6288 3122 
L 6288 2728 
L 2488 2728 
L 2488 3122 
z
M 56 578 
Q 663 1497 1044 2628 
L 138 2628 
L 138 3028 
L 1094 3028 
L 1094 5303 
L 1506 5303 
L 1506 3028 
L 2313 3028 
L 2313 2628 
L 1506 2628 
L 1506 1853 
L 1738 2041 
Q 2263 1534 2581 1166 
L 2256 866 
Q 1863 1347 1506 1722 
L 1506 -847 
L 1094 -847 
L 1094 1784 
Q 731 841 250 72 
Q 150 353 56 578 
z
M 5469 1947 
L 3225 1947 
L 3225 1509 
L 5469 1509 
L 5469 1947 
z
M 3225 684 
L 5469 684 
L 5469 1122 
L 3225 1122 
L 3225 684 
z
M 1625 3559 
Q 1900 4166 2081 4834 
L 2481 4691 
Q 2250 3997 1994 3397 
L 1625 3559 
z
M 150 4709 
L 519 4841 
Q 744 4209 944 3572 
L 550 3409 
Q 338 4172 150 4709 
z
" transform="scale(0.015625)"/>
       <path id="MicrosoftYaHei-786e" d="M 2075 3453 
Q 2956 4334 3456 5359 
L 3931 5272 
Q 3781 4991 3619 4722 
L 5438 4722 
L 5438 4328 
L 4909 3666 
L 6063 3666 
L 6063 -53 
Q 6063 -728 5475 -728 
Q 5144 -728 4906 -716 
Q 4869 -497 4813 -259 
Q 5156 -291 5331 -291 
Q 5619 -291 5619 16 
L 5619 734 
L 4588 734 
L 4588 -659 
L 4144 -659 
L 4144 734 
L 3113 734 
Q 2944 -263 2444 -884 
Q 2288 -703 2081 -509 
Q 2756 291 2756 1841 
L 2756 3506 
Q 2597 3316 2431 3134 
Q 2281 3278 2075 3453 
z
M 31 1691 
Q 741 2834 1066 4291 
L 231 4291 
L 231 4716 
L 2469 4716 
L 2469 4291 
L 1509 4291 
Q 1356 3613 1128 2991 
L 2200 2991 
L 2200 128 
L 1150 128 
L 1150 -347 
L 738 -347 
L 738 2059 
Q 559 1691 350 1347 
Q 225 1497 31 1691 
z
M 1788 541 
L 1788 2578 
L 1150 2578 
L 1150 541 
L 1788 541 
z
M 4875 4322 
L 3366 4322 
Q 3138 3981 2884 3666 
L 4384 3666 
L 4875 4322 
z
M 4588 1134 
L 5619 1134 
L 5619 1991 
L 4588 1991 
L 4588 1134 
z
M 5619 3241 
L 4588 3241 
L 4588 2391 
L 5619 2391 
L 5619 3241 
z
M 3166 1134 
L 4144 1134 
L 4144 1991 
L 3200 1991 
Q 3200 1841 3166 1134 
z
M 3200 2391 
L 4144 2391 
L 4144 3241 
L 3200 3241 
L 3200 2391 
z
" transform="scale(0.015625)"/>
       <path id="MicrosoftYaHei-50" d="M 1250 1809 
L 1250 0 
L 625 0 
L 625 4841 
L 2000 4841 
Q 2784 4841 3217 4462 
Q 3650 4084 3650 3381 
Q 3650 2669 3144 2226 
Q 2638 1784 1878 1809 
L 1250 1809 
z
M 1250 4291 
L 1250 2359 
L 1828 2359 
Q 2400 2359 2697 2617 
Q 2994 2875 2994 3356 
Q 2994 4291 1888 4291 
L 1250 4291 
z
" transform="scale(0.015625)"/>
       <path id="MicrosoftYaHei-72" d="M 2400 2850 
Q 2247 2959 1978 2959 
Q 1622 2959 1390 2626 
Q 1159 2294 1159 1750 
L 1159 0 
L 547 0 
L 547 3456 
L 1159 3456 
L 1159 2753 
L 1172 2753 
Q 1434 3516 2078 3516 
Q 2288 3516 2400 3469 
L 2400 2850 
z
" transform="scale(0.015625)"/>
       <path id="MicrosoftYaHei-69" d="M 472 4675 
Q 472 4838 583 4948 
Q 694 5059 856 5059 
Q 1022 5059 1136 4950 
Q 1250 4841 1250 4675 
Q 1250 4513 1136 4405 
Q 1022 4297 856 4297 
Q 691 4297 581 4405 
Q 472 4513 472 4675 
z
M 544 0 
L 544 3456 
L 1156 3456 
L 1156 0 
L 544 0 
z
" transform="scale(0.015625)"/>
       <path id="MicrosoftYaHei-73" d="M 353 747 
Q 816 413 1350 413 
Q 2066 413 2066 881 
Q 2066 1081 1909 1211 
Q 1753 1341 1275 1519 
Q 700 1750 528 1976 
Q 356 2203 356 2525 
Q 356 2984 745 3261 
Q 1134 3538 1703 3538 
Q 2144 3538 2522 3384 
L 2522 2794 
Q 2134 3044 1644 3044 
Q 1350 3044 1165 2916 
Q 981 2788 981 2578 
Q 981 2372 1114 2256 
Q 1247 2141 1703 1959 
Q 2281 1744 2484 1512 
Q 2688 1281 2688 941 
Q 2688 466 2298 192 
Q 1909 -81 1291 -81 
Q 753 -81 353 122 
L 353 747 
z
" transform="scale(0.015625)"/>
       <path id="MicrosoftYaHei-6f" d="M 316 1691 
Q 316 2547 794 3042 
Q 1272 3538 2091 3538 
Q 2869 3538 3311 3061 
Q 3753 2584 3753 1744 
Q 3753 925 3281 422 
Q 2809 -81 2016 -81 
Q 1241 -81 778 406 
Q 316 894 316 1691 
z
M 941 1709 
Q 941 1113 1242 769 
Q 1544 425 2053 425 
Q 2578 425 2853 761 
Q 3128 1097 3128 1725 
Q 3128 2356 2853 2693 
Q 2578 3031 2053 3031 
Q 1538 3031 1239 2678 
Q 941 2325 941 1709 
z
" transform="scale(0.015625)"/>
       <path id="MicrosoftYaHei-6e" d="M 3469 0 
L 2859 0 
L 2859 1966 
Q 2859 3031 2081 3031 
Q 1678 3031 1418 2731 
Q 1159 2431 1159 1972 
L 1159 0 
L 547 0 
L 547 3456 
L 1159 3456 
L 1159 2884 
L 1172 2884 
Q 1563 3538 2306 3538 
Q 2875 3538 3172 3173 
Q 3469 2809 3469 2113 
L 3469 0 
z
" transform="scale(0.015625)"/>
      </defs>
      <use xlink:href="#MicrosoftYaHei-7cbe"/>
      <use xlink:href="#MicrosoftYaHei-786e" transform="translate(100 0)"/>
      <use xlink:href="#MicrosoftYaHei-7387" transform="translate(200 0)"/>
      <use xlink:href="#MicrosoftYaHei-20" transform="translate(300 0)"/>
      <use xlink:href="#MicrosoftYaHei-28" transform="translate(329.589844 0)"/>
      <use xlink:href="#MicrosoftYaHei-50" transform="translate(362.988281 0)"/>
      <use xlink:href="#MicrosoftYaHei-72" transform="translate(424.169922 0)"/>
      <use xlink:href="#MicrosoftYaHei-65" transform="translate(460.978516 0)"/>
      <use xlink:href="#MicrosoftYaHei-63" transform="translate(517.716797 0)"/>
      <use xlink:href="#MicrosoftYaHei-69" transform="translate(567.863281 0)"/>
      <use xlink:href="#MicrosoftYaHei-73" transform="translate(594.474609 0)"/>
      <use xlink:href="#MicrosoftYaHei-69" transform="translate(640.763672 0)"/>
      <use xlink:href="#MicrosoftYaHei-6f" transform="translate(667.375 0)"/>
      <use xlink:href="#MicrosoftYaHei-6e" transform="translate(730.949219 0)"/>
      <use xlink:href="#MicrosoftYaHei-29" transform="translate(792.570312 0)"/>
     </g>
    </g>
   </g>
   <g id="line2d_12">
    <path d="M 674.48608 499.958198 
L 674.48608 231.200606 
L 673.872211 231.319592 
L 673.872211 81.185373 
L 673.258343 81.217725 
L 673.258343 73.509636 
L 672.644475 73.535109 
L 672.644475 67.934218 
L 672.030606 67.954539 
L 672.030606 66.532304 
L 671.416738 66.551323 
L 671.416738 64.640064 
L 670.80287 64.657302 
L 670.80287 64.17666 
L 670.189002 64.193471 
L 670.189002 62.259471 
L 669.575133 62.274453 
L 669.575133 60.323072 
L 668.961265 60.336187 
L 668.961265 58.860911 
L 667.733529 58.884325 
L 667.733529 57.397188 
L 667.11966 57.40746 
L 667.11966 56.909247 
L 666.505792 56.919046 
L 666.505792 56.419325 
L 665.891924 56.428646 
L 665.891924 55.92741 
L 664.664187 55.945105 
L 664.664187 52.400554 
L 663.436451 52.411157 
L 663.436451 51.899589 
L 661.594846 51.914006 
L 661.594846 51.399808 
L 659.753241 51.412729 
L 659.753241 50.895874 
L 656.070031 50.918747 
L 656.070031 50.397591 
L 652.386822 50.417486 
L 652.386822 49.891957 
L 650.545217 49.900343 
L 650.545217 49.372043 
L 643.178798 49.399367 
L 643.178798 48.86316 
L 637.653983 48.878913 
L 637.653983 48.336326 
L 632.743037 48.345855 
L 632.743037 47.797336 
L 632.129169 47.797939 
L 632.129169 47.247614 
L 72.89517 47.247614 
L 72.89517 47.247614 
" clip-path="url(#pdf3a1c5b5b)" style="fill: none; stroke: #1f77b4; stroke-width: 1.5; stroke-linecap: square"/>
   </g>
   <g id="line2d_13">
    <path d="M 674.48608 492.178803 
L 674.48608 144.27379 
L 673.956044 144.342799 
L 673.956044 58.497016 
L 673.426007 58.506723 
L 673.426007 58.083029 
L 672.895971 58.092394 
L 672.895971 53.811211 
L 672.365935 53.816939 
L 672.365935 52.516868 
L 671.305863 52.526104 
L 671.305863 51.654079 
L 670.775827 51.657951 
L 670.775827 51.220409 
L 669.185719 51.230919 
L 669.185719 50.351213 
L 667.595611 50.35946 
L 667.595611 49.917276 
L 664.415395 49.931552 
L 664.415395 49.486224 
L 661.235178 49.49827 
L 661.235178 49.049755 
L 660.705142 49.051374 
L 660.705142 48.601651 
L 659.64507 48.60409 
L 659.64507 48.152747 
L 653.814674 48.161815 
L 653.814674 47.705131 
L 647.984277 47.709765 
L 647.984277 47.247614 
L 72.89517 47.247614 
L 72.89517 47.247614 
" clip-path="url(#pdf3a1c5b5b)" style="fill: none; stroke: #ff7f0e; stroke-width: 1.5; stroke-linecap: square"/>
   </g>
   <g id="line2d_14">
    <path d="M 674.48608 497.348336 
L 674.48608 220.907597 
L 673.903143 221.017717 
L 673.903143 220.601049 
L 673.320206 220.711184 
L 673.320206 219.664553 
L 672.737269 219.774513 
L 672.737269 148.794102 
L 672.154332 148.872881 
L 672.154332 130.693493 
L 671.571395 130.761225 
L 671.571395 127.33747 
L 670.988458 127.403064 
L 670.988458 87.309302 
L 669.822584 87.381291 
L 669.822584 79.79067 
L 669.239647 79.820417 
L 669.239647 76.798094 
L 668.65671 76.825304 
L 668.65671 75.953867 
L 668.073773 75.980374 
L 668.073773 73.785737 
L 666.907899 73.835064 
L 666.907899 72.061523 
L 666.324963 72.084692 
L 666.324963 71.192158 
L 665.742026 71.214578 
L 665.742026 68.966556 
L 665.159089 68.987007 
L 665.159089 66.258842 
L 664.576152 66.276862 
L 664.576152 65.818734 
L 662.827341 65.871744 
L 662.827341 64.025431 
L 661.07853 64.073644 
L 661.07853 63.608571 
L 660.495593 63.624273 
L 660.495593 63.157875 
L 658.746783 63.203859 
L 658.746783 62.26575 
L 657.580909 62.294799 
L 657.580909 61.351293 
L 654.666224 61.419957 
L 654.666224 60.944592 
L 652.334476 60.998201 
L 652.334476 60.041052 
L 651.751539 60.053607 
L 651.751539 59.091777 
L 650.585666 59.115116 
L 650.585666 58.631852 
L 649.419792 58.654351 
L 649.419792 57.683084 
L 648.253918 57.703789 
L 648.253918 57.215765 
L 645.92217 57.255519 
L 645.92217 56.764612 
L 644.173359 56.793191 
L 644.173359 55.805527 
L 637.761053 55.901 
L 637.761053 55.400246 
L 637.178116 55.408531 
L 637.178116 53.898637 
L 633.680495 53.939566 
L 633.680495 53.431143 
L 629.016999 53.482352 
L 629.016999 52.968713 
L 626.102315 52.99851 
L 626.102315 51.443195 
L 616.192387 51.519073 
L 616.192387 50.458039 
L 606.865396 50.513751 
L 606.865396 49.97235 
L 588.794351 50.067257 
L 588.794351 49.505865 
L 587.628477 49.510957 
L 587.628477 48.947037 
L 585.29673 48.954744 
L 585.29673 48.386993 
L 469.292281 48.719451 
L 469.292281 47.984613 
L 431.984318 48.06106 
L 431.984318 47.247614 
L 72.89517 47.247614 
L 72.89517 47.247614 
" clip-path="url(#pdf3a1c5b5b)" style="fill: none; stroke: #2ca02c; stroke-width: 1.5; stroke-linecap: square"/>
   </g>
   <g id="line2d_15">
    <path d="M 674.48608 498.452508 
L 674.48608 392.785196 
L 673.890445 392.891811 
L 673.890445 392.795329 
L 673.890445 313.163851 
L 673.29481 313.287822 
L 673.29481 313.177814 
L 673.29481 307.42804 
L 672.699176 307.552409 
L 672.699176 262.468093 
L 672.103541 262.590238 
L 672.103541 180.328991 
L 671.507907 180.426273 
L 671.507907 149.139356 
L 670.912272 149.220223 
L 670.912272 116.236814 
L 670.316638 116.296134 
L 670.316638 115.550488 
L 669.721003 115.609369 
L 669.721003 108.776073 
L 669.125368 108.829998 
L 669.125368 106.502347 
L 668.529734 106.5546 
L 668.529734 101.022232 
L 667.934099 101.070288 
L 667.934099 90.411625 
L 667.338465 90.451153 
L 667.338465 84.062672 
L 665.551561 84.165508 
L 665.551561 82.42727 
L 664.955927 82.460179 
L 664.955927 77.608078 
L 663.764657 77.665579 
L 663.764657 73.158137 
L 663.169023 73.182932 
L 663.169023 72.270255 
L 662.573388 72.294269 
L 662.573388 70.917417 
L 660.786485 70.985959 
L 660.786485 68.667054 
L 660.19085 68.68785 
L 660.19085 66.344161 
L 658.999581 66.381495 
L 658.999581 64.010363 
L 658.403946 64.026845 
L 658.403946 62.591587 
L 657.808312 62.606735 
L 657.808312 61.644247 
L 656.617043 61.672784 
L 656.617043 60.704618 
L 655.425774 60.731398 
L 655.425774 57.797989 
L 651.256332 57.872437 
L 651.256332 56.38223 
L 650.660697 56.391476 
L 650.660697 54.890707 
L 648.873793 54.914056 
L 648.873793 53.905423 
L 647.682524 53.919039 
L 647.682524 53.412155 
L 647.08689 53.418471 
L 647.08689 52.910035 
L 645.299986 52.927512 
L 645.299986 52.416475 
L 643.513082 52.432494 
L 643.513082 51.404106 
L 638.152371 51.443195 
L 638.152371 50.40089 
L 632.196026 50.434258 
L 632.196026 49.905963 
L 629.813487 49.917276 
L 629.813487 48.852826 
L 629.217853 48.854539 
L 629.217853 48.320042 
L 612.540085 48.353112 
L 612.540085 47.800972 
L 594.671048 47.819901 
L 594.671048 47.247614 
L 72.89517 47.247614 
L 72.89517 47.247614 
" clip-path="url(#pdf3a1c5b5b)" style="fill: none; stroke: #d62728; stroke-width: 1.5; stroke-linecap: square"/>
   </g>
   <g id="line2d_16">
    <path d="M 674.48608 499.857818 
L 674.48608 137.396096 
L 673.873462 137.471471 
L 673.873462 77.082301 
L 673.260843 77.110933 
L 673.260843 76.203177 
L 672.648225 76.231046 
L 672.648225 75.318967 
L 672.035607 75.346063 
L 672.035607 73.509636 
L 671.422989 73.535109 
L 671.422989 68.405993 
L 670.810371 68.426757 
L 670.810371 66.532304 
L 670.197753 66.551323 
L 670.197753 63.678747 
L 669.585135 63.695064 
L 669.585135 63.21251 
L 667.747281 63.260262 
L 667.747281 62.775348 
L 665.909427 62.821977 
L 665.909427 61.846407 
L 662.846337 61.919989 
L 662.846337 58.457483 
L 661.621101 58.480291 
L 661.621101 55.971785 
L 655.494921 56.061911 
L 655.494921 55.552001 
L 654.882302 55.560598 
L 654.882302 54.536566 
L 653.044448 54.55932 
L 653.044448 54.044128 
L 651.206594 54.065434 
L 651.206594 53.547569 
L 649.36874 53.567401 
L 649.36874 52.525179 
L 645.080414 52.564313 
L 645.080414 52.037717 
L 643.24256 52.053005 
L 643.24256 51.523622 
L 642.017324 51.532749 
L 642.017324 50.468339 
L 633.440671 50.517297 
L 633.440671 49.975312 
L 632.215435 49.981254 
L 632.215435 49.436911 
L 612.611658 49.516072 
L 612.611658 48.950882 
L 550.737237 49.170588 
L 550.737237 48.531236 
L 531.746078 48.584222 
L 531.746078 47.916809 
L 521.944189 47.931396 
L 521.944189 47.247614 
L 72.89517 47.247614 
L 72.89517 47.247614 
" clip-path="url(#pdf3a1c5b5b)" style="fill: none; stroke: #9467bd; stroke-width: 1.5; stroke-linecap: square"/>
   </g>
   <g id="line2d_17">
    <path d="M 674.48608 504.374886 
L 674.48608 174.192943 
L 673.81165 174.299352 
L 673.81165 151.288423 
L 673.137221 151.381068 
L 673.137221 120.049114 
L 672.462792 120.119115 
L 672.462792 115.111042 
L 671.788362 115.177121 
L 671.788362 92.032219 
L 671.113933 92.078199 
L 671.113933 81.02403 
L 670.439504 81.059584 
L 670.439504 79.080368 
L 669.765075 79.114054 
L 669.765075 74.594535 
L 668.416216 74.653093 
L 668.416216 74.144529 
L 667.741787 74.173388 
L 667.741787 71.611518 
L 667.067358 71.637829 
L 667.067358 70.604266 
L 666.392928 70.629571 
L 666.392928 67.498615 
L 665.04407 67.542879 
L 665.04407 65.958665 
L 663.020782 66.020418 
L 663.020782 65.488343 
L 662.346353 65.508454 
L 662.346353 64.439646 
L 660.997494 64.477724 
L 660.997494 63.9404 
L 660.323065 63.958927 
L 660.323065 59.612363 
L 656.950919 59.681985 
L 656.950919 58.022791 
L 656.276489 58.03498 
L 656.276489 57.478798 
L 655.60206 57.490398 
L 655.60206 56.932335 
L 651.555484 56.998744 
L 651.555484 56.435649 
L 650.881055 56.446174 
L 650.881055 55.881153 
L 648.183338 55.920939 
L 648.183338 55.352054 
L 644.136762 55.408531 
L 644.136762 53.682183 
L 642.113475 53.704761 
L 642.113475 53.124621 
L 640.764616 53.138417 
L 640.764616 52.555567 
L 638.741328 52.574345 
L 638.741328 51.988076 
L 636.71804 52.004926 
L 636.71804 50.824073 
L 636.043611 50.828325 
L 636.043611 50.235092 
L 631.997036 50.256585 
L 631.997036 49.657681 
L 630.648177 49.663481 
L 630.648177 49.061697 
L 600.973289 49.163249 
L 600.973289 48.526331 
L 594.228996 48.54283 
L 594.228996 47.896059 
L 418.202957 48.225969 
L 409.435376 48.251407 
L 409.435376 47.247614 
L 72.89517 47.247614 
L 72.89517 47.247614 
" clip-path="url(#pdf3a1c5b5b)" style="fill: none; stroke: #8c564b; stroke-width: 1.5; stroke-linecap: square"/>
   </g>
   <g id="line2d_18">
    <path d="M 674.48608 501.06237 
L 674.48608 215.011467 
L 673.858114 215.128132 
L 673.858114 182.491462 
L 673.230149 182.594781 
L 673.230149 177.484101 
L 672.602183 177.58506 
L 672.602183 173.213778 
L 671.974218 173.312652 
L 671.974218 169.136748 
L 671.346252 169.233562 
L 671.346252 149.221555 
L 670.718287 149.306889 
L 670.718287 135.101236 
L 670.090321 135.177431 
L 670.090321 118.364708 
L 669.462356 118.428951 
L 669.462356 98.480898 
L 668.83439 98.529369 
L 668.83439 96.817632 
L 668.206425 96.864752 
L 668.206425 95.138495 
L 667.57846 95.184236 
L 667.57846 81.793091 
L 666.950494 81.827092 
L 666.950494 77.181795 
L 666.322529 77.21158 
L 666.322529 75.325736 
L 665.694563 75.353814 
L 665.694563 73.451042 
L 665.066598 73.477377 
L 665.066598 68.648274 
L 664.438632 68.670022 
L 664.438632 66.21612 
L 663.810667 66.235516 
L 663.810667 62.754198 
L 662.554736 62.786203 
L 662.554736 60.2636 
L 661.92677 60.277116 
L 661.92677 58.238047 
L 661.298805 58.249519 
L 661.298805 56.191261 
L 660.042874 56.21005 
L 660.042874 55.691718 
L 658.158978 55.71844 
L 658.158978 55.197399 
L 657.531012 55.205802 
L 657.531012 54.683116 
L 656.275081 54.698886 
L 656.275081 51.532749 
L 655.647116 51.537327 
L 655.647116 50.471788 
L 654.391185 50.478707 
L 654.391185 49.943083 
L 653.135254 49.948886 
L 653.135254 49.41096 
L 643.715772 49.446503 
L 643.715772 47.799148 
L 629.272567 47.81345 
L 629.272567 47.247614 
L 72.89517 47.247614 
L 72.89517 47.247614 
" clip-path="url(#pdf3a1c5b5b)" style="fill: none; stroke: #e377c2; stroke-width: 1.5; stroke-linecap: square"/>
   </g>
   <g id="line2d_19">
    <path d="M 674.48608 497.549095 
L 674.48608 198.634853 
L 673.315669 198.840822 
L 673.315669 154.54961 
L 672.730464 154.631897 
L 672.730464 139.554999 
L 672.145259 139.628551 
L 672.145259 130.283454 
L 671.560054 130.351183 
L 671.560054 126.21155 
L 670.974849 126.276648 
L 670.974849 109.608353 
L 670.389643 109.661836 
L 670.389643 108.906712 
L 669.219233 109.012838 
L 669.219233 93.727782 
L 668.634028 93.769208 
L 668.634028 91.320956 
L 667.463618 91.400083 
L 667.463618 87.253851 
L 666.878412 87.290122 
L 666.878412 85.609125 
L 666.293207 85.644062 
L 666.293207 83.949364 
L 665.708002 83.982943 
L 665.708002 83.130219 
L 665.122797 83.163138 
L 665.122797 81.015761 
L 664.537592 81.046912 
L 664.537592 80.61469 
L 663.952387 80.645528 
L 663.952387 78.033083 
L 663.367181 78.06172 
L 663.367181 74.974102 
L 662.196771 75.026122 
L 662.196771 70.536369 
L 661.611566 70.558443 
L 661.611566 69.649449 
L 661.026361 69.670743 
L 661.026361 69.214537 
L 660.441156 69.235457 
L 660.441156 65.086392 
L 659.270745 65.12073 
L 659.270745 64.654426 
L 658.68554 64.671212 
L 658.68554 63.735033 
L 658.100335 63.750978 
L 658.100335 61.392411 
L 656.929925 61.419957 
L 656.929925 60.944592 
L 656.344719 60.957955 
L 656.344719 59.524924 
L 654.589104 59.561069 
L 654.589104 58.59827 
L 654.003899 58.609442 
L 654.003899 58.126157 
L 653.418694 58.136885 
L 653.418694 57.166516 
L 652.833488 57.176326 
L 652.833488 56.68923 
L 652.248283 56.698587 
L 652.248283 56.21005 
L 651.663078 56.21895 
L 651.663078 55.728965 
L 646.981437 55.796952 
L 646.981437 54.309473 
L 646.396232 54.316578 
L 646.396232 53.818262 
L 645.811026 53.824885 
L 645.811026 53.325068 
L 643.470206 53.349698 
L 643.470206 52.846864 
L 641.129385 52.869671 
L 641.129385 52.363785 
L 639.37377 52.379479 
L 639.37377 51.87102 
L 634.692128 51.90919 
L 634.692128 51.395518 
L 630.010487 51.430084 
L 630.010487 50.911091 
L 615.380358 51.00915 
L 615.380358 50.475243 
L 614.795153 50.478707 
L 614.795153 49.943083 
L 609.528306 49.969395 
L 609.528306 49.427403 
L 573.830791 49.582016 
L 573.830791 49.000453 
L 569.14915 49.016931 
L 569.14915 48.428546 
L 567.97874 48.431332 
L 567.97874 47.840171 
L 484.294401 47.960535 
L 484.294401 47.247614 
L 72.89517 47.247614 
L 72.89517 47.247614 
" clip-path="url(#pdf3a1c5b5b)" style="fill: none; stroke: #7f7f7f; stroke-width: 1.5; stroke-linecap: square"/>
   </g>
   <g id="line2d_20">
    <path d="M 674.48608 500.259336 
L 674.48608 299.986491 
L 673.86843 300.115374 
L 673.86843 232.858277 
L 673.25078 232.978569 
L 673.25078 226.282808 
L 672.63313 226.401374 
L 672.63313 193.679834 
L 672.01548 193.786719 
L 672.01548 174.939943 
L 671.397831 175.038167 
L 671.397831 150.179614 
L 670.780181 150.264123 
L 670.780181 141.905365 
L 670.162531 141.984776 
L 670.162531 137.844173 
L 669.544881 137.921015 
L 669.544881 130.463603 
L 668.927231 130.535527 
L 668.927231 117.092256 
L 668.309582 117.154617 
L 668.309582 107.694994 
L 667.691932 107.750198 
L 667.691932 106.942524 
L 667.074282 106.997189 
L 667.074282 100.005099 
L 666.456632 100.054222 
L 666.456632 99.635685 
L 665.838982 99.684555 
L 665.838982 98.844443 
L 665.221332 98.89271 
L 665.221332 96.776867 
L 664.603683 96.823461 
L 664.603683 95.543308 
L 663.986033 95.588913 
L 663.986033 89.951995 
L 663.368383 89.99286 
L 663.368383 88.670928 
L 662.133083 88.750588 
L 662.133083 88.307476 
L 661.515434 88.347033 
L 661.515434 86.11665 
L 660.897784 86.154314 
L 660.897784 81.166178 
L 659.662484 81.23275 
L 659.662484 79.851122 
L 659.044834 79.883244 
L 659.044834 78.026623 
L 657.191885 78.118228 
L 657.191885 76.71218 
L 656.574235 76.741528 
L 656.574235 75.798608 
L 655.956585 75.827131 
L 655.956585 74.879549 
L 655.338936 74.907237 
L 655.338936 70.591634 
L 654.721286 70.615261 
L 654.721286 69.157813 
L 653.485986 69.202392 
L 653.485986 68.223917 
L 652.868336 68.245322 
L 652.868336 66.274425 
L 652.250687 66.29394 
L 652.250687 64.304856 
L 650.397737 64.357719 
L 650.397737 62.850612 
L 649.780087 62.866797 
L 649.780087 61.855826 
L 649.162438 61.871027 
L 649.162438 60.854816 
L 648.544788 60.86902 
L 648.544788 58.307241 
L 647.309488 58.3305 
L 647.309488 57.813854 
L 646.074189 57.836146 
L 646.074189 57.317341 
L 639.280041 57.435682 
L 639.280041 56.909791 
L 638.662391 56.920136 
L 638.662391 55.863861 
L 637.427091 55.882391 
L 637.427091 55.351431 
L 632.485893 55.421823 
L 632.485893 54.885168 
L 631.868243 54.893479 
L 631.868243 53.815506 
L 631.250593 53.822676 
L 631.250593 53.281341 
L 630.015294 53.294559 
L 630.015294 52.750864 
L 627.544694 52.775107 
L 627.544694 51.67937 
L 619.515247 51.743886 
L 619.515247 51.186263 
L 609.63285 51.258202 
L 609.63285 50.689189 
L 603.456352 50.728976 
L 603.456352 49.573901 
L 585.544508 49.654791 
L 585.544508 49.055164 
L 577.51506 49.08382 
L 577.51506 48.473246 
L 546.01492 48.554636 
L 546.01492 47.901977 
L 523.161878 47.935143 
L 523.161878 47.247614 
L 72.89517 47.247614 
L 72.89517 47.247614 
" clip-path="url(#pdf3a1c5b5b)" style="fill: none; stroke: #bcbd22; stroke-width: 1.5; stroke-linecap: square"/>
   </g>
   <g id="line2d_21">
    <path d="M 674.48608 498.502698 
L 674.48608 387.039854 
L 673.889855 387.148657 
L 673.889855 387.044847 
L 673.889855 257.552344 
L 673.29363 257.673627 
L 673.29363 251.14304 
L 672.697405 251.263333 
L 672.697405 236.119986 
L 672.10118 236.237152 
L 672.10118 144.32389 
L 671.504955 144.401863 
L 671.504955 137.793828 
L 670.90873 137.867803 
L 670.90873 124.332129 
L 670.312505 124.397235 
L 670.312505 120.779289 
L 669.71628 120.841976 
L 669.71628 120.110461 
L 669.120056 120.172737 
L 669.120056 118.331658 
L 668.523831 118.392727 
L 668.523831 113.148798 
L 667.927606 113.206153 
L 667.927606 112.826416 
L 667.331381 112.88359 
L 667.331381 108.271145 
L 666.735156 108.324958 
L 666.735156 105.586951 
L 665.542706 105.690665 
L 665.542706 102.914123 
L 664.946481 102.963959 
L 664.946481 89.380986 
L 664.350256 89.41989 
L 664.350256 83.399181 
L 663.754032 83.433031 
L 663.754032 82.996563 
L 663.157807 83.030099 
L 663.157807 82.592433 
L 661.369132 82.692277 
L 661.369132 81.812179 
L 659.580457 81.910281 
L 659.580457 80.135414 
L 658.984233 80.166676 
L 658.984233 76.57298 
L 657.791783 76.629267 
L 657.791783 74.350989 
L 657.195558 74.377151 
L 657.195558 73.918439 
L 655.406883 73.99597 
L 655.406883 72.610699 
L 654.810658 72.635371 
L 654.810658 71.706504 
L 653.618209 71.754275 
L 653.618209 68.468407 
L 653.021984 68.489293 
L 653.021984 68.015742 
L 651.829534 68.056745 
L 651.829534 67.105039 
L 651.233309 67.1247 
L 651.233309 66.168313 
L 648.252185 66.262633 
L 648.252185 65.297835 
L 647.65596 65.315885 
L 647.65596 64.831573 
L 647.059735 64.849192 
L 647.059735 63.876712 
L 646.46351 63.893425 
L 646.46351 62.425933 
L 645.867285 62.441249 
L 645.867285 61.94963 
L 644.674835 61.979392 
L 644.674835 61.48581 
L 643.482386 61.51472 
L 643.482386 60.522596 
L 642.886161 60.536114 
L 642.886161 60.038043 
L 639.905036 60.103567 
L 639.905036 59.601987 
L 639.308811 59.614672 
L 639.308811 59.111558 
L 638.116362 59.135995 
L 638.116362 57.617375 
L 636.923912 57.638844 
L 636.923912 57.129512 
L 634.539012 57.170644 
L 634.539012 56.144631 
L 633.346562 56.163224 
L 633.346562 55.647554 
L 632.750338 55.65635 
L 632.750338 55.139067 
L 630.365438 55.172294 
L 630.365438 54.651776 
L 629.769213 54.659586 
L 629.769213 54.137427 
L 626.191864 54.181358 
L 626.191864 53.654802 
L 623.806964 53.682183 
L 623.806964 53.152278 
L 623.210739 53.158599 
L 623.210739 52.094253 
L 614.863591 52.168167 
L 614.863591 51.626208 
L 607.708892 51.684267 
L 607.708892 50.582474 
L 600.554194 50.627388 
L 600.554194 50.067257 
L 585.052347 50.152107 
L 585.052347 49.573901 
L 555.241103 49.716969 
L 555.241103 49.101911 
L 554.644878 49.104197 
L 554.644878 48.486864 
L 553.452428 48.489932 
L 553.452428 47.869542 
L 511.716686 47.928613 
L 511.716686 47.247614 
L 72.89517 47.247614 
L 72.89517 47.247614 
" clip-path="url(#pdf3a1c5b5b)" style="fill: none; stroke: #17becf; stroke-width: 1.5; stroke-linecap: square"/>
   </g>
   <g id="patch_3">
    <path d="M 42.815625 527.23125 
L 42.815625 24.39125 
" style="fill: none; stroke: #000000; stroke-width: 0.8; stroke-linejoin: miter; stroke-linecap: square"/>
   </g>
   <g id="patch_4">
    <path d="M 704.565625 527.23125 
L 704.565625 24.39125 
" style="fill: none; stroke: #000000; stroke-width: 0.8; stroke-linejoin: miter; stroke-linecap: square"/>
   </g>
   <g id="patch_5">
    <path d="M 42.815625 527.23125 
L 704.565625 527.23125 
" style="fill: none; stroke: #000000; stroke-width: 0.8; stroke-linejoin: miter; stroke-linecap: square"/>
   </g>
   <g id="patch_6">
    <path d="M 42.815625 24.39125 
L 704.565625 24.39125 
" style="fill: none; stroke: #000000; stroke-width: 0.8; stroke-linejoin: miter; stroke-linecap: square"/>
   </g>
   <g id="text_14">
    <!-- MNIST 模型 PR 曲线 -->
    <g transform="translate(307.9825 18.39125) scale(0.14 -0.14)">
     <defs>
      <path id="MicrosoftYaHei-4d" d="M 5003 0 
L 5003 3206 
Q 5003 3603 5050 4159 
L 5034 4159 
Q 4953 3809 4891 3672 
L 3294 0 
L 2947 0 
L 1353 3644 
Q 1297 3769 1209 4159 
L 1191 4159 
Q 1222 3822 1222 3178 
L 1222 0 
L 625 0 
L 625 4841 
L 1472 4841 
L 2900 1522 
Q 3063 1141 3116 928 
L 3138 928 
Q 3300 1375 3366 1534 
L 4819 4841 
L 5625 4841 
L 5625 0 
L 5003 0 
z
" transform="scale(0.015625)"/>
      <path id="MicrosoftYaHei-4e" d="M 4578 0 
L 3838 0 
L 1403 3766 
Q 1300 3925 1238 4081 
L 1219 4081 
Q 1244 3919 1244 3403 
L 1244 0 
L 625 0 
L 625 4841 
L 1409 4841 
L 3778 1141 
Q 3947 878 3978 806 
L 3991 806 
Q 3959 1013 3959 1513 
L 3959 4841 
L 4578 4841 
L 4578 0 
z
" transform="scale(0.015625)"/>
      <path id="MicrosoftYaHei-49" d="M 1250 4841 
L 1250 0 
L 625 0 
L 625 4841 
L 1250 4841 
z
" transform="scale(0.015625)"/>
      <path id="MicrosoftYaHei-53" d="M 400 909 
Q 622 716 994 591 
Q 1366 466 1700 466 
Q 2719 466 2719 1191 
Q 2719 1394 2609 1556 
Q 2500 1719 2309 1844 
Q 2119 1969 1594 2228 
Q 866 2591 634 2902 
Q 403 3213 403 3613 
Q 403 4216 887 4569 
Q 1372 4922 2109 4922 
Q 2831 4922 3169 4747 
L 3169 4066 
Q 2731 4369 2063 4369 
Q 1619 4369 1339 4183 
Q 1059 3997 1059 3666 
Q 1059 3372 1253 3187 
Q 1447 3003 2094 2684 
Q 2806 2344 3090 2003 
Q 3375 1663 3375 1238 
Q 3375 600 2912 259 
Q 2450 -81 1628 -81 
Q 1341 -81 958 -1 
Q 575 78 400 197 
L 400 909 
z
" transform="scale(0.015625)"/>
      <path id="MicrosoftYaHei-54" d="M 3550 4284 
L 2153 4284 
L 2153 0 
L 1525 0 
L 1525 4284 
L 134 4284 
L 134 4841 
L 3550 4841 
L 3550 4284 
z
" transform="scale(0.015625)"/>
      <path id="MicrosoftYaHei-6a21" d="M 2050 984 
L 3859 984 
Q 3900 1213 3913 1547 
L 2950 1547 
L 2950 1372 
L 2500 1372 
L 2500 3634 
L 5844 3634 
L 5844 1372 
L 5394 1372 
L 5394 1547 
L 4344 1547 
Q 4325 1203 4288 984 
L 6250 984 
L 6250 584 
L 4525 584 
Q 5203 -175 6319 -341 
Q 6144 -572 6013 -809 
Q 4803 -456 4128 466 
Q 3681 -431 2075 -847 
Q 1969 -628 1831 -416 
Q 3303 -106 3713 584 
L 2050 584 
L 2050 984 
z
M 63 1409 
Q 603 2316 922 3509 
L 138 3509 
L 138 3922 
L 1006 3922 
L 1006 5309 
L 1444 5309 
L 1444 3922 
L 2256 3922 
L 2256 3509 
L 1444 3509 
L 1444 2684 
L 1688 2884 
Q 2044 2503 2350 2116 
L 2006 1828 
Q 1719 2244 1444 2563 
L 1444 -822 
L 1006 -822 
L 1006 2581 
Q 672 1438 275 859 
Q 188 1128 63 1409 
z
M 4713 5303 
L 5150 5303 
L 5150 4703 
L 6225 4703 
L 6225 4303 
L 5150 4303 
L 5150 3797 
L 4713 3797 
L 4713 4303 
L 3600 4303 
L 3600 3797 
L 3163 3797 
L 3163 4303 
L 2175 4303 
L 2175 4703 
L 3163 4703 
L 3163 5309 
L 3600 5309 
L 3600 4703 
L 4713 4703 
L 4713 5303 
z
M 5394 3247 
L 2950 3247 
L 2950 2778 
L 5394 2778 
L 5394 3247 
z
M 2950 1934 
L 5394 1934 
L 5394 2403 
L 2950 2403 
L 2950 1934 
z
" transform="scale(0.015625)"/>
      <path id="MicrosoftYaHei-578b" d="M 150 3503 
L 1100 3503 
Q 1106 3638 1106 4547 
L 413 4547 
L 413 4959 
L 3675 4959 
L 3675 4547 
L 2994 4547 
L 2994 3503 
L 3881 3503 
L 3881 3091 
L 2994 3091 
L 2994 1747 
L 2538 1747 
L 2538 3091 
L 1528 3091 
Q 1450 2191 638 1534 
Q 475 1716 294 1897 
Q 1013 2453 1066 3091 
L 150 3091 
L 150 3503 
z
M 138 -103 
L 2938 -103 
L 2938 741 
L 706 741 
L 706 1172 
L 2938 1172 
L 2938 1659 
L 3425 1659 
L 3425 1172 
L 5713 1172 
L 5713 741 
L 3425 741 
L 3425 -103 
L 6256 -103 
L 6256 -534 
L 138 -534 
L 138 -103 
z
M 5856 5209 
L 5856 2334 
Q 5856 1672 5200 1659 
Q 4825 1647 4331 1659 
Q 4306 1897 4256 2153 
Q 4781 2122 5044 2122 
Q 5400 2122 5400 2516 
L 5400 5209 
L 5856 5209 
z
M 1556 3503 
L 2538 3503 
L 2538 4547 
L 1563 4547 
Q 1563 3791 1556 3503 
z
M 4138 4859 
L 4588 4859 
L 4588 2697 
L 4138 2697 
L 4138 4859 
z
" transform="scale(0.015625)"/>
      <path id="MicrosoftYaHei-66f2" d="M 2163 5322 
L 2625 5322 
L 2625 4291 
L 3775 4291 
L 3775 5328 
L 4238 5328 
L 4238 4291 
L 5850 4291 
L 5850 -822 
L 5388 -822 
L 5388 -409 
L 1013 -409 
L 1013 -822 
L 550 -822 
L 550 4291 
L 2163 4291 
L 2163 5322 
z
M 1013 41 
L 2163 41 
L 2163 1753 
L 1013 1753 
L 1013 41 
z
M 4238 41 
L 5388 41 
L 5388 1753 
L 4238 1753 
L 4238 41 
z
M 2625 41 
L 3775 41 
L 3775 1753 
L 2625 1753 
L 2625 41 
z
M 1013 2203 
L 2163 2203 
L 2163 3841 
L 1013 3841 
L 1013 2203 
z
M 5388 3841 
L 4238 3841 
L 4238 2203 
L 5388 2203 
L 5388 3841 
z
M 2625 2203 
L 3775 2203 
L 3775 3841 
L 2625 3841 
L 2625 2203 
z
" transform="scale(0.015625)"/>
      <path id="MicrosoftYaHei-7ebf" d="M 1969 -347 
Q 3144 75 4003 631 
Q 3781 1197 3653 1972 
L 2319 1784 
L 2244 2234 
L 3591 2422 
Q 3538 2859 3513 3356 
L 2381 3228 
L 2306 3678 
L 3488 3809 
Q 3453 4459 3425 5303 
L 3938 5303 
Q 3953 4497 3978 3866 
L 6069 4103 
L 6125 3659 
L 3997 3413 
Q 4019 2919 4069 2488 
L 6225 2791 
L 6281 2347 
L 4128 2041 
Q 4234 1394 4416 916 
Q 5078 1416 5519 2009 
L 5925 1703 
Q 5363 1025 4619 475 
Q 4859 44 5194 -184 
Q 5606 -428 5725 66 
Q 5806 466 5856 953 
Q 6144 828 6338 772 
Q 6231 97 6125 -247 
Q 5944 -778 5506 -778 
Q 5050 -778 4663 -403 
Q 4409 -163 4209 194 
Q 3350 -363 2281 -772 
Q 2169 -597 1969 -347 
z
M 900 1541 
Q 1456 1622 2213 1753 
Q 2175 1522 2156 1272 
Q 1113 1109 325 978 
L 225 1447 
Q 659 1913 1178 2775 
Q 672 2747 225 2703 
L 106 3128 
Q 688 3922 1300 5353 
L 1775 5166 
Q 1131 3897 669 3166 
Q 1041 3178 1422 3194 
Q 1638 3578 1869 4028 
L 2331 3797 
Q 1569 2478 900 1541 
z
M 106 97 
Q 1206 334 2331 616 
Q 2313 366 2313 141 
Q 1269 -103 244 -378 
L 106 97 
z
M 4463 4972 
L 4731 5284 
Q 5175 5003 5681 4609 
L 5381 4247 
Q 4863 4691 4463 4972 
z
" transform="scale(0.015625)"/>
     </defs>
     <use xlink:href="#MicrosoftYaHei-4d"/>
     <use xlink:href="#MicrosoftYaHei-4e" transform="translate(97.705078 0)"/>
     <use xlink:href="#MicrosoftYaHei-49" transform="translate(179.003906 0)"/>
     <use xlink:href="#MicrosoftYaHei-53" transform="translate(208.398438 0)"/>
     <use xlink:href="#MicrosoftYaHei-54" transform="translate(266.113281 0)"/>
     <use xlink:href="#MicrosoftYaHei-20" transform="translate(323.4375 0)"/>
     <use xlink:href="#MicrosoftYaHei-6a21" transform="translate(353.027344 0)"/>
     <use xlink:href="#MicrosoftYaHei-578b" transform="translate(453.027344 0)"/>
     <use xlink:href="#MicrosoftYaHei-20" transform="translate(553.027344 0)"/>
     <use xlink:href="#MicrosoftYaHei-50" transform="translate(582.617188 0)"/>
     <use xlink:href="#MicrosoftYaHei-52" transform="translate(643.798828 0)"/>
     <use xlink:href="#MicrosoftYaHei-20" transform="translate(709.082031 0)"/>
     <use xlink:href="#MicrosoftYaHei-66f2" transform="translate(738.671875 0)"/>
     <use xlink:href="#MicrosoftYaHei-7ebf" transform="translate(838.671875 0)"/>
    </g>
   </g>
   <g id="legend_1">
    <g id="patch_7">
     <path d="M 49.815625 522.23125 
L 186.396875 522.23125 
Q 188.396875 522.23125 188.396875 520.23125 
L 188.396875 366.434375 
Q 188.396875 364.434375 186.396875 364.434375 
L 49.815625 364.434375 
Q 47.815625 364.434375 47.815625 366.434375 
L 47.815625 520.23125 
Q 47.815625 522.23125 49.815625 522.23125 
z
" style="fill: #ffffff; opacity: 0.8; stroke: #cccccc; stroke-linejoin: miter"/>
    </g>
    <g id="line2d_22">
     <path d="M 51.815625 372.928125 
L 61.815625 372.928125 
L 71.815625 372.928125 
" style="fill: none; stroke: #1f77b4; stroke-width: 1.5; stroke-linecap: square"/>
    </g>
    <g id="text_15">
     <!-- 类别 0 (AUC = 0.9989) -->
     <g transform="translate(79.815625 376.428125) scale(0.1 -0.1)">
      <defs>
       <path id="MicrosoftYaHei-7c7b" d="M 6338 -359 
Q 6213 -503 6006 -853 
Q 3975 -459 3200 884 
Q 2644 -497 400 -897 
Q 288 -684 131 -434 
Q 2244 -147 2744 1047 
L 275 1047 
L 275 1484 
L 2875 1484 
Q 2925 1691 2956 1978 
L 3456 1978 
Q 3413 1697 3369 1484 
L 6125 1484 
L 6125 1047 
L 3619 1047 
Q 4450 -159 6338 -359 
z
M 325 3741 
L 2975 3741 
L 2975 5303 
L 3450 5303 
L 3450 3741 
L 6075 3741 
L 6075 3322 
L 3450 3322 
L 3450 2953 
L 3625 3191 
Q 5325 2528 6231 2128 
L 6013 1722 
Q 4956 2266 3450 2847 
L 3450 2197 
L 2975 2197 
L 2975 3241 
Q 1863 2191 450 1741 
Q 319 1934 144 2153 
Q 1569 2553 2538 3322 
L 325 3322 
L 325 3741 
z
M 5550 4784 
Q 5163 4459 4394 3891 
L 4069 4222 
Q 4569 4578 5194 5122 
L 5550 4784 
z
M 900 4791 
L 1206 5122 
Q 1875 4647 2306 4266 
L 1969 3897 
Q 1581 4284 900 4791 
z
" transform="scale(0.015625)"/>
       <path id="MicrosoftYaHei-522b" d="M 538 4959 
L 3375 4959 
L 3375 2772 
L 2888 2772 
L 2888 3028 
L 1025 3028 
L 1025 2772 
L 538 2772 
L 538 4959 
z
M 300 2116 
L 1316 2116 
Q 1331 2431 1338 2822 
L 1825 2822 
Q 1816 2431 1797 2116 
L 3431 2116 
Q 3413 1028 3363 328 
Q 3319 -684 2431 -678 
Q 2006 -678 1563 -641 
Q 1531 -347 1469 -122 
Q 1963 -203 2350 -203 
Q 2850 -209 2875 378 
Q 2925 891 2938 1666 
L 1769 1666 
Q 1688 53 431 -859 
Q 300 -666 88 -441 
Q 1238 366 1288 1666 
L 300 1666 
L 300 2116 
z
M 5425 5278 
L 5944 5278 
L 5944 53 
Q 5944 -747 5163 -747 
Q 4756 -747 4175 -741 
Q 4138 -484 4081 -178 
Q 4725 -228 4994 -228 
Q 5425 -228 5425 191 
L 5425 5278 
z
M 4138 4647 
L 4644 4647 
L 4644 666 
L 4138 666 
L 4138 4647 
z
M 2888 4509 
L 1025 4509 
L 1025 3478 
L 2888 3478 
L 2888 4509 
z
" transform="scale(0.015625)"/>
       <path id="MicrosoftYaHei-41" d="M 4428 0 
L 3738 0 
L 3244 1325 
L 1228 1325 
L 763 0 
L 72 0 
L 1916 4841 
L 2584 4841 
L 4428 0 
z
M 3050 1872 
L 2319 3884 
Q 2284 3981 2244 4222 
L 2228 4222 
Q 2194 4003 2150 3884 
L 1425 1872 
L 3050 1872 
z
" transform="scale(0.015625)"/>
       <path id="MicrosoftYaHei-55" d="M 4213 1972 
Q 4213 -81 2350 -81 
Q 566 -81 566 1900 
L 566 4841 
L 1191 4841 
L 1191 1928 
Q 1191 475 2409 475 
Q 3588 475 3588 1881 
L 3588 4841 
L 4213 4841 
L 4213 1972 
z
" transform="scale(0.015625)"/>
       <path id="MicrosoftYaHei-43" d="M 3938 200 
Q 3403 -81 2597 -81 
Q 1556 -81 934 580 
Q 313 1241 313 2328 
Q 313 3497 1013 4209 
Q 1713 4922 2791 4922 
Q 3484 4922 3938 4725 
L 3938 4072 
Q 3419 4359 2797 4359 
Q 1988 4359 1478 3820 
Q 969 3281 969 2366 
Q 969 1497 1444 986 
Q 1919 475 2688 475 
Q 3406 475 3938 800 
L 3938 200 
z
" transform="scale(0.015625)"/>
       <path id="MicrosoftYaHei-3d" d="M 3972 2497 
L 788 2497 
L 788 2969 
L 3972 2969 
L 3972 2497 
z
M 3972 1053 
L 788 1053 
L 788 1525 
L 3972 1525 
L 3972 1053 
z
" transform="scale(0.015625)"/>
       <path id="MicrosoftYaHei-39" d="M 578 656 
Q 978 425 1441 425 
Q 2091 425 2448 937 
Q 2806 1450 2806 2394 
Q 2800 2388 2794 2394 
Q 2475 1788 1722 1788 
Q 1113 1788 713 2206 
Q 313 2625 313 3294 
Q 313 4006 750 4464 
Q 1188 4922 1884 4922 
Q 2606 4922 3012 4355 
Q 3419 3788 3419 2703 
Q 3419 1363 2894 641 
Q 2369 -81 1441 -81 
Q 931 -81 578 84 
L 578 656 
z
M 931 3372 
Q 931 2884 1181 2598 
Q 1431 2313 1872 2313 
Q 2253 2313 2512 2573 
Q 2772 2834 2772 3206 
Q 2772 3728 2514 4070 
Q 2256 4413 1834 4413 
Q 1444 4413 1187 4116 
Q 931 3819 931 3372 
z
" transform="scale(0.015625)"/>
      </defs>
      <use xlink:href="#MicrosoftYaHei-7c7b"/>
      <use xlink:href="#MicrosoftYaHei-522b" transform="translate(100 0)"/>
      <use xlink:href="#MicrosoftYaHei-20" transform="translate(200 0)"/>
      <use xlink:href="#MicrosoftYaHei-30" transform="translate(229.589844 0)"/>
      <use xlink:href="#MicrosoftYaHei-20" transform="translate(288.232422 0)"/>
      <use xlink:href="#MicrosoftYaHei-28" transform="translate(317.822266 0)"/>
      <use xlink:href="#MicrosoftYaHei-41" transform="translate(351.220703 0)"/>
      <use xlink:href="#MicrosoftYaHei-55" transform="translate(420.207031 0)"/>
      <use xlink:href="#MicrosoftYaHei-43" transform="translate(494.865234 0)"/>
      <use xlink:href="#MicrosoftYaHei-20" transform="translate(561.759766 0)"/>
      <use xlink:href="#MicrosoftYaHei-3d" transform="translate(591.349609 0)"/>
      <use xlink:href="#MicrosoftYaHei-20" transform="translate(665.519531 0)"/>
      <use xlink:href="#MicrosoftYaHei-30" transform="translate(695.109375 0)"/>
      <use xlink:href="#MicrosoftYaHei-2e" transform="translate(753.751953 0)"/>
      <use xlink:href="#MicrosoftYaHei-39" transform="translate(777.824219 0)"/>
      <use xlink:href="#MicrosoftYaHei-39" transform="translate(836.466797 0)"/>
      <use xlink:href="#MicrosoftYaHei-38" transform="translate(895.109375 0)"/>
      <use xlink:href="#MicrosoftYaHei-39" transform="translate(953.751953 0)"/>
      <use xlink:href="#MicrosoftYaHei-29" transform="translate(1012.394531 0)"/>
     </g>
    </g>
    <g id="line2d_23">
     <path d="M 51.815625 388.407812 
L 61.815625 388.407812 
L 71.815625 388.407812 
" style="fill: none; stroke: #ff7f0e; stroke-width: 1.5; stroke-linecap: square"/>
    </g>
    <g id="text_16">
     <!-- 类别 1 (AUC = 0.9996) -->
     <g transform="translate(79.815625 391.907812) scale(0.1 -0.1)">
      <use xlink:href="#MicrosoftYaHei-7c7b"/>
      <use xlink:href="#MicrosoftYaHei-522b" transform="translate(100 0)"/>
      <use xlink:href="#MicrosoftYaHei-20" transform="translate(200 0)"/>
      <use xlink:href="#MicrosoftYaHei-31" transform="translate(229.589844 0)"/>
      <use xlink:href="#MicrosoftYaHei-20" transform="translate(288.232422 0)"/>
      <use xlink:href="#MicrosoftYaHei-28" transform="translate(317.822266 0)"/>
      <use xlink:href="#MicrosoftYaHei-41" transform="translate(351.220703 0)"/>
      <use xlink:href="#MicrosoftYaHei-55" transform="translate(420.207031 0)"/>
      <use xlink:href="#MicrosoftYaHei-43" transform="translate(494.865234 0)"/>
      <use xlink:href="#MicrosoftYaHei-20" transform="translate(561.759766 0)"/>
      <use xlink:href="#MicrosoftYaHei-3d" transform="translate(591.349609 0)"/>
      <use xlink:href="#MicrosoftYaHei-20" transform="translate(665.519531 0)"/>
      <use xlink:href="#MicrosoftYaHei-30" transform="translate(695.109375 0)"/>
      <use xlink:href="#MicrosoftYaHei-2e" transform="translate(753.751953 0)"/>
      <use xlink:href="#MicrosoftYaHei-39" transform="translate(777.824219 0)"/>
      <use xlink:href="#MicrosoftYaHei-39" transform="translate(836.466797 0)"/>
      <use xlink:href="#MicrosoftYaHei-39" transform="translate(895.109375 0)"/>
      <use xlink:href="#MicrosoftYaHei-36" transform="translate(953.751953 0)"/>
      <use xlink:href="#MicrosoftYaHei-29" transform="translate(1012.394531 0)"/>
     </g>
    </g>
    <g id="line2d_24">
     <path d="M 51.815625 403.8875 
L 61.815625 403.8875 
L 71.815625 403.8875 
" style="fill: none; stroke: #2ca02c; stroke-width: 1.5; stroke-linecap: square"/>
    </g>
    <g id="text_17">
     <!-- 类别 2 (AUC = 0.9955) -->
     <g transform="translate(79.815625 407.3875) scale(0.1 -0.1)">
      <defs>
       <path id="MicrosoftYaHei-35" d="M 3294 1494 
Q 3294 784 2823 350 
Q 2353 -84 1559 -84 
Q 878 -84 544 119 
L 544 744 
Q 1034 425 1544 425 
Q 2050 425 2361 704 
Q 2672 984 2672 1447 
Q 2672 1909 2348 2167 
Q 2025 2425 1434 2425 
Q 978 2425 613 2384 
L 791 4841 
L 3053 4841 
L 3053 4303 
L 1306 4303 
L 1206 2931 
L 1647 2950 
Q 2416 2950 2855 2567 
Q 3294 2184 3294 1494 
z
" transform="scale(0.015625)"/>
      </defs>
      <use xlink:href="#MicrosoftYaHei-7c7b"/>
      <use xlink:href="#MicrosoftYaHei-522b" transform="translate(100 0)"/>
      <use xlink:href="#MicrosoftYaHei-20" transform="translate(200 0)"/>
      <use xlink:href="#MicrosoftYaHei-32" transform="translate(229.589844 0)"/>
      <use xlink:href="#MicrosoftYaHei-20" transform="translate(288.232422 0)"/>
      <use xlink:href="#MicrosoftYaHei-28" transform="translate(317.822266 0)"/>
      <use xlink:href="#MicrosoftYaHei-41" transform="translate(351.220703 0)"/>
      <use xlink:href="#MicrosoftYaHei-55" transform="translate(420.207031 0)"/>
      <use xlink:href="#MicrosoftYaHei-43" transform="translate(494.865234 0)"/>
      <use xlink:href="#MicrosoftYaHei-20" transform="translate(561.759766 0)"/>
      <use xlink:href="#MicrosoftYaHei-3d" transform="translate(591.349609 0)"/>
      <use xlink:href="#MicrosoftYaHei-20" transform="translate(665.519531 0)"/>
      <use xlink:href="#MicrosoftYaHei-30" transform="translate(695.109375 0)"/>
      <use xlink:href="#MicrosoftYaHei-2e" transform="translate(753.751953 0)"/>
      <use xlink:href="#MicrosoftYaHei-39" transform="translate(777.824219 0)"/>
      <use xlink:href="#MicrosoftYaHei-39" transform="translate(836.466797 0)"/>
      <use xlink:href="#MicrosoftYaHei-35" transform="translate(895.109375 0)"/>
      <use xlink:href="#MicrosoftYaHei-35" transform="translate(953.751953 0)"/>
      <use xlink:href="#MicrosoftYaHei-29" transform="translate(1012.394531 0)"/>
     </g>
    </g>
    <g id="line2d_25">
     <path d="M 51.815625 419.367188 
L 61.815625 419.367188 
L 71.815625 419.367188 
" style="fill: none; stroke: #d62728; stroke-width: 1.5; stroke-linecap: square"/>
    </g>
    <g id="text_18">
     <!-- 类别 3 (AUC = 0.9952) -->
     <g transform="translate(79.815625 422.867188) scale(0.1 -0.1)">
      <defs>
       <path id="MicrosoftYaHei-33" d="M 447 809 
Q 944 425 1569 425 
Q 2069 425 2361 670 
Q 2653 916 2653 1328 
Q 2653 2247 1338 2247 
L 934 2247 
L 934 2753 
L 1319 2753 
Q 2484 2753 2484 3616 
Q 2484 4413 1594 4413 
Q 1084 4413 634 4069 
L 634 4647 
Q 1109 4922 1744 4922 
Q 2363 4922 2738 4598 
Q 3113 4275 3113 3759 
Q 3113 2809 2144 2538 
L 2144 2525 
Q 2669 2469 2973 2155 
Q 3278 1841 3278 1372 
Q 3278 719 2808 319 
Q 2338 -81 1556 -81 
Q 869 -81 447 175 
L 447 809 
z
" transform="scale(0.015625)"/>
      </defs>
      <use xlink:href="#MicrosoftYaHei-7c7b"/>
      <use xlink:href="#MicrosoftYaHei-522b" transform="translate(100 0)"/>
      <use xlink:href="#MicrosoftYaHei-20" transform="translate(200 0)"/>
      <use xlink:href="#MicrosoftYaHei-33" transform="translate(229.589844 0)"/>
      <use xlink:href="#MicrosoftYaHei-20" transform="translate(288.232422 0)"/>
      <use xlink:href="#MicrosoftYaHei-28" transform="translate(317.822266 0)"/>
      <use xlink:href="#MicrosoftYaHei-41" transform="translate(351.220703 0)"/>
      <use xlink:href="#MicrosoftYaHei-55" transform="translate(420.207031 0)"/>
      <use xlink:href="#MicrosoftYaHei-43" transform="translate(494.865234 0)"/>
      <use xlink:href="#MicrosoftYaHei-20" transform="translate(561.759766 0)"/>
      <use xlink:href="#MicrosoftYaHei-3d" transform="translate(591.349609 0)"/>
      <use xlink:href="#MicrosoftYaHei-20" transform="translate(665.519531 0)"/>
      <use xlink:href="#MicrosoftYaHei-30" transform="translate(695.109375 0)"/>
      <use xlink:href="#MicrosoftYaHei-2e" transform="translate(753.751953 0)"/>
      <use xlink:href="#MicrosoftYaHei-39" transform="translate(777.824219 0)"/>
      <use xlink:href="#MicrosoftYaHei-39" transform="translate(836.466797 0)"/>
      <use xlink:href="#MicrosoftYaHei-35" transform="translate(895.109375 0)"/>
      <use xlink:href="#MicrosoftYaHei-32" transform="translate(953.751953 0)"/>
      <use xlink:href="#MicrosoftYaHei-29" transform="translate(1012.394531 0)"/>
     </g>
    </g>
    <g id="line2d_26">
     <path d="M 51.815625 434.846875 
L 61.815625 434.846875 
L 71.815625 434.846875 
" style="fill: none; stroke: #9467bd; stroke-width: 1.5; stroke-linecap: square"/>
    </g>
    <g id="text_19">
     <!-- 类别 4 (AUC = 0.9979) -->
     <g transform="translate(79.815625 438.346875) scale(0.1 -0.1)">
      <defs>
       <path id="MicrosoftYaHei-37" d="M 3422 4463 
Q 2659 3131 2223 1998 
Q 1788 866 1684 0 
L 1047 0 
Q 1163 853 1594 1947 
Q 2025 3041 2747 4300 
L 347 4300 
L 347 4841 
L 3422 4841 
L 3422 4463 
z
" transform="scale(0.015625)"/>
      </defs>
      <use xlink:href="#MicrosoftYaHei-7c7b"/>
      <use xlink:href="#MicrosoftYaHei-522b" transform="translate(100 0)"/>
      <use xlink:href="#MicrosoftYaHei-20" transform="translate(200 0)"/>
      <use xlink:href="#MicrosoftYaHei-34" transform="translate(229.589844 0)"/>
      <use xlink:href="#MicrosoftYaHei-20" transform="translate(288.232422 0)"/>
      <use xlink:href="#MicrosoftYaHei-28" transform="translate(317.822266 0)"/>
      <use xlink:href="#MicrosoftYaHei-41" transform="translate(351.220703 0)"/>
      <use xlink:href="#MicrosoftYaHei-55" transform="translate(420.207031 0)"/>
      <use xlink:href="#MicrosoftYaHei-43" transform="translate(494.865234 0)"/>
      <use xlink:href="#MicrosoftYaHei-20" transform="translate(561.759766 0)"/>
      <use xlink:href="#MicrosoftYaHei-3d" transform="translate(591.349609 0)"/>
      <use xlink:href="#MicrosoftYaHei-20" transform="translate(665.519531 0)"/>
      <use xlink:href="#MicrosoftYaHei-30" transform="translate(695.109375 0)"/>
      <use xlink:href="#MicrosoftYaHei-2e" transform="translate(753.751953 0)"/>
      <use xlink:href="#MicrosoftYaHei-39" transform="translate(777.824219 0)"/>
      <use xlink:href="#MicrosoftYaHei-39" transform="translate(836.466797 0)"/>
      <use xlink:href="#MicrosoftYaHei-37" transform="translate(895.109375 0)"/>
      <use xlink:href="#MicrosoftYaHei-39" transform="translate(953.751953 0)"/>
      <use xlink:href="#MicrosoftYaHei-29" transform="translate(1012.394531 0)"/>
     </g>
    </g>
    <g id="line2d_27">
     <path d="M 51.815625 450.326563 
L 61.815625 450.326563 
L 71.815625 450.326563 
" style="fill: none; stroke: #8c564b; stroke-width: 1.5; stroke-linecap: square"/>
    </g>
    <g id="text_20">
     <!-- 类别 5 (AUC = 0.9968) -->
     <g transform="translate(79.815625 453.826563) scale(0.1 -0.1)">
      <use xlink:href="#MicrosoftYaHei-7c7b"/>
      <use xlink:href="#MicrosoftYaHei-522b" transform="translate(100 0)"/>
      <use xlink:href="#MicrosoftYaHei-20" transform="translate(200 0)"/>
      <use xlink:href="#MicrosoftYaHei-35" transform="translate(229.589844 0)"/>
      <use xlink:href="#MicrosoftYaHei-20" transform="translate(288.232422 0)"/>
      <use xlink:href="#MicrosoftYaHei-28" transform="translate(317.822266 0)"/>
      <use xlink:href="#MicrosoftYaHei-41" transform="translate(351.220703 0)"/>
      <use xlink:href="#MicrosoftYaHei-55" transform="translate(420.207031 0)"/>
      <use xlink:href="#MicrosoftYaHei-43" transform="translate(494.865234 0)"/>
      <use xlink:href="#MicrosoftYaHei-20" transform="translate(561.759766 0)"/>
      <use xlink:href="#MicrosoftYaHei-3d" transform="translate(591.349609 0)"/>
      <use xlink:href="#MicrosoftYaHei-20" transform="translate(665.519531 0)"/>
      <use xlink:href="#MicrosoftYaHei-30" transform="translate(695.109375 0)"/>
      <use xlink:href="#MicrosoftYaHei-2e" transform="translate(753.751953 0)"/>
      <use xlink:href="#MicrosoftYaHei-39" transform="translate(777.824219 0)"/>
      <use xlink:href="#MicrosoftYaHei-39" transform="translate(836.466797 0)"/>
      <use xlink:href="#MicrosoftYaHei-36" transform="translate(895.109375 0)"/>
      <use xlink:href="#MicrosoftYaHei-38" transform="translate(953.751953 0)"/>
      <use xlink:href="#MicrosoftYaHei-29" transform="translate(1012.394531 0)"/>
     </g>
    </g>
    <g id="line2d_28">
     <path d="M 51.815625 465.80625 
L 61.815625 465.80625 
L 71.815625 465.80625 
" style="fill: none; stroke: #e377c2; stroke-width: 1.5; stroke-linecap: square"/>
    </g>
    <g id="text_21">
     <!-- 类别 6 (AUC = 0.9970) -->
     <g transform="translate(79.815625 469.30625) scale(0.1 -0.1)">
      <use xlink:href="#MicrosoftYaHei-7c7b"/>
      <use xlink:href="#MicrosoftYaHei-522b" transform="translate(100 0)"/>
      <use xlink:href="#MicrosoftYaHei-20" transform="translate(200 0)"/>
      <use xlink:href="#MicrosoftYaHei-36" transform="translate(229.589844 0)"/>
      <use xlink:href="#MicrosoftYaHei-20" transform="translate(288.232422 0)"/>
      <use xlink:href="#MicrosoftYaHei-28" transform="translate(317.822266 0)"/>
      <use xlink:href="#MicrosoftYaHei-41" transform="translate(351.220703 0)"/>
      <use xlink:href="#MicrosoftYaHei-55" transform="translate(420.207031 0)"/>
      <use xlink:href="#MicrosoftYaHei-43" transform="translate(494.865234 0)"/>
      <use xlink:href="#MicrosoftYaHei-20" transform="translate(561.759766 0)"/>
      <use xlink:href="#MicrosoftYaHei-3d" transform="translate(591.349609 0)"/>
      <use xlink:href="#MicrosoftYaHei-20" transform="translate(665.519531 0)"/>
      <use xlink:href="#MicrosoftYaHei-30" transform="translate(695.109375 0)"/>
      <use xlink:href="#MicrosoftYaHei-2e" transform="translate(753.751953 0)"/>
      <use xlink:href="#MicrosoftYaHei-39" transform="translate(777.824219 0)"/>
      <use xlink:href="#MicrosoftYaHei-39" transform="translate(836.466797 0)"/>
      <use xlink:href="#MicrosoftYaHei-37" transform="translate(895.109375 0)"/>
      <use xlink:href="#MicrosoftYaHei-30" transform="translate(953.751953 0)"/>
      <use xlink:href="#MicrosoftYaHei-29" transform="translate(1012.394531 0)"/>
     </g>
    </g>
    <g id="line2d_29">
     <path d="M 51.815625 481.285937 
L 61.815625 481.285937 
L 71.815625 481.285937 
" style="fill: none; stroke: #7f7f7f; stroke-width: 1.5; stroke-linecap: square"/>
    </g>
    <g id="text_22">
     <!-- 类别 7 (AUC = 0.9959) -->
     <g transform="translate(79.815625 484.785937) scale(0.1 -0.1)">
      <use xlink:href="#MicrosoftYaHei-7c7b"/>
      <use xlink:href="#MicrosoftYaHei-522b" transform="translate(100 0)"/>
      <use xlink:href="#MicrosoftYaHei-20" transform="translate(200 0)"/>
      <use xlink:href="#MicrosoftYaHei-37" transform="translate(229.589844 0)"/>
      <use xlink:href="#MicrosoftYaHei-20" transform="translate(288.232422 0)"/>
      <use xlink:href="#MicrosoftYaHei-28" transform="translate(317.822266 0)"/>
      <use xlink:href="#MicrosoftYaHei-41" transform="translate(351.220703 0)"/>
      <use xlink:href="#MicrosoftYaHei-55" transform="translate(420.207031 0)"/>
      <use xlink:href="#MicrosoftYaHei-43" transform="translate(494.865234 0)"/>
      <use xlink:href="#MicrosoftYaHei-20" transform="translate(561.759766 0)"/>
      <use xlink:href="#MicrosoftYaHei-3d" transform="translate(591.349609 0)"/>
      <use xlink:href="#MicrosoftYaHei-20" transform="translate(665.519531 0)"/>
      <use xlink:href="#MicrosoftYaHei-30" transform="translate(695.109375 0)"/>
      <use xlink:href="#MicrosoftYaHei-2e" transform="translate(753.751953 0)"/>
      <use xlink:href="#MicrosoftYaHei-39" transform="translate(777.824219 0)"/>
      <use xlink:href="#MicrosoftYaHei-39" transform="translate(836.466797 0)"/>
      <use xlink:href="#MicrosoftYaHei-35" transform="translate(895.109375 0)"/>
      <use xlink:href="#MicrosoftYaHei-39" transform="translate(953.751953 0)"/>
      <use xlink:href="#MicrosoftYaHei-29" transform="translate(1012.394531 0)"/>
     </g>
    </g>
    <g id="line2d_30">
     <path d="M 51.815625 496.765625 
L 61.815625 496.765625 
L 71.815625 496.765625 
" style="fill: none; stroke: #bcbd22; stroke-width: 1.5; stroke-linecap: square"/>
    </g>
    <g id="text_23">
     <!-- 类别 8 (AUC = 0.9938) -->
     <g transform="translate(79.815625 500.265625) scale(0.1 -0.1)">
      <use xlink:href="#MicrosoftYaHei-7c7b"/>
      <use xlink:href="#MicrosoftYaHei-522b" transform="translate(100 0)"/>
      <use xlink:href="#MicrosoftYaHei-20" transform="translate(200 0)"/>
      <use xlink:href="#MicrosoftYaHei-38" transform="translate(229.589844 0)"/>
      <use xlink:href="#MicrosoftYaHei-20" transform="translate(288.232422 0)"/>
      <use xlink:href="#MicrosoftYaHei-28" transform="translate(317.822266 0)"/>
      <use xlink:href="#MicrosoftYaHei-41" transform="translate(351.220703 0)"/>
      <use xlink:href="#MicrosoftYaHei-55" transform="translate(420.207031 0)"/>
      <use xlink:href="#MicrosoftYaHei-43" transform="translate(494.865234 0)"/>
      <use xlink:href="#MicrosoftYaHei-20" transform="translate(561.759766 0)"/>
      <use xlink:href="#MicrosoftYaHei-3d" transform="translate(591.349609 0)"/>
      <use xlink:href="#MicrosoftYaHei-20" transform="translate(665.519531 0)"/>
      <use xlink:href="#MicrosoftYaHei-30" transform="translate(695.109375 0)"/>
      <use xlink:href="#MicrosoftYaHei-2e" transform="translate(753.751953 0)"/>
      <use xlink:href="#MicrosoftYaHei-39" transform="translate(777.824219 0)"/>
      <use xlink:href="#MicrosoftYaHei-39" transform="translate(836.466797 0)"/>
      <use xlink:href="#MicrosoftYaHei-33" transform="translate(895.109375 0)"/>
      <use xlink:href="#MicrosoftYaHei-38" transform="translate(953.751953 0)"/>
      <use xlink:href="#MicrosoftYaHei-29" transform="translate(1012.394531 0)"/>
     </g>
    </g>
    <g id="line2d_31">
     <path d="M 51.815625 512.245312 
L 61.815625 512.245312 
L 71.815625 512.245312 
" style="fill: none; stroke: #17becf; stroke-width: 1.5; stroke-linecap: square"/>
    </g>
    <g id="text_24">
     <!-- 类别 9 (AUC = 0.9933) -->
     <g transform="translate(79.815625 515.745312) scale(0.1 -0.1)">
      <use xlink:href="#MicrosoftYaHei-7c7b"/>
      <use xlink:href="#MicrosoftYaHei-522b" transform="translate(100 0)"/>
      <use xlink:href="#MicrosoftYaHei-20" transform="translate(200 0)"/>
      <use xlink:href="#MicrosoftYaHei-39" transform="translate(229.589844 0)"/>
      <use xlink:href="#MicrosoftYaHei-20" transform="translate(288.232422 0)"/>
      <use xlink:href="#MicrosoftYaHei-28" transform="translate(317.822266 0)"/>
      <use xlink:href="#MicrosoftYaHei-41" transform="translate(351.220703 0)"/>
      <use xlink:href="#MicrosoftYaHei-55" transform="translate(420.207031 0)"/>
      <use xlink:href="#MicrosoftYaHei-43" transform="translate(494.865234 0)"/>
      <use xlink:href="#MicrosoftYaHei-20" transform="translate(561.759766 0)"/>
      <use xlink:href="#MicrosoftYaHei-3d" transform="translate(591.349609 0)"/>
      <use xlink:href="#MicrosoftYaHei-20" transform="translate(665.519531 0)"/>
      <use xlink:href="#MicrosoftYaHei-30" transform="translate(695.109375 0)"/>
      <use xlink:href="#MicrosoftYaHei-2e" transform="translate(753.751953 0)"/>
      <use xlink:href="#MicrosoftYaHei-39" transform="translate(777.824219 0)"/>
      <use xlink:href="#MicrosoftYaHei-39" transform="translate(836.466797 0)"/>
      <use xlink:href="#MicrosoftYaHei-33" transform="translate(895.109375 0)"/>
      <use xlink:href="#MicrosoftYaHei-33" transform="translate(953.751953 0)"/>
      <use xlink:href="#MicrosoftYaHei-29" transform="translate(1012.394531 0)"/>
     </g>
    </g>
   </g>
  </g>
 </g>
 <defs>
  <clipPath id="pdf3a1c5b5b">
   <rect x="42.815625" y="24.39125" width="661.75" height="502.84"/>
  </clipPath>
 </defs>
</svg>
