<?xml version="1.0" encoding="utf-8" standalone="no"?>
<!DOCTYPE svg PUBLIC "-//W3C//DTD SVG 1.1//EN"
  "http://www.w3.org/Graphics/SVG/1.1/DTD/svg11.dtd">
<svg xmlns:xlink="http://www.w3.org/1999/xlink" width="711.765625pt" height="566.390625pt" viewBox="0 0 711.765625 566.390625" xmlns="http://www.w3.org/2000/svg" version="1.1">
 <metadata>
  <rdf:RDF xmlns:dc="http://purl.org/dc/elements/1.1/" xmlns:cc="http://creativecommons.org/ns#" xmlns:rdf="http://www.w3.org/1999/02/22-rdf-syntax-ns#">
   <cc:Work>
    <dc:type rdf:resource="http://purl.org/dc/dcmitype/StillImage"/>
    <dc:date>2026-04-21T21:33:00.592411</dc:date>
    <dc:format>image/svg+xml</dc:format>
    <dc:creator>
     <cc:Agent>
      <dc:title>Matplotlib v3.10.7, https://matplotlib.org/</dc:title>
     </cc:Agent>
    </dc:creator>
   </cc:Work>
  </rdf:RDF>
 </metadata>
 <defs>
  <style type="text/css">*{stroke-linejoin: round; stroke-linecap: butt}</style>
 </defs>
 <g id="figure_1">
  <g id="patch_1">
   <path d="M 0 566.390625 
L 711.765625 566.390625 
L 711.765625 0 
L 0 0 
z
" style="fill: #ffffff"/>
  </g>
  <g id="axes_1">
   <g id="patch_2">
    <path d="M 42.815625 527.23125 
L 704.565625 527.23125 
L 704.565625 24.39125 
L 42.815625 24.39125 
z
" style="fill: #ffffff"/>
   </g>
   <g id="matplotlib.axis_1">
    <g id="xtick_1">
     <g id="line2d_1">
      <defs>
       <path id="me7b256c887" d="M 0 0 
L 0 3.5 
" style="stroke: #000000; stroke-width: 0.8"/>
      </defs>
      <g>
       <use xlink:href="#me7b256c887" x="72.89517" y="527.23125" style="stroke: #000000; stroke-width: 0.8"/>
      </g>
     </g>
     <g id="text_1">
      <!-- 0.0 -->
      <g transform="translate(65.827202 542.225) scale(0.1 -0.1)">
       <defs>
        <path id="MicrosoftYaHei-30" d="M 284 2325 
Q 284 3606 709 4264 
Q 1134 4922 1941 4922 
Q 3478 4922 3478 2441 
Q 3478 1216 3045 567 
Q 2613 -81 1831 -81 
Q 1094 -81 689 534 
Q 284 1150 284 2325 
z
M 909 2353 
Q 909 425 1888 425 
Q 2850 425 2850 2384 
Q 2850 4413 1906 4413 
Q 909 4413 909 2353 
z
" transform="scale(0.015625)"/>
        <path id="MicrosoftYaHei-2e" d="M 372 322 
Q 372 491 487 606 
Q 603 722 775 722 
Q 950 722 1065 605 
Q 1181 488 1181 322 
Q 1181 159 1065 42 
Q 950 -75 772 -75 
Q 600 -75 486 42 
Q 372 159 372 322 
z
" transform="scale(0.015625)"/>
       </defs>
       <use xlink:href="#MicrosoftYaHei-30"/>
       <use xlink:href="#MicrosoftYaHei-2e" transform="translate(58.642578 0)"/>
       <use xlink:href="#MicrosoftYaHei-30" transform="translate(82.714844 0)"/>
      </g>
     </g>
    </g>
    <g id="xtick_2">
     <g id="line2d_2">
      <g>
       <use xlink:href="#me7b256c887" x="193.213352" y="527.23125" style="stroke: #000000; stroke-width: 0.8"/>
      </g>
     </g>
     <g id="text_2">
      <!-- 0.2 -->
      <g transform="translate(186.145384 542.225) scale(0.1 -0.1)">
       <defs>
        <path id="MicrosoftYaHei-32" d="M 2666 3572 
Q 2666 3963 2419 4186 
Q 2172 4409 1747 4409 
Q 1447 4409 1140 4256 
Q 834 4103 569 3819 
L 569 4413 
Q 806 4659 1107 4790 
Q 1409 4922 1816 4922 
Q 2472 4922 2872 4570 
Q 3272 4219 3272 3619 
Q 3272 3084 3026 2693 
Q 2781 2303 2188 1894 
Q 1581 1475 1376 1294 
Q 1172 1113 1090 947 
Q 1009 781 1009 544 
L 3416 544 
L 3416 0 
L 372 0 
L 372 241 
Q 372 659 486 951 
Q 600 1244 862 1520 
Q 1125 1797 1681 2184 
Q 2250 2584 2458 2886 
Q 2666 3188 2666 3572 
z
" transform="scale(0.015625)"/>
       </defs>
       <use xlink:href="#MicrosoftYaHei-30"/>
       <use xlink:href="#MicrosoftYaHei-2e" transform="translate(58.642578 0)"/>
       <use xlink:href="#MicrosoftYaHei-32" transform="translate(82.714844 0)"/>
      </g>
     </g>
    </g>
    <g id="xtick_3">
     <g id="line2d_3">
      <g>
       <use xlink:href="#me7b256c887" x="313.531534" y="527.23125" style="stroke: #000000; stroke-width: 0.8"/>
      </g>
     </g>
     <g id="text_3">
      <!-- 0.4 -->
      <g transform="translate(306.463565 542.225) scale(0.1 -0.1)">
       <defs>
        <path id="MicrosoftYaHei-34" d="M 2906 4841 
L 2906 1644 
L 3631 1644 
L 3631 1138 
L 2906 1138 
L 2906 0 
L 2313 0 
L 2313 1138 
L 53 1138 
L 53 1616 
Q 656 2294 1265 3178 
Q 1875 4063 2272 4841 
L 2906 4841 
z
M 741 1644 
L 2313 1644 
L 2313 3950 
Q 1988 3366 1616 2817 
Q 1244 2269 741 1644 
z
" transform="scale(0.015625)"/>
       </defs>
       <use xlink:href="#MicrosoftYaHei-30"/>
       <use xlink:href="#MicrosoftYaHei-2e" transform="translate(58.642578 0)"/>
       <use xlink:href="#MicrosoftYaHei-34" transform="translate(82.714844 0)"/>
      </g>
     </g>
    </g>
    <g id="xtick_4">
     <g id="line2d_4">
      <g>
       <use xlink:href="#me7b256c887" x="433.849716" y="527.23125" style="stroke: #000000; stroke-width: 0.8"/>
      </g>
     </g>
     <g id="text_4">
      <!-- 0.6 -->
      <g transform="translate(426.781747 542.225) scale(0.1 -0.1)">
       <defs>
        <path id="MicrosoftYaHei-36" d="M 3181 4219 
Q 2803 4413 2391 4413 
Q 1763 4413 1381 3866 
Q 1000 3319 994 2372 
L 1009 2372 
Q 1353 3038 2106 3038 
Q 2734 3038 3109 2628 
Q 3484 2219 3484 1541 
Q 3484 831 3051 375 
Q 2619 -81 1947 -81 
Q 1209 -81 789 495 
Q 369 1072 369 2131 
Q 369 3413 920 4167 
Q 1472 4922 2372 4922 
Q 2888 4922 3181 4781 
L 3181 4219 
z
M 1031 1584 
Q 1031 1106 1286 765 
Q 1541 425 1963 425 
Q 2363 425 2613 719 
Q 2863 1013 2863 1475 
Q 2863 1975 2627 2253 
Q 2391 2531 1956 2531 
Q 1544 2531 1287 2250 
Q 1031 1969 1031 1584 
z
" transform="scale(0.015625)"/>
       </defs>
       <use xlink:href="#MicrosoftYaHei-30"/>
       <use xlink:href="#MicrosoftYaHei-2e" transform="translate(58.642578 0)"/>
       <use xlink:href="#MicrosoftYaHei-36" transform="translate(82.714844 0)"/>
      </g>
     </g>
    </g>
    <g id="xtick_5">
     <g id="line2d_5">
      <g>
       <use xlink:href="#me7b256c887" x="554.167898" y="527.23125" style="stroke: #000000; stroke-width: 0.8"/>
      </g>
     </g>
     <g id="text_5">
      <!-- 0.8 -->
      <g transform="translate(547.099929 542.225) scale(0.1 -0.1)">
       <defs>
        <path id="MicrosoftYaHei-38" d="M 306 1350 
Q 306 1769 556 2122 
Q 806 2475 1200 2625 
Q 884 2803 700 3081 
Q 516 3359 516 3684 
Q 516 4028 692 4312 
Q 869 4597 1183 4759 
Q 1497 4922 1875 4922 
Q 2256 4922 2572 4761 
Q 2888 4600 3063 4315 
Q 3238 4031 3238 3684 
Q 3238 3366 3058 3086 
Q 2878 2806 2559 2625 
Q 2953 2472 3200 2119 
Q 3447 1766 3447 1350 
Q 3447 938 3250 611 
Q 3053 284 2690 103 
Q 2328 -78 1875 -78 
Q 1425 -78 1065 103 
Q 706 284 506 612 
Q 306 941 306 1350 
z
M 906 1378 
Q 906 947 1172 687 
Q 1438 428 1878 428 
Q 2309 428 2582 692 
Q 2856 956 2856 1378 
Q 2856 1778 2579 2051 
Q 2303 2325 1878 2325 
Q 1456 2325 1181 2058 
Q 906 1791 906 1378 
z
M 1081 3634 
Q 1081 3309 1312 3076 
Q 1544 2844 1878 2844 
Q 2206 2844 2445 3078 
Q 2684 3313 2684 3634 
Q 2684 3963 2454 4191 
Q 2225 4419 1878 4419 
Q 1534 4419 1307 4195 
Q 1081 3972 1081 3634 
z
" transform="scale(0.015625)"/>
       </defs>
       <use xlink:href="#MicrosoftYaHei-30"/>
       <use xlink:href="#MicrosoftYaHei-2e" transform="translate(58.642578 0)"/>
       <use xlink:href="#MicrosoftYaHei-38" transform="translate(82.714844 0)"/>
      </g>
     </g>
    </g>
    <g id="xtick_6">
     <g id="line2d_6">
      <g>
       <use xlink:href="#me7b256c887" x="674.48608" y="527.23125" style="stroke: #000000; stroke-width: 0.8"/>
      </g>
     </g>
     <g id="text_6">
      <!-- 1.0 -->
      <g transform="translate(667.418111 542.225) scale(0.1 -0.1)">
       <defs>
        <path id="MicrosoftYaHei-31" d="M 1781 0 
L 1781 4141 
Q 1638 3997 1295 3819 
Q 953 3641 663 3569 
L 663 4169 
Q 1047 4275 1484 4508 
Q 1922 4741 2156 4947 
L 2388 4947 
L 2388 0 
L 1781 0 
z
" transform="scale(0.015625)"/>
       </defs>
       <use xlink:href="#MicrosoftYaHei-31"/>
       <use xlink:href="#MicrosoftYaHei-2e" transform="translate(58.642578 0)"/>
       <use xlink:href="#MicrosoftYaHei-30" transform="translate(82.714844 0)"/>
      </g>
     </g>
    </g>
    <g id="text_7">
     <!-- 假正率 (FPR) -->
     <g transform="translate(344.890625 556.704687) scale(0.1 -0.1)">
      <defs>
       <path id="MicrosoftYaHei-5047" d="M 3763 4953 
L 3763 2841 
L 3325 2841 
L 3325 3034 
L 2319 3034 
L 2319 2247 
L 3625 2247 
L 3625 1847 
L 2319 1847 
L 2319 1047 
L 3706 1047 
L 3706 647 
L 2319 647 
L 2319 -847 
L 1856 -847 
L 1856 4953 
L 3763 4953 
z
M 3756 2109 
L 3756 2497 
L 5963 2497 
L 5963 2122 
Q 5763 1094 5191 369 
Q 5663 -106 6381 -378 
Q 6138 -659 6031 -816 
Q 5350 -463 4888 34 
Q 4309 -531 3450 -872 
Q 3325 -684 3156 -472 
Q 4044 -159 4606 375 
Q 4081 1109 3941 2109 
L 3756 2109 
z
M 63 2247 
Q 863 3666 1175 5316 
L 1638 5228 
Q 1478 4528 1256 3881 
L 1256 -859 
L 819 -859 
L 819 2788 
Q 566 2244 263 1741 
Q 181 1984 63 2247 
z
M 3969 3447 
L 5475 3447 
L 5475 4559 
L 4006 4559 
L 4006 4959 
L 5913 4959 
L 5913 2809 
L 5475 2809 
L 5475 3047 
L 3969 3047 
L 3969 3447 
z
M 3325 4553 
L 2319 4553 
L 2319 3434 
L 3325 3434 
L 3325 4553 
z
M 5513 2109 
L 4350 2109 
Q 4484 1288 4903 703 
Q 5366 1297 5513 2109 
z
" transform="scale(0.015625)"/>
       <path id="MicrosoftYaHei-6b63" d="M 88 66 
L 1106 66 
L 1106 3416 
L 1644 3416 
L 1644 66 
L 3231 66 
L 3231 4309 
L 375 4309 
L 375 4797 
L 6063 4797 
L 6063 4309 
L 3769 4309 
L 3769 2672 
L 5850 2672 
L 5850 2191 
L 3769 2191 
L 3769 66 
L 6313 66 
L 6313 -422 
L 88 -422 
L 88 66 
z
" transform="scale(0.015625)"/>
       <path id="MicrosoftYaHei-7387" d="M 2525 2009 
Q 2622 2016 3928 2081 
Q 3772 2300 3625 2491 
L 3963 2703 
Q 4413 2203 4794 1653 
L 4394 1403 
Q 4284 1569 4178 1725 
Q 2991 1659 2213 1597 
Q 2075 1584 1881 1541 
L 1725 1966 
Q 1913 2028 2006 2084 
Q 2534 2441 3050 2913 
Q 2597 2894 2275 2866 
Q 2144 2847 1988 2809 
L 1800 3191 
Q 1956 3247 2088 3366 
Q 2509 3722 2875 4228 
L 231 4228 
L 231 4666 
L 3031 4666 
Q 2878 4944 2744 5153 
L 3194 5372 
Q 3438 5000 3616 4666 
L 6175 4666 
L 6175 4228 
L 3053 4228 
L 3350 4072 
Q 2844 3553 2494 3247 
Q 2850 3256 3425 3269 
Q 3675 3519 3925 3797 
L 4356 3547 
Q 3363 2603 2525 2009 
z
M 144 991 
L 2994 991 
L 2994 1541 
L 3488 1541 
L 3488 991 
L 6275 991 
L 6275 553 
L 3488 553 
L 3488 -853 
L 2994 -853 
L 2994 553 
L 144 553 
L 144 991 
z
M 1719 2672 
L 1944 2303 
Q 1200 1866 425 1409 
L 163 1828 
Q 813 2134 1719 2672 
z
M 4856 2678 
Q 5750 2172 6250 1816 
L 5975 1409 
Q 5331 1909 4600 2341 
L 4856 2678 
z
M 5994 3591 
Q 5519 3178 4963 2809 
L 4644 3141 
Q 5244 3534 5638 3928 
L 5994 3591 
z
M 363 3634 
L 681 3941 
Q 1200 3528 1588 3159 
L 1238 2816 
Q 875 3197 363 3634 
z
" transform="scale(0.015625)"/>
       <path id="MicrosoftYaHei-20" transform="scale(0.015625)"/>
       <path id="MicrosoftYaHei-28" d="M 1531 -1100 
Q 478 100 478 1847 
Q 478 3594 1531 4841 
L 2072 4841 
Q 1016 3544 1016 1853 
Q 1016 166 2066 -1100 
L 1531 -1100 
z
" transform="scale(0.015625)"/>
       <path id="MicrosoftYaHei-46" d="M 3119 4284 
L 1250 4284 
L 1250 2666 
L 2981 2666 
L 2981 2116 
L 1250 2116 
L 1250 0 
L 625 0 
L 625 4841 
L 3119 4841 
L 3119 4284 
z
" transform="scale(0.015625)"/>
       <path id="MicrosoftYaHei-50" d="M 1250 1809 
L 1250 0 
L 625 0 
L 625 4841 
L 2000 4841 
Q 2784 4841 3217 4462 
Q 3650 4084 3650 3381 
Q 3650 2669 3144 2226 
Q 2638 1784 1878 1809 
L 1250 1809 
z
M 1250 4291 
L 1250 2359 
L 1828 2359 
Q 2400 2359 2697 2617 
Q 2994 2875 2994 3356 
Q 2994 4291 1888 4291 
L 1250 4291 
z
" transform="scale(0.015625)"/>
       <path id="MicrosoftYaHei-52" d="M 4159 0 
L 3422 0 
L 2619 1344 
Q 2378 1747 2178 1892 
Q 1978 2038 1700 2038 
L 1250 2038 
L 1250 0 
L 625 0 
L 625 4841 
L 2100 4841 
Q 2806 4841 3206 4500 
Q 3606 4159 3606 3547 
Q 3606 2541 2531 2241 
L 2531 2225 
Q 2731 2141 2876 1984 
Q 3022 1828 3253 1450 
L 4159 0 
z
M 1250 4294 
L 1250 2584 
L 1988 2584 
Q 2416 2584 2683 2834 
Q 2950 3084 2950 3491 
Q 2950 3869 2706 4081 
Q 2463 4294 1997 4294 
L 1250 4294 
z
" transform="scale(0.015625)"/>
       <path id="MicrosoftYaHei-29" d="M 78 -1100 
Q 1131 163 1131 1853 
Q 1131 3547 72 4841 
L 616 4841 
Q 1672 3603 1672 1847 
Q 1672 91 616 -1100 
L 78 -1100 
z
" transform="scale(0.015625)"/>
      </defs>
      <use xlink:href="#MicrosoftYaHei-5047"/>
      <use xlink:href="#MicrosoftYaHei-6b63" transform="translate(100 0)"/>
      <use xlink:href="#MicrosoftYaHei-7387" transform="translate(200 0)"/>
      <use xlink:href="#MicrosoftYaHei-20" transform="translate(300 0)"/>
      <use xlink:href="#MicrosoftYaHei-28" transform="translate(329.589844 0)"/>
      <use xlink:href="#MicrosoftYaHei-46" transform="translate(362.988281 0)"/>
      <use xlink:href="#MicrosoftYaHei-50" transform="translate(416.113281 0)"/>
      <use xlink:href="#MicrosoftYaHei-52" transform="translate(477.294922 0)"/>
      <use xlink:href="#MicrosoftYaHei-29" transform="translate(542.578125 0)"/>
     </g>
    </g>
   </g>
   <g id="matplotlib.axis_2">
    <g id="ytick_1">
     <g id="line2d_7">
      <defs>
       <path id="m7a88709748" d="M 0 0 
L -3.5 0 
" style="stroke: #000000; stroke-width: 0.8"/>
      </defs>
      <g>
       <use xlink:href="#m7a88709748" x="42.815625" y="504.374886" style="stroke: #000000; stroke-width: 0.8"/>
      </g>
     </g>
     <g id="text_8">
      <!-- 0.0 -->
      <g transform="translate(21.679688 508.371761) scale(0.1 -0.1)">
       <use xlink:href="#MicrosoftYaHei-30"/>
       <use xlink:href="#MicrosoftYaHei-2e" transform="translate(58.642578 0)"/>
       <use xlink:href="#MicrosoftYaHei-30" transform="translate(82.714844 0)"/>
      </g>
     </g>
    </g>
    <g id="ytick_2">
     <g id="line2d_8">
      <g>
       <use xlink:href="#m7a88709748" x="42.815625" y="412.949432" style="stroke: #000000; stroke-width: 0.8"/>
      </g>
     </g>
     <g id="text_9">
      <!-- 0.2 -->
      <g transform="translate(21.679688 416.946307) scale(0.1 -0.1)">
       <use xlink:href="#MicrosoftYaHei-30"/>
       <use xlink:href="#MicrosoftYaHei-2e" transform="translate(58.642578 0)"/>
       <use xlink:href="#MicrosoftYaHei-32" transform="translate(82.714844 0)"/>
      </g>
     </g>
    </g>
    <g id="ytick_3">
     <g id="line2d_9">
      <g>
       <use xlink:href="#m7a88709748" x="42.815625" y="321.523977" style="stroke: #000000; stroke-width: 0.8"/>
      </g>
     </g>
     <g id="text_10">
      <!-- 0.4 -->
      <g transform="translate(21.679688 325.520852) scale(0.1 -0.1)">
       <use xlink:href="#MicrosoftYaHei-30"/>
       <use xlink:href="#MicrosoftYaHei-2e" transform="translate(58.642578 0)"/>
       <use xlink:href="#MicrosoftYaHei-34" transform="translate(82.714844 0)"/>
      </g>
     </g>
    </g>
    <g id="ytick_4">
     <g id="line2d_10">
      <g>
       <use xlink:href="#m7a88709748" x="42.815625" y="230.098523" style="stroke: #000000; stroke-width: 0.8"/>
      </g>
     </g>
     <g id="text_11">
      <!-- 0.6 -->
      <g transform="translate(21.679688 234.095398) scale(0.1 -0.1)">
       <use xlink:href="#MicrosoftYaHei-30"/>
       <use xlink:href="#MicrosoftYaHei-2e" transform="translate(58.642578 0)"/>
       <use xlink:href="#MicrosoftYaHei-36" transform="translate(82.714844 0)"/>
      </g>
     </g>
    </g>
    <g id="ytick_5">
     <g id="line2d_11">
      <g>
       <use xlink:href="#m7a88709748" x="42.815625" y="138.673068" style="stroke: #000000; stroke-width: 0.8"/>
      </g>
     </g>
     <g id="text_12">
      <!-- 0.8 -->
      <g transform="translate(21.679688 142.669943) scale(0.1 -0.1)">
       <use xlink:href="#MicrosoftYaHei-30"/>
       <use xlink:href="#MicrosoftYaHei-2e" transform="translate(58.642578 0)"/>
       <use xlink:href="#MicrosoftYaHei-38" transform="translate(82.714844 0)"/>
      </g>
     </g>
    </g>
    <g id="ytick_6">
     <g id="line2d_12">
      <g>
       <use xlink:href="#m7a88709748" x="42.815625" y="47.247614" style="stroke: #000000; stroke-width: 0.8"/>
      </g>
     </g>
     <g id="text_13">
      <!-- 1.0 -->
      <g transform="translate(21.679688 51.244489) scale(0.1 -0.1)">
       <use xlink:href="#MicrosoftYaHei-31"/>
       <use xlink:href="#MicrosoftYaHei-2e" transform="translate(58.642578 0)"/>
       <use xlink:href="#MicrosoftYaHei-30" transform="translate(82.714844 0)"/>
      </g>
     </g>
    </g>
    <g id="text_14">
     <!-- 真正率 (TPR) -->
     <g transform="translate(15.19375 304.821406) rotate(-90) scale(0.1 -0.1)">
      <defs>
       <path id="MicrosoftYaHei-771f" d="M 156 778 
L 1056 778 
L 1056 3978 
L 2894 3978 
L 2894 4428 
L 250 4428 
L 250 4828 
L 2894 4828 
L 2894 5328 
L 3381 5328 
L 3381 4828 
L 6144 4828 
L 6144 4428 
L 3381 4428 
L 3381 3978 
L 5344 3978 
L 5344 778 
L 6263 778 
L 6263 378 
L 156 378 
L 156 778 
z
M 1531 778 
L 4869 778 
L 4869 1209 
L 1531 1209 
L 1531 778 
z
M 4869 3591 
L 1531 3591 
L 1531 3166 
L 4869 3166 
L 4869 3591 
z
M 1531 2372 
L 4869 2372 
L 4869 2797 
L 1531 2797 
L 1531 2372 
z
M 1531 1578 
L 4869 1578 
L 4869 2003 
L 1531 2003 
L 1531 1578 
z
M 3744 -72 
L 3975 316 
Q 4925 28 6169 -416 
L 5944 -859 
Q 4819 -422 3744 -72 
z
M 2369 334 
L 2663 -41 
Q 1656 -503 481 -891 
Q 388 -691 256 -453 
Q 1219 -172 2369 334 
z
" transform="scale(0.015625)"/>
       <path id="MicrosoftYaHei-54" d="M 3550 4284 
L 2153 4284 
L 2153 0 
L 1525 0 
L 1525 4284 
L 134 4284 
L 134 4841 
L 3550 4841 
L 3550 4284 
z
" transform="scale(0.015625)"/>
      </defs>
      <use xlink:href="#MicrosoftYaHei-771f"/>
      <use xlink:href="#MicrosoftYaHei-6b63" transform="translate(100 0)"/>
      <use xlink:href="#MicrosoftYaHei-7387" transform="translate(200 0)"/>
      <use xlink:href="#MicrosoftYaHei-20" transform="translate(300 0)"/>
      <use xlink:href="#MicrosoftYaHei-28" transform="translate(329.589844 0)"/>
      <use xlink:href="#MicrosoftYaHei-54" transform="translate(362.988281 0)"/>
      <use xlink:href="#MicrosoftYaHei-50" transform="translate(420.3125 0)"/>
      <use xlink:href="#MicrosoftYaHei-52" transform="translate(481.494141 0)"/>
      <use xlink:href="#MicrosoftYaHei-29" transform="translate(546.777344 0)"/>
     </g>
    </g>
   </g>
   <g id="line2d_13">
    <path d="M 72.89517 150.457424 
L 73.302339 77.622859 
L 73.427434 75.158081 
L 73.505923 70.710983 
L 73.561679 70.420756 
L 73.633072 68.864111 
L 73.695691 68.677526 
L 73.833899 66.346745 
L 73.894934 65.718575 
L 74.035564 63.041569 
L 74.099691 62.851483 
L 74.303891 60.834521 
L 74.659566 59.318485 
L 74.773465 58.868774 
L 74.896027 57.904219 
L 75.175957 56.592065 
L 75.237033 56.500115 
L 75.361253 56.080312 
L 75.578448 55.358649 
L 75.735356 55.075496 
L 75.867458 54.793267 
L 76.046616 54.613103 
L 76.240688 54.290998 
L 76.374895 54.005926 
L 76.560969 53.776241 
L 76.694271 53.500371 
L 76.897771 53.083847 
L 77.177909 52.619824 
L 77.320605 52.484128 
L 77.722917 52.161832 
L 77.980357 51.754969 
L 79.548465 50.794293 
L 81.192053 50.329162 
L 81.660426 50.191619 
L 81.693088 50.144686 
L 83.292709 49.63542 
L 83.468181 49.542443 
L 83.935377 49.451878 
L 91.60269 48.448097 
L 104.897518 47.930204 
L 109.38775 47.794681 
L 109.521914 47.750386 
L 113.50975 47.611502 
L 148.980695 47.338179 
L 407.238322 47.247614 
L 674.48608 47.247614 
L 674.48608 47.247614 
" clip-path="url(#p1af8d8a7a2)" style="fill: none; stroke: #1f77b4; stroke-width: 2; stroke-linecap: square"/>
   </g>
   <g id="line2d_14">
    <path d="M 72.89517 504.374886 
L 72.89517 503.90843 
L 72.89517 481.518523 
L 72.89517 480.58561 
L 72.89517 460.527985 
L 72.89517 459.595072 
L 72.89517 336.450582 
L 72.89517 335.517669 
L 72.89517 250.156148 
L 72.89517 249.223235 
L 72.89517 79.433105 
L 72.961866 79.433105 
L 72.961866 78.966649 
L 73.028561 78.966649 
L 73.028561 75.234998 
L 73.095256 75.234998 
L 73.095256 71.03689 
L 73.161951 71.03689 
L 73.161951 65.439413 
L 73.228647 65.439413 
L 73.228647 64.040044 
L 73.295342 64.040044 
L 73.295342 61.241306 
L 73.362037 61.241306 
L 73.362037 58.442567 
L 73.428732 58.442567 
L 73.428732 57.043198 
L 73.495427 57.043198 
L 73.495427 55.643829 
L 73.562123 55.643829 
L 73.562123 54.710916 
L 74.028989 54.710916 
L 74.028989 53.778003 
L 74.095684 53.778003 
L 74.095684 53.311547 
L 74.16238 53.311547 
L 74.16238 52.84509 
L 74.229075 52.84509 
L 74.229075 52.378634 
L 74.429161 52.378634 
L 74.429161 51.445721 
L 74.629246 51.445721 
L 74.629246 50.979265 
L 74.896027 50.979265 
L 74.896027 50.512808 
L 75.162808 50.512808 
L 75.162808 50.046352 
L 75.229503 50.046352 
L 75.229503 49.579896 
L 75.496284 49.579896 
L 75.496284 49.113439 
L 75.69637 49.113439 
L 75.69637 48.646983 
L 76.496712 48.646983 
L 76.496712 48.180526 
L 77.630531 48.180526 
L 77.630531 47.71407 
L 110.711362 47.71407 
L 110.711362 47.247614 
L 407.104932 47.247614 
L 407.238322 47.247614 
L 674.48608 47.247614 
" clip-path="url(#p1af8d8a7a2)" style="fill: none; stroke-dasharray: 5.55,2.4; stroke-dashoffset: 0; stroke: #ff7f0e; stroke-width: 1.5"/>
   </g>
   <g id="line2d_15">
    <path d="M 72.89517 504.374886 
L 72.89517 503.972131 
L 72.89517 501.152844 
L 72.89517 500.347333 
L 72.89517 497.528046 
L 72.89517 496.722536 
L 72.89517 493.500493 
L 72.89517 492.694982 
L 72.89517 487.459163 
L 72.89517 486.653653 
L 72.89517 452.016697 
L 72.89517 451.211186 
L 72.89517 449.600165 
L 72.89517 448.794654 
L 72.89517 440.739548 
L 72.89517 439.934037 
L 72.89517 438.725771 
L 72.89517 437.920261 
L 72.89517 436.711995 
L 72.89517 435.906484 
L 72.89517 433.489952 
L 72.89517 432.684442 
L 72.89517 431.878931 
L 72.89517 431.073421 
L 72.89517 429.462399 
L 72.89517 428.656889 
L 72.89517 421.810049 
L 72.89517 421.004538 
L 72.89517 419.796272 
L 72.89517 418.990761 
L 72.89517 418.185251 
L 72.89517 417.37974 
L 72.89517 416.57423 
L 72.89517 416.171474 
L 72.89517 415.365964 
L 72.89517 412.949432 
L 72.89517 412.143921 
L 72.89517 411.741166 
L 72.89517 410.935655 
L 72.89517 400.061262 
L 72.89517 399.255751 
L 72.89517 398.450241 
L 72.89517 397.64473 
L 72.89517 389.589624 
L 72.89517 388.784113 
L 72.89517 388.381358 
L 72.89517 387.575848 
L 72.89517 376.701454 
L 72.89517 375.895944 
L 72.89517 370.257369 
L 72.89517 369.451859 
L 72.89517 363.813284 
L 72.89517 363.007774 
L 72.89517 360.993997 
L 72.89517 360.188487 
L 72.89517 347.703072 
L 72.89517 346.897562 
L 72.89517 344.48103 
L 72.89517 343.675519 
L 72.89517 335.620413 
L 72.89517 334.009392 
L 72.89517 325.55153 
L 72.89517 324.74602 
L 72.89517 320.718467 
L 72.89517 319.912956 
L 72.89517 315.482648 
L 72.89517 314.677137 
L 72.89517 313.871626 
L 72.89517 313.066116 
L 72.89517 311.85785 
L 72.89517 311.052339 
L 72.89517 300.983457 
L 72.89517 300.177946 
L 72.89517 294.942127 
L 72.89517 294.136616 
L 72.89517 288.095287 
L 72.89517 287.289776 
L 72.89517 278.429159 
L 72.89517 277.623649 
L 72.89517 276.818138 
L 72.89517 276.012628 
L 72.89517 261.110681 
L 72.89517 260.305171 
L 72.89517 258.291394 
L 72.89517 257.485884 
L 72.89517 255.069352 
L 72.89517 254.263841 
L 72.89517 253.055575 
L 72.89517 252.250065 
L 72.89517 237.750874 
L 72.89517 236.945363 
L 72.89517 232.515055 
L 72.89517 231.709544 
L 72.89517 203.516673 
L 72.89517 202.711162 
L 72.89517 187.809216 
L 72.89517 187.003705 
L 72.89517 67.385379 
L 72.963032 67.385379 
L 72.963032 62.955071 
L 73.030893 62.955071 
L 73.030893 58.524762 
L 73.098755 58.524762 
L 73.098755 57.719252 
L 73.166616 57.719252 
L 73.166616 57.316496 
L 73.234477 57.316496 
L 73.234477 54.899964 
L 73.302339 54.899964 
L 73.302339 52.483433 
L 73.3702 52.483433 
L 73.3702 51.275167 
L 73.505923 51.275167 
L 73.505923 50.066901 
L 73.573784 50.066901 
L 73.573784 49.664145 
L 73.709507 49.664145 
L 73.709507 48.858635 
L 73.913091 48.858635 
L 73.913091 48.45588 
L 74.591704 48.45588 
L 74.591704 48.053124 
L 74.659566 48.053124 
L 74.659566 47.650369 
L 91.353459 47.650369 
L 91.353459 47.247614 
L 674.48608 47.247614 
" clip-path="url(#p1af8d8a7a2)" style="fill: none; stroke-dasharray: 5.55,2.4; stroke-dashoffset: 0; stroke: #2ca02c; stroke-width: 1.5"/>
   </g>
   <g id="line2d_16">
    <path d="M 72.89517 504.374886 
L 72.89517 503.931934 
L 72.89517 499.059453 
L 72.89517 498.173547 
L 72.89517 449.005788 
L 72.89517 448.119883 
L 72.89517 445.905119 
L 72.89517 445.019213 
L 72.89517 387.435351 
L 72.89517 386.549446 
L 72.89517 327.193773 
L 72.89517 326.307867 
L 72.89517 231.515972 
L 72.962252 231.515972 
L 72.962252 203.166993 
L 73.029334 203.166993 
L 73.029334 115.01939 
L 73.096416 115.01939 
L 73.096416 113.247578 
L 73.163498 113.247578 
L 73.163498 112.361673 
L 73.23058 112.361673 
L 73.23058 98.630137 
L 73.297662 98.630137 
L 73.297662 91.542892 
L 73.431826 91.542892 
L 73.431826 84.012695 
L 73.633072 84.012695 
L 73.633072 81.797931 
L 73.700154 81.797931 
L 73.700154 78.254308 
L 73.767236 78.254308 
L 73.767236 75.596592 
L 73.968482 75.596592 
L 73.968482 75.153639 
L 74.035564 75.153639 
L 74.035564 70.281158 
L 74.169727 70.281158 
L 74.169727 68.9523 
L 74.236809 68.9523 
L 74.236809 67.180489 
L 74.303891 67.180489 
L 74.303891 66.294583 
L 74.438055 66.294583 
L 74.438055 65.408678 
L 74.505137 65.408678 
L 74.505137 64.522772 
L 74.639301 64.522772 
L 74.639301 64.079819 
L 74.773465 64.079819 
L 74.773465 62.308008 
L 74.840547 62.308008 
L 74.840547 60.093244 
L 74.974711 60.093244 
L 74.974711 59.207339 
L 75.108875 59.207339 
L 75.108875 57.87848 
L 75.175957 57.87848 
L 75.175957 57.435528 
L 75.243039 57.435528 
L 75.243039 56.106669 
L 75.511366 56.106669 
L 75.511366 54.777811 
L 75.578448 54.777811 
L 75.578448 54.334858 
L 75.98094 54.334858 
L 75.98094 53.891905 
L 76.31635 53.891905 
L 76.31635 53.448953 
L 76.450514 53.448953 
L 76.450514 53.006 
L 76.718841 53.006 
L 76.718841 52.120094 
L 77.054251 52.120094 
L 77.054251 51.677141 
L 77.188415 51.677141 
L 77.188415 51.234189 
L 77.657989 51.234189 
L 77.657989 50.791236 
L 78.865464 50.791236 
L 78.865464 49.90533 
L 85.97615 49.90533 
L 85.97615 49.462378 
L 86.64697 49.462378 
L 86.64697 49.019425 
L 90.403559 49.019425 
L 90.403559 48.576472 
L 109.05234 48.576472 
L 109.05234 48.133519 
L 109.38775 48.133519 
L 109.38775 47.690566 
L 109.521914 47.690566 
L 109.521914 47.247614 
L 534.821464 47.247614 
L 534.955628 47.247614 
L 674.48608 47.247614 
" clip-path="url(#p1af8d8a7a2)" style="fill: none; stroke-dasharray: 5.55,2.4; stroke-dashoffset: 0; stroke: #d62728; stroke-width: 1.5"/>
   </g>
   <g id="line2d_17">
    <path d="M 72.89517 504.374886 
L 72.89517 503.922285 
L 72.89517 495.322861 
L 72.89517 494.417659 
L 72.89517 485.365633 
L 72.89517 484.460431 
L 72.89517 459.567362 
L 72.89517 458.662159 
L 72.89517 443.726318 
L 72.89517 442.821115 
L 72.89517 428.790476 
L 72.89517 427.885273 
L 72.89517 363.615894 
L 72.89517 362.710692 
L 72.89517 357.732078 
L 72.89517 356.826876 
L 72.89517 340.080629 
L 72.89517 339.175426 
L 72.89517 335.554616 
L 72.89517 334.649414 
L 72.89517 311.114148 
L 72.89517 310.208946 
L 72.89517 244.129162 
L 72.89517 243.223959 
L 72.89517 107.896182 
L 72.962088 107.896182 
L 72.962088 94.318145 
L 73.029006 94.318145 
L 73.029006 81.645309 
L 73.095924 81.645309 
L 73.095924 81.192708 
L 73.229759 81.192708 
L 73.229759 79.382303 
L 73.296677 79.382303 
L 73.296677 74.856291 
L 73.430513 74.856291 
L 73.430513 70.782879 
L 73.564348 70.782879 
L 73.564348 69.425075 
L 73.631266 69.425075 
L 73.631266 68.067272 
L 73.698184 68.067272 
L 73.698184 67.61467 
L 73.765102 67.61467 
L 73.765102 66.709468 
L 73.898937 66.709468 
L 73.898937 65.351664 
L 74.099691 65.351664 
L 74.099691 64.899063 
L 74.300444 64.899063 
L 74.300444 61.730854 
L 74.701951 61.730854 
L 74.701951 60.825651 
L 74.835786 60.825651 
L 74.835786 59.920449 
L 74.969622 59.920449 
L 74.969622 59.467848 
L 75.170375 59.467848 
L 75.170375 59.015246 
L 75.504964 59.015246 
L 75.504964 58.110044 
L 75.839553 58.110044 
L 75.839553 57.657443 
L 76.174142 57.657443 
L 76.174142 56.299639 
L 76.374895 56.299639 
L 76.374895 55.847038 
L 76.508731 55.847038 
L 76.508731 55.394436 
L 77.177909 55.394436 
L 77.177909 54.489234 
L 77.914005 54.489234 
L 77.914005 54.036633 
L 78.181676 54.036633 
L 78.181676 52.678829 
L 79.185442 52.678829 
L 79.185442 52.226227 
L 80.925305 52.226227 
L 80.925305 51.773626 
L 81.862154 51.773626 
L 81.862154 51.321025 
L 82.263661 51.321025 
L 82.263661 50.868424 
L 83.468181 50.868424 
L 83.468181 50.415822 
L 83.602016 50.415822 
L 83.602016 49.963221 
L 90.026124 49.963221 
L 90.026124 49.51062 
L 97.186327 49.51062 
L 97.186327 49.058019 
L 123.485018 49.058019 
L 123.485018 48.605417 
L 145.50097 48.605417 
L 145.50097 48.152816 
L 148.980695 48.152816 
L 148.980695 47.700215 
L 222.255672 47.700215 
L 222.255672 47.247614 
L 405.677327 47.247614 
L 405.811163 47.247614 
L 674.48608 47.247614 
" clip-path="url(#p1af8d8a7a2)" style="fill: none; stroke-dasharray: 5.55,2.4; stroke-dashoffset: 0; stroke: #9467bd; stroke-width: 1.5"/>
   </g>
   <g id="line2d_18">
    <path d="M 72.89517 504.374886 
L 72.89517 503.90938 
L 72.89517 488.082163 
L 72.89517 487.15115 
L 72.89517 481.099567 
L 72.89517 480.168554 
L 72.89517 441.066018 
L 72.89517 440.135005 
L 72.89517 381.946706 
L 72.89517 381.015694 
L 72.89517 345.637208 
L 72.89517 344.706195 
L 72.89517 292.56948 
L 72.89517 291.638467 
L 72.89517 163.158704 
L 72.96188 163.158704 
L 72.96188 155.710602 
L 73.02859 155.710602 
L 73.02859 141.279904 
L 73.0953 141.279904 
L 73.0953 94.263759 
L 73.162011 94.263759 
L 73.162011 79.367554 
L 73.228721 79.367554 
L 73.228721 78.436542 
L 73.295431 78.436542 
L 73.295431 71.919452 
L 73.428851 71.919452 
L 73.428851 70.988439 
L 73.495561 70.988439 
L 73.495561 69.59192 
L 73.562271 69.59192 
L 73.562271 66.333376 
L 73.695691 66.333376 
L 73.695691 64.936856 
L 73.762401 64.936856 
L 73.762401 63.540337 
L 73.829111 63.540337 
L 73.829111 62.143818 
L 73.962531 62.143818 
L 73.962531 61.678312 
L 74.029241 61.678312 
L 74.029241 57.023248 
L 74.362791 57.023248 
L 74.362791 56.092235 
L 74.829761 56.092235 
L 74.829761 53.764703 
L 74.963181 53.764703 
L 74.963181 52.368184 
L 75.029891 52.368184 
L 75.029891 50.971665 
L 75.096601 50.971665 
L 75.096601 50.506158 
L 75.496861 50.506158 
L 75.496861 50.040652 
L 75.763701 50.040652 
L 75.763701 49.575146 
L 76.497511 49.575146 
L 76.497511 49.109639 
L 76.764351 49.109639 
L 76.764351 48.644133 
L 76.897771 48.644133 
L 76.897771 48.178626 
L 77.031191 48.178626 
L 77.031191 47.71312 
L 87.237824 47.71312 
L 87.237824 47.247614 
L 674.48608 47.247614 
" clip-path="url(#p1af8d8a7a2)" style="fill: none; stroke-dasharray: 5.55,2.4; stroke-dashoffset: 0; stroke: #8c564b; stroke-width: 1.5"/>
   </g>
   <g id="line2d_19">
    <path d="M 72.89517 504.374886 
L 72.89517 503.862412 
L 72.89517 460.302078 
L 72.89517 459.277129 
L 72.89517 439.290622 
L 72.89517 438.265673 
L 72.89517 418.279167 
L 72.89517 417.254218 
L 72.89517 407.004727 
L 72.89517 405.979778 
L 72.89517 370.619036 
L 72.89517 369.594087 
L 72.89517 355.244801 
L 72.89517 354.219852 
L 72.89517 248.6501 
L 72.961221 248.6501 
L 72.961221 108.232082 
L 73.027272 108.232082 
L 73.027272 103.107336 
L 73.093323 103.107336 
L 73.093323 80.558458 
L 73.159374 80.558458 
L 73.159374 79.533508 
L 73.225425 79.533508 
L 73.225425 76.458661 
L 73.291475 76.458661 
L 73.291475 75.946187 
L 73.423577 75.946187 
L 73.423577 74.408763 
L 73.489628 74.408763 
L 73.489628 72.87134 
L 73.555679 72.87134 
L 73.555679 71.846391 
L 73.62173 71.846391 
L 73.62173 70.308967 
L 73.819882 70.308967 
L 73.819882 67.23412 
L 73.885933 67.23412 
L 73.885933 65.184222 
L 73.951984 65.184222 
L 73.951984 64.671747 
L 74.018034 64.671747 
L 74.018034 61.5969 
L 74.084085 61.5969 
L 74.084085 61.084426 
L 74.150136 61.084426 
L 74.150136 60.571951 
L 74.348289 60.571951 
L 74.348289 58.009579 
L 74.876695 58.009579 
L 74.876695 57.497104 
L 74.942746 57.497104 
L 74.942746 56.472155 
L 75.074848 56.472155 
L 75.074848 55.95968 
L 75.140898 55.95968 
L 75.140898 54.422257 
L 75.339051 54.422257 
L 75.339051 53.397308 
L 75.735356 53.397308 
L 75.735356 52.884833 
L 75.867458 52.884833 
L 75.867458 52.372359 
L 76.197712 52.372359 
L 76.197712 51.859884 
L 76.263763 51.859884 
L 76.263763 50.834935 
L 76.85822 50.834935 
L 76.85822 50.322461 
L 77.122423 50.322461 
L 77.122423 49.809986 
L 78.641592 49.809986 
L 78.641592 49.297512 
L 82.076235 49.297512 
L 82.076235 48.785037 
L 82.868845 48.785037 
L 82.868845 48.272563 
L 88.285013 48.272563 
L 88.285013 47.760088 
L 92.842519 47.760088 
L 92.842519 47.247614 
L 674.48608 47.247614 
" clip-path="url(#p1af8d8a7a2)" style="fill: none; stroke-dasharray: 5.55,2.4; stroke-dashoffset: 0; stroke: #e377c2; stroke-width: 1.5"/>
   </g>
   <g id="line2d_20">
    <path d="M 72.89517 504.374886 
L 72.89517 503.897718 
L 72.89517 443.297338 
L 72.89517 442.343002 
L 72.89517 416.098743 
L 72.89517 415.144406 
L 72.89517 265.313546 
L 72.89517 264.35921 
L 72.89517 226.662911 
L 72.89517 225.708574 
L 72.89517 81.603734 
L 72.961703 81.603734 
L 72.961703 70.628862 
L 73.161302 70.628862 
L 73.161302 63.471337 
L 73.227835 63.471337 
L 73.227835 62.517001 
L 73.294368 62.517001 
L 73.294368 61.562664 
L 73.427434 61.562664 
L 73.427434 61.085496 
L 73.826632 61.085496 
L 73.826632 60.131159 
L 73.893165 60.131159 
L 73.893165 59.653991 
L 73.959698 59.653991 
L 73.959698 58.222486 
L 74.026231 58.222486 
L 74.026231 57.268149 
L 74.292362 57.268149 
L 74.292362 56.79098 
L 74.558494 56.79098 
L 74.558494 56.313812 
L 74.891159 56.313812 
L 74.891159 55.359475 
L 75.35689 55.359475 
L 75.35689 54.882307 
L 75.689554 54.882307 
L 75.689554 54.405139 
L 76.354884 54.405139 
L 76.354884 53.92797 
L 76.621016 53.92797 
L 76.621016 53.450802 
L 76.887147 53.450802 
L 76.887147 52.973634 
L 77.552477 52.973634 
L 77.552477 52.496465 
L 79.548465 52.496465 
L 79.548465 52.019297 
L 79.814597 52.019297 
L 79.814597 51.542129 
L 80.080729 51.542129 
L 80.080729 51.06496 
L 83.340843 51.06496 
L 83.340843 50.587792 
L 86.334826 50.587792 
L 86.334826 50.110624 
L 89.062677 50.110624 
L 89.062677 49.633455 
L 93.254252 49.633455 
L 93.254252 49.156287 
L 94.185714 49.156287 
L 94.185714 48.679119 
L 95.183708 48.679119 
L 95.183708 48.20195 
L 96.381301 48.20195 
L 96.381301 47.724782 
L 104.897518 47.724782 
L 104.897518 47.247614 
L 674.48608 47.247614 
" clip-path="url(#p1af8d8a7a2)" style="fill: none; stroke-dasharray: 5.55,2.4; stroke-dashoffset: 0; stroke: #7f7f7f; stroke-width: 1.5"/>
   </g>
   <g id="line2d_21">
    <path d="M 72.89517 504.374886 
L 72.89517 503.93021 
L 72.89517 500.817476 
L 72.89517 499.928123 
L 72.89517 400.320624 
L 72.89517 399.431271 
L 72.89517 311.830033 
L 72.89517 310.94068 
L 72.89517 304.270535 
L 72.89517 303.381183 
L 72.89517 298.489743 
L 72.89517 297.60039 
L 72.89517 269.585781 
L 72.89517 268.696429 
L 72.89517 191.767423 
L 72.962222 191.767423 
L 72.962222 128.178707 
L 73.029275 128.178707 
L 73.029275 127.289354 
L 73.096327 127.289354 
L 73.096327 123.731943 
L 73.163379 123.731943 
L 73.163379 96.606687 
L 73.230431 96.606687 
L 73.230431 92.6046 
L 73.297483 92.6046 
L 73.297483 92.159924 
L 73.364535 92.159924 
L 73.364535 81.043015 
L 73.431587 81.043015 
L 73.431587 77.485604 
L 73.498639 77.485604 
L 73.498639 73.928194 
L 73.565691 73.928194 
L 73.565691 72.594165 
L 73.632743 72.594165 
L 73.632743 70.815459 
L 73.699795 70.815459 
L 73.699795 69.036754 
L 73.766847 69.036754 
L 73.766847 68.592078 
L 73.833899 68.592078 
L 73.833899 68.147401 
L 74.035055 68.147401 
L 74.035055 64.589991 
L 74.102107 64.589991 
L 74.102107 64.145314 
L 74.169159 64.145314 
L 74.169159 63.700638 
L 74.236211 63.700638 
L 74.236211 63.255962 
L 74.370315 63.255962 
L 74.370315 62.811285 
L 74.437367 62.811285 
L 74.437367 62.366609 
L 74.571471 62.366609 
L 74.571471 61.03258 
L 74.772628 61.03258 
L 74.772628 60.587904 
L 74.83968 60.587904 
L 74.83968 59.698551 
L 75.17494 59.698551 
L 75.17494 59.253875 
L 75.309044 59.253875 
L 75.309044 58.809198 
L 75.376096 58.809198 
L 75.376096 57.919846 
L 75.979564 57.919846 
L 75.979564 57.475169 
L 76.046616 57.475169 
L 76.046616 57.030493 
L 76.18072 57.030493 
L 76.18072 56.585817 
L 76.851241 56.585817 
L 76.851241 55.696464 
L 77.320605 55.696464 
L 77.320605 55.251788 
L 77.722917 55.251788 
L 77.722917 54.807111 
L 77.789969 54.807111 
L 77.789969 54.362435 
L 78.12523 54.362435 
L 78.12523 53.917759 
L 78.259334 53.917759 
L 78.259334 53.473082 
L 78.527542 53.473082 
L 78.527542 53.028406 
L 78.79575 53.028406 
L 78.79575 52.58373 
L 79.46627 52.58373 
L 79.46627 51.694377 
L 79.868583 51.694377 
L 79.868583 51.249701 
L 82.483612 51.249701 
L 82.483612 50.360348 
L 82.617716 50.360348 
L 82.617716 49.915672 
L 85.70211 49.915672 
L 85.70211 49.470995 
L 86.506735 49.470995 
L 86.506735 49.026319 
L 88.384192 49.026319 
L 88.384192 48.581643 
L 91.60269 48.581643 
L 91.60269 48.136966 
L 102.666277 48.136966 
L 102.666277 47.247614 
L 270.832795 47.247614 
L 270.966899 47.247614 
L 447.850182 47.247614 
L 447.984286 47.247614 
L 470.916084 47.247614 
L 471.050188 47.247614 
L 674.48608 47.247614 
" clip-path="url(#p1af8d8a7a2)" style="fill: none; stroke-dasharray: 5.55,2.4; stroke-dashoffset: 0; stroke: #bcbd22; stroke-width: 1.5"/>
   </g>
   <g id="line2d_22">
    <path d="M 72.89517 504.374886 
L 72.89517 503.905557 
L 72.89517 426.935461 
L 72.89517 425.996802 
L 72.89517 395.021032 
L 72.89517 394.082372 
L 72.89517 293.645784 
L 72.89517 292.707125 
L 72.89517 205.411773 
L 72.89517 204.473113 
L 72.89517 162.233427 
L 72.961821 162.233427 
L 72.961821 144.868222 
L 73.028472 144.868222 
L 73.028472 120.9324 
L 73.095123 120.9324 
L 73.095123 114.831112 
L 73.161774 114.831112 
L 73.161774 101.220546 
L 73.295076 101.220546 
L 73.295076 96.527248 
L 73.361727 96.527248 
L 73.361727 89.01797 
L 73.428378 89.01797 
L 73.428378 82.916682 
L 73.561679 82.916682 
L 73.561679 81.039363 
L 73.62833 81.039363 
L 73.62833 80.100703 
L 73.694981 80.100703 
L 73.694981 79.631373 
L 73.828283 79.631373 
L 73.828283 79.162043 
L 73.894934 79.162043 
L 73.894934 75.407405 
L 73.961585 75.407405 
L 73.961585 74.468745 
L 74.094886 74.468745 
L 74.094886 73.999415 
L 74.161537 73.999415 
L 74.161537 68.836787 
L 74.228188 68.836787 
L 74.228188 67.898127 
L 74.294839 67.898127 
L 74.294839 66.959467 
L 74.628094 66.959467 
L 74.628094 66.490137 
L 74.761395 66.490137 
L 74.761395 66.020808 
L 74.894697 66.020808 
L 74.894697 65.551478 
L 75.09465 65.551478 
L 75.09465 64.143488 
L 75.361253 64.143488 
L 75.361253 63.674158 
L 75.627857 63.674158 
L 75.627857 63.204828 
L 75.761159 63.204828 
L 75.761159 62.266169 
L 75.961111 62.266169 
L 75.961111 61.796839 
L 76.560969 61.796839 
L 76.560969 61.327509 
L 76.694271 61.327509 
L 76.694271 60.858179 
L 76.827573 60.858179 
L 76.827573 60.388849 
L 77.027525 60.388849 
L 77.027525 58.98086 
L 77.294129 58.98086 
L 77.294129 58.51153 
L 77.494082 58.51153 
L 77.494082 57.57287 
L 78.227241 57.57287 
L 78.227241 57.10354 
L 78.560496 57.10354 
L 78.560496 56.634211 
L 78.627147 56.634211 
L 78.627147 55.695551 
L 78.827099 55.695551 
L 78.827099 55.226221 
L 79.693561 55.226221 
L 79.693561 54.756891 
L 79.893514 54.756891 
L 79.893514 54.287561 
L 80.226768 54.287561 
L 80.226768 53.818232 
L 80.36007 53.818232 
L 80.36007 53.348902 
L 80.426721 53.348902 
L 80.426721 52.879572 
L 81.559786 52.879572 
L 81.559786 52.410242 
L 81.693088 52.410242 
L 81.693088 51.940912 
L 83.292709 51.940912 
L 83.292709 51.471582 
L 85.692141 51.471582 
L 85.692141 51.002252 
L 87.091809 51.002252 
L 87.091809 50.532923 
L 87.89162 50.532923 
L 87.89162 50.063593 
L 89.557892 50.063593 
L 89.557892 49.594263 
L 94.956614 49.594263 
L 94.956614 49.124933 
L 99.555525 49.124933 
L 99.555525 48.655603 
L 108.819999 48.655603 
L 108.819999 48.186273 
L 110.952827 48.186273 
L 110.952827 47.716943 
L 138.746247 47.716943 
L 138.746247 47.247614 
L 478.332518 47.247614 
L 478.46582 47.247614 
L 674.48608 47.247614 
" clip-path="url(#p1af8d8a7a2)" style="fill: none; stroke-dasharray: 5.55,2.4; stroke-dashoffset: 0; stroke: #17becf; stroke-width: 1.5"/>
   </g>
   <g id="line2d_23">
    <path d="M 72.89517 504.374886 
L 72.962081 139.216728 
L 73.028991 139.216728 
L 73.095901 137.857578 
L 73.162812 137.857578 
L 73.229722 103.425792 
L 73.296633 103.425792 
L 73.296633 97.989194 
L 73.430453 97.989194 
L 73.497364 86.209899 
L 73.631184 86.209899 
L 73.698095 83.944649 
L 73.765005 83.944649 
L 73.831915 80.773301 
L 73.898826 80.773301 
L 73.965736 78.508052 
L 74.032646 78.508052 
L 74.032646 77.601952 
L 74.166467 77.601952 
L 74.233377 74.883653 
L 74.434108 74.883653 
L 74.501019 73.524503 
L 74.567929 73.524503 
L 74.634839 70.806205 
L 74.76866 70.806205 
L 74.83557 68.994005 
L 74.902481 68.994005 
L 74.902481 68.540955 
L 75.103212 68.540955 
L 75.103212 68.087906 
L 75.237033 68.087906 
L 75.303943 67.181806 
L 75.437764 67.181806 
L 75.437764 64.916557 
L 75.571584 64.916557 
L 75.571584 64.463507 
L 75.705405 64.463507 
L 75.772315 63.104357 
L 76.240688 63.104357 
L 76.240688 62.198258 
L 76.374508 62.198258 
L 76.374508 61.745208 
L 76.575239 61.745208 
L 76.64215 59.933009 
L 76.976701 59.933009 
L 76.976701 59.026909 
L 77.511984 59.026909 
L 77.511984 58.573859 
L 77.779626 58.573859 
L 77.779626 57.21471 
L 77.913446 57.21471 
L 77.980357 55.40251 
L 78.047267 55.40251 
L 78.047267 54.949461 
L 78.984012 54.949461 
L 78.984012 54.496411 
L 81.192053 54.496411 
L 81.192053 54.043361 
L 81.660426 54.043361 
L 81.660426 53.137261 
L 82.128798 53.137261 
L 82.128798 52.684212 
L 82.931722 52.684212 
L 82.998633 51.778112 
L 83.935377 51.778112 
L 83.935377 51.325062 
L 84.269929 51.325062 
L 84.269929 50.872012 
L 84.40375 50.872012 
L 84.40375 50.418962 
L 85.072853 50.418962 
L 85.072853 49.965913 
L 87.682357 49.965913 
L 87.682357 49.512863 
L 89.020564 49.512863 
L 89.020564 49.059813 
L 113.50975 49.059813 
L 113.50975 48.606763 
L 118.996398 48.606763 
L 118.996398 48.153713 
L 121.538991 48.153713 
L 121.538991 47.700663 
L 214.410549 47.700663 
L 214.410549 47.247614 
L 674.48608 47.247614 
L 674.48608 47.247614 
" clip-path="url(#p1af8d8a7a2)" style="fill: none; stroke-dasharray: 5.55,2.4; stroke-dashoffset: 0; stroke: #1f77b4; stroke-width: 1.5"/>
   </g>
   <g id="line2d_24">
    <path d="M 72.89517 504.374886 
L 674.48608 47.247614 
" clip-path="url(#p1af8d8a7a2)" style="fill: none; stroke-dasharray: 5.55,2.4; stroke-dashoffset: 0; stroke: #000000; stroke-width: 1.5"/>
   </g>
   <g id="patch_3">
    <path d="M 42.815625 527.23125 
L 42.815625 24.39125 
" style="fill: none; stroke: #000000; stroke-width: 0.8; stroke-linejoin: miter; stroke-linecap: square"/>
   </g>
   <g id="patch_4">
    <path d="M 704.565625 527.23125 
L 704.565625 24.39125 
" style="fill: none; stroke: #000000; stroke-width: 0.8; stroke-linejoin: miter; stroke-linecap: square"/>
   </g>
   <g id="patch_5">
    <path d="M 42.815625 527.23125 
L 704.565625 527.23125 
" style="fill: none; stroke: #000000; stroke-width: 0.8; stroke-linejoin: miter; stroke-linecap: square"/>
   </g>
   <g id="patch_6">
    <path d="M 42.815625 24.39125 
L 704.565625 24.39125 
" style="fill: none; stroke: #000000; stroke-width: 0.8; stroke-linejoin: miter; stroke-linecap: square"/>
   </g>
   <g id="text_15">
    <!-- MNIST 模型 ROC 曲线 -->
    <g transform="translate(301.957031 18.39125) scale(0.14 -0.14)">
     <defs>
      <path id="MicrosoftYaHei-4d" d="M 5003 0 
L 5003 3206 
Q 5003 3603 5050 4159 
L 5034 4159 
Q 4953 3809 4891 3672 
L 3294 0 
L 2947 0 
L 1353 3644 
Q 1297 3769 1209 4159 
L 1191 4159 
Q 1222 3822 1222 3178 
L 1222 0 
L 625 0 
L 625 4841 
L 1472 4841 
L 2900 1522 
Q 3063 1141 3116 928 
L 3138 928 
Q 3300 1375 3366 1534 
L 4819 4841 
L 5625 4841 
L 5625 0 
L 5003 0 
z
" transform="scale(0.015625)"/>
      <path id="MicrosoftYaHei-4e" d="M 4578 0 
L 3838 0 
L 1403 3766 
Q 1300 3925 1238 4081 
L 1219 4081 
Q 1244 3919 1244 3403 
L 1244 0 
L 625 0 
L 625 4841 
L 1409 4841 
L 3778 1141 
Q 3947 878 3978 806 
L 3991 806 
Q 3959 1013 3959 1513 
L 3959 4841 
L 4578 4841 
L 4578 0 
z
" transform="scale(0.015625)"/>
      <path id="MicrosoftYaHei-49" d="M 1250 4841 
L 1250 0 
L 625 0 
L 625 4841 
L 1250 4841 
z
" transform="scale(0.015625)"/>
      <path id="MicrosoftYaHei-53" d="M 400 909 
Q 622 716 994 591 
Q 1366 466 1700 466 
Q 2719 466 2719 1191 
Q 2719 1394 2609 1556 
Q 2500 1719 2309 1844 
Q 2119 1969 1594 2228 
Q 866 2591 634 2902 
Q 403 3213 403 3613 
Q 403 4216 887 4569 
Q 1372 4922 2109 4922 
Q 2831 4922 3169 4747 
L 3169 4066 
Q 2731 4369 2063 4369 
Q 1619 4369 1339 4183 
Q 1059 3997 1059 3666 
Q 1059 3372 1253 3187 
Q 1447 3003 2094 2684 
Q 2806 2344 3090 2003 
Q 3375 1663 3375 1238 
Q 3375 600 2912 259 
Q 2450 -81 1628 -81 
Q 1341 -81 958 -1 
Q 575 78 400 197 
L 400 909 
z
" transform="scale(0.015625)"/>
      <path id="MicrosoftYaHei-6a21" d="M 2050 984 
L 3859 984 
Q 3900 1213 3913 1547 
L 2950 1547 
L 2950 1372 
L 2500 1372 
L 2500 3634 
L 5844 3634 
L 5844 1372 
L 5394 1372 
L 5394 1547 
L 4344 1547 
Q 4325 1203 4288 984 
L 6250 984 
L 6250 584 
L 4525 584 
Q 5203 -175 6319 -341 
Q 6144 -572 6013 -809 
Q 4803 -456 4128 466 
Q 3681 -431 2075 -847 
Q 1969 -628 1831 -416 
Q 3303 -106 3713 584 
L 2050 584 
L 2050 984 
z
M 63 1409 
Q 603 2316 922 3509 
L 138 3509 
L 138 3922 
L 1006 3922 
L 1006 5309 
L 1444 5309 
L 1444 3922 
L 2256 3922 
L 2256 3509 
L 1444 3509 
L 1444 2684 
L 1688 2884 
Q 2044 2503 2350 2116 
L 2006 1828 
Q 1719 2244 1444 2563 
L 1444 -822 
L 1006 -822 
L 1006 2581 
Q 672 1438 275 859 
Q 188 1128 63 1409 
z
M 4713 5303 
L 5150 5303 
L 5150 4703 
L 6225 4703 
L 6225 4303 
L 5150 4303 
L 5150 3797 
L 4713 3797 
L 4713 4303 
L 3600 4303 
L 3600 3797 
L 3163 3797 
L 3163 4303 
L 2175 4303 
L 2175 4703 
L 3163 4703 
L 3163 5309 
L 3600 5309 
L 3600 4703 
L 4713 4703 
L 4713 5303 
z
M 5394 3247 
L 2950 3247 
L 2950 2778 
L 5394 2778 
L 5394 3247 
z
M 2950 1934 
L 5394 1934 
L 5394 2403 
L 2950 2403 
L 2950 1934 
z
" transform="scale(0.015625)"/>
      <path id="MicrosoftYaHei-578b" d="M 150 3503 
L 1100 3503 
Q 1106 3638 1106 4547 
L 413 4547 
L 413 4959 
L 3675 4959 
L 3675 4547 
L 2994 4547 
L 2994 3503 
L 3881 3503 
L 3881 3091 
L 2994 3091 
L 2994 1747 
L 2538 1747 
L 2538 3091 
L 1528 3091 
Q 1450 2191 638 1534 
Q 475 1716 294 1897 
Q 1013 2453 1066 3091 
L 150 3091 
L 150 3503 
z
M 138 -103 
L 2938 -103 
L 2938 741 
L 706 741 
L 706 1172 
L 2938 1172 
L 2938 1659 
L 3425 1659 
L 3425 1172 
L 5713 1172 
L 5713 741 
L 3425 741 
L 3425 -103 
L 6256 -103 
L 6256 -534 
L 138 -534 
L 138 -103 
z
M 5856 5209 
L 5856 2334 
Q 5856 1672 5200 1659 
Q 4825 1647 4331 1659 
Q 4306 1897 4256 2153 
Q 4781 2122 5044 2122 
Q 5400 2122 5400 2516 
L 5400 5209 
L 5856 5209 
z
M 1556 3503 
L 2538 3503 
L 2538 4547 
L 1563 4547 
Q 1563 3791 1556 3503 
z
M 4138 4859 
L 4588 4859 
L 4588 2697 
L 4138 2697 
L 4138 4859 
z
" transform="scale(0.015625)"/>
      <path id="MicrosoftYaHei-4f" d="M 313 2363 
Q 313 3534 947 4228 
Q 1581 4922 2666 4922 
Q 3675 4922 4290 4244 
Q 4906 3566 4906 2478 
Q 4906 1300 4275 609 
Q 3644 -81 2588 -81 
Q 1556 -81 934 597 
Q 313 1275 313 2363 
z
M 969 2413 
Q 969 1534 1417 1004 
Q 1866 475 2588 475 
Q 3363 475 3805 983 
Q 4247 1491 4247 2403 
Q 4247 3341 3814 3850 
Q 3381 4359 2628 4359 
Q 1888 4359 1428 3821 
Q 969 3284 969 2413 
z
" transform="scale(0.015625)"/>
      <path id="MicrosoftYaHei-43" d="M 3938 200 
Q 3403 -81 2597 -81 
Q 1556 -81 934 580 
Q 313 1241 313 2328 
Q 313 3497 1013 4209 
Q 1713 4922 2791 4922 
Q 3484 4922 3938 4725 
L 3938 4072 
Q 3419 4359 2797 4359 
Q 1988 4359 1478 3820 
Q 969 3281 969 2366 
Q 969 1497 1444 986 
Q 1919 475 2688 475 
Q 3406 475 3938 800 
L 3938 200 
z
" transform="scale(0.015625)"/>
      <path id="MicrosoftYaHei-66f2" d="M 2163 5322 
L 2625 5322 
L 2625 4291 
L 3775 4291 
L 3775 5328 
L 4238 5328 
L 4238 4291 
L 5850 4291 
L 5850 -822 
L 5388 -822 
L 5388 -409 
L 1013 -409 
L 1013 -822 
L 550 -822 
L 550 4291 
L 2163 4291 
L 2163 5322 
z
M 1013 41 
L 2163 41 
L 2163 1753 
L 1013 1753 
L 1013 41 
z
M 4238 41 
L 5388 41 
L 5388 1753 
L 4238 1753 
L 4238 41 
z
M 2625 41 
L 3775 41 
L 3775 1753 
L 2625 1753 
L 2625 41 
z
M 1013 2203 
L 2163 2203 
L 2163 3841 
L 1013 3841 
L 1013 2203 
z
M 5388 3841 
L 4238 3841 
L 4238 2203 
L 5388 2203 
L 5388 3841 
z
M 2625 2203 
L 3775 2203 
L 3775 3841 
L 2625 3841 
L 2625 2203 
z
" transform="scale(0.015625)"/>
      <path id="MicrosoftYaHei-7ebf" d="M 1969 -347 
Q 3144 75 4003 631 
Q 3781 1197 3653 1972 
L 2319 1784 
L 2244 2234 
L 3591 2422 
Q 3538 2859 3513 3356 
L 2381 3228 
L 2306 3678 
L 3488 3809 
Q 3453 4459 3425 5303 
L 3938 5303 
Q 3953 4497 3978 3866 
L 6069 4103 
L 6125 3659 
L 3997 3413 
Q 4019 2919 4069 2488 
L 6225 2791 
L 6281 2347 
L 4128 2041 
Q 4234 1394 4416 916 
Q 5078 1416 5519 2009 
L 5925 1703 
Q 5363 1025 4619 475 
Q 4859 44 5194 -184 
Q 5606 -428 5725 66 
Q 5806 466 5856 953 
Q 6144 828 6338 772 
Q 6231 97 6125 -247 
Q 5944 -778 5506 -778 
Q 5050 -778 4663 -403 
Q 4409 -163 4209 194 
Q 3350 -363 2281 -772 
Q 2169 -597 1969 -347 
z
M 900 1541 
Q 1456 1622 2213 1753 
Q 2175 1522 2156 1272 
Q 1113 1109 325 978 
L 225 1447 
Q 659 1913 1178 2775 
Q 672 2747 225 2703 
L 106 3128 
Q 688 3922 1300 5353 
L 1775 5166 
Q 1131 3897 669 3166 
Q 1041 3178 1422 3194 
Q 1638 3578 1869 4028 
L 2331 3797 
Q 1569 2478 900 1541 
z
M 106 97 
Q 1206 334 2331 616 
Q 2313 366 2313 141 
Q 1269 -103 244 -378 
L 106 97 
z
M 4463 4972 
L 4731 5284 
Q 5175 5003 5681 4609 
L 5381 4247 
Q 4863 4691 4463 4972 
z
" transform="scale(0.015625)"/>
     </defs>
     <use xlink:href="#MicrosoftYaHei-4d"/>
     <use xlink:href="#MicrosoftYaHei-4e" transform="translate(97.705078 0)"/>
     <use xlink:href="#MicrosoftYaHei-49" transform="translate(179.003906 0)"/>
     <use xlink:href="#MicrosoftYaHei-53" transform="translate(208.398438 0)"/>
     <use xlink:href="#MicrosoftYaHei-54" transform="translate(266.113281 0)"/>
     <use xlink:href="#MicrosoftYaHei-20" transform="translate(323.4375 0)"/>
     <use xlink:href="#MicrosoftYaHei-6a21" transform="translate(353.027344 0)"/>
     <use xlink:href="#MicrosoftYaHei-578b" transform="translate(453.027344 0)"/>
     <use xlink:href="#MicrosoftYaHei-20" transform="translate(553.027344 0)"/>
     <use xlink:href="#MicrosoftYaHei-52" transform="translate(582.617188 0)"/>
     <use xlink:href="#MicrosoftYaHei-4f" transform="translate(646.775391 0)"/>
     <use xlink:href="#MicrosoftYaHei-43" transform="translate(728.269531 0)"/>
     <use xlink:href="#MicrosoftYaHei-20" transform="translate(795.164062 0)"/>
     <use xlink:href="#MicrosoftYaHei-66f2" transform="translate(824.753906 0)"/>
     <use xlink:href="#MicrosoftYaHei-7ebf" transform="translate(924.753906 0)"/>
    </g>
   </g>
   <g id="legend_1">
    <g id="patch_7">
     <path d="M 518.553125 522.23125 
L 697.565625 522.23125 
Q 699.565625 522.23125 699.565625 520.23125 
L 699.565625 350.954687 
Q 699.565625 348.954687 697.565625 348.954687 
L 518.553125 348.954687 
Q 516.553125 348.954687 516.553125 350.954687 
L 516.553125 520.23125 
Q 516.553125 522.23125 518.553125 522.23125 
z
" style="fill: #ffffff; opacity: 0.8; stroke: #cccccc; stroke-linejoin: miter"/>
    </g>
    <g id="line2d_25">
     <path d="M 520.553125 357.448437 
L 530.553125 357.448437 
L 540.553125 357.448437 
" style="fill: none; stroke: #1f77b4; stroke-width: 2; stroke-linecap: square"/>
    </g>
    <g id="text_16">
     <!-- 宏平均ROC曲线 (AUC = 0.9995) -->
     <g transform="translate(548.553125 360.948437) scale(0.1 -0.1)">
      <defs>
       <path id="MicrosoftYaHei-5b8f" d="M 213 2928 
L 2075 2928 
Q 2281 3391 2444 3884 
L 2963 3734 
Q 2822 3322 2650 2928 
L 6213 2928 
L 6213 2466 
L 2438 2466 
Q 1666 881 369 -441 
Q 244 -184 81 34 
Q 1169 1109 1856 2466 
L 213 2466 
L 213 2928 
z
M 4563 1384 
Q 5331 472 6069 -484 
L 5606 -797 
Q 5444 -569 5284 -347 
Q 3181 -463 2363 -534 
Q 2144 -553 1831 -634 
L 1575 -141 
Q 1813 -59 2056 172 
Q 2763 947 3375 2178 
L 3894 1953 
Q 3106 678 2506 -34 
Q 3781 3 4978 66 
Q 4578 603 4175 1116 
L 4563 1384 
z
M 394 4528 
L 3097 4528 
Q 2938 4834 2744 5128 
L 3200 5353 
Q 3456 4941 3669 4528 
L 6056 4528 
L 6056 3459 
L 5556 3459 
L 5556 4066 
L 894 4066 
L 894 3459 
L 394 3459 
L 394 4528 
z
" transform="scale(0.015625)"/>
       <path id="MicrosoftYaHei-5e73" d="M 169 1934 
L 2938 1934 
L 2938 4547 
L 450 4547 
L 450 5028 
L 5975 5028 
L 5975 4547 
L 3463 4547 
L 3463 1934 
L 6250 1934 
L 6250 1453 
L 3463 1453 
L 3463 -847 
L 2938 -847 
L 2938 1453 
L 169 1453 
L 169 1934 
z
M 3950 2559 
Q 4638 3284 5188 4159 
L 5656 3859 
Q 4950 2891 4338 2234 
L 3950 2559 
z
M 769 3859 
L 1163 4134 
Q 1863 3316 2369 2553 
L 1925 2222 
Q 1444 3003 769 3859 
z
" transform="scale(0.015625)"/>
       <path id="MicrosoftYaHei-5747" d="M 2244 2803 
Q 2931 3953 3338 5322 
L 3838 5172 
Q 3691 4744 3531 4347 
L 6013 4347 
Q 5925 1053 5875 297 
Q 5831 -697 4806 -697 
Q 4188 -697 3706 -672 
Q 3669 -422 3606 -141 
L 3625 -141 
Q 4250 -209 4775 -209 
Q 5350 -209 5394 378 
Q 5456 1447 5513 3891 
L 3341 3891 
Q 3028 3172 2675 2572 
Q 2481 2691 2244 2803 
z
M 81 428 
Q 559 600 1006 769 
L 1006 3253 
L 169 3253 
L 169 3697 
L 1006 3697 
L 1006 5259 
L 1469 5259 
L 1469 3697 
L 2281 3697 
L 2281 3253 
L 1469 3253 
L 1469 947 
Q 1922 1125 2338 1303 
Q 2350 991 2369 784 
Q 1363 403 250 -53 
L 81 428 
z
M 2513 853 
Q 3769 1353 5119 1934 
Q 5150 1641 5188 1434 
Q 4031 947 2706 359 
L 2513 853 
z
M 3138 2909 
L 3481 3216 
Q 4025 2716 4531 2216 
L 4125 1859 
Q 3644 2409 3138 2909 
z
" transform="scale(0.015625)"/>
       <path id="MicrosoftYaHei-41" d="M 4428 0 
L 3738 0 
L 3244 1325 
L 1228 1325 
L 763 0 
L 72 0 
L 1916 4841 
L 2584 4841 
L 4428 0 
z
M 3050 1872 
L 2319 3884 
Q 2284 3981 2244 4222 
L 2228 4222 
Q 2194 4003 2150 3884 
L 1425 1872 
L 3050 1872 
z
" transform="scale(0.015625)"/>
       <path id="MicrosoftYaHei-55" d="M 4213 1972 
Q 4213 -81 2350 -81 
Q 566 -81 566 1900 
L 566 4841 
L 1191 4841 
L 1191 1928 
Q 1191 475 2409 475 
Q 3588 475 3588 1881 
L 3588 4841 
L 4213 4841 
L 4213 1972 
z
" transform="scale(0.015625)"/>
       <path id="MicrosoftYaHei-3d" d="M 3972 2497 
L 788 2497 
L 788 2969 
L 3972 2969 
L 3972 2497 
z
M 3972 1053 
L 788 1053 
L 788 1525 
L 3972 1525 
L 3972 1053 
z
" transform="scale(0.015625)"/>
       <path id="MicrosoftYaHei-39" d="M 578 656 
Q 978 425 1441 425 
Q 2091 425 2448 937 
Q 2806 1450 2806 2394 
Q 2800 2388 2794 2394 
Q 2475 1788 1722 1788 
Q 1113 1788 713 2206 
Q 313 2625 313 3294 
Q 313 4006 750 4464 
Q 1188 4922 1884 4922 
Q 2606 4922 3012 4355 
Q 3419 3788 3419 2703 
Q 3419 1363 2894 641 
Q 2369 -81 1441 -81 
Q 931 -81 578 84 
L 578 656 
z
M 931 3372 
Q 931 2884 1181 2598 
Q 1431 2313 1872 2313 
Q 2253 2313 2512 2573 
Q 2772 2834 2772 3206 
Q 2772 3728 2514 4070 
Q 2256 4413 1834 4413 
Q 1444 4413 1187 4116 
Q 931 3819 931 3372 
z
" transform="scale(0.015625)"/>
       <path id="MicrosoftYaHei-35" d="M 3294 1494 
Q 3294 784 2823 350 
Q 2353 -84 1559 -84 
Q 878 -84 544 119 
L 544 744 
Q 1034 425 1544 425 
Q 2050 425 2361 704 
Q 2672 984 2672 1447 
Q 2672 1909 2348 2167 
Q 2025 2425 1434 2425 
Q 978 2425 613 2384 
L 791 4841 
L 3053 4841 
L 3053 4303 
L 1306 4303 
L 1206 2931 
L 1647 2950 
Q 2416 2950 2855 2567 
Q 3294 2184 3294 1494 
z
" transform="scale(0.015625)"/>
      </defs>
      <use xlink:href="#MicrosoftYaHei-5b8f"/>
      <use xlink:href="#MicrosoftYaHei-5e73" transform="translate(100 0)"/>
      <use xlink:href="#MicrosoftYaHei-5747" transform="translate(200 0)"/>
      <use xlink:href="#MicrosoftYaHei-52" transform="translate(300 0)"/>
      <use xlink:href="#MicrosoftYaHei-4f" transform="translate(364.158203 0)"/>
      <use xlink:href="#MicrosoftYaHei-43" transform="translate(445.652344 0)"/>
      <use xlink:href="#MicrosoftYaHei-66f2" transform="translate(512.546875 0)"/>
      <use xlink:href="#MicrosoftYaHei-7ebf" transform="translate(612.546875 0)"/>
      <use xlink:href="#MicrosoftYaHei-20" transform="translate(712.546875 0)"/>
      <use xlink:href="#MicrosoftYaHei-28" transform="translate(742.136719 0)"/>
      <use xlink:href="#MicrosoftYaHei-41" transform="translate(775.535156 0)"/>
      <use xlink:href="#MicrosoftYaHei-55" transform="translate(844.521484 0)"/>
      <use xlink:href="#MicrosoftYaHei-43" transform="translate(919.179688 0)"/>
      <use xlink:href="#MicrosoftYaHei-20" transform="translate(986.074219 0)"/>
      <use xlink:href="#MicrosoftYaHei-3d" transform="translate(1015.664062 0)"/>
      <use xlink:href="#MicrosoftYaHei-20" transform="translate(1089.833984 0)"/>
      <use xlink:href="#MicrosoftYaHei-30" transform="translate(1119.423828 0)"/>
      <use xlink:href="#MicrosoftYaHei-2e" transform="translate(1178.066406 0)"/>
      <use xlink:href="#MicrosoftYaHei-39" transform="translate(1202.138672 0)"/>
      <use xlink:href="#MicrosoftYaHei-39" transform="translate(1260.78125 0)"/>
      <use xlink:href="#MicrosoftYaHei-39" transform="translate(1319.423828 0)"/>
      <use xlink:href="#MicrosoftYaHei-35" transform="translate(1378.066406 0)"/>
      <use xlink:href="#MicrosoftYaHei-29" transform="translate(1436.708984 0)"/>
     </g>
    </g>
    <g id="line2d_26">
     <path d="M 520.553125 372.928125 
L 530.553125 372.928125 
L 540.553125 372.928125 
" style="fill: none; stroke-dasharray: 5.55,2.4; stroke-dashoffset: 0; stroke: #ff7f0e; stroke-width: 1.5"/>
    </g>
    <g id="text_17">
     <!-- 类别 0 (AUC = 0.9999) -->
     <g transform="translate(548.553125 376.428125) scale(0.1 -0.1)">
      <defs>
       <path id="MicrosoftYaHei-7c7b" d="M 6338 -359 
Q 6213 -503 6006 -853 
Q 3975 -459 3200 884 
Q 2644 -497 400 -897 
Q 288 -684 131 -434 
Q 2244 -147 2744 1047 
L 275 1047 
L 275 1484 
L 2875 1484 
Q 2925 1691 2956 1978 
L 3456 1978 
Q 3413 1697 3369 1484 
L 6125 1484 
L 6125 1047 
L 3619 1047 
Q 4450 -159 6338 -359 
z
M 325 3741 
L 2975 3741 
L 2975 5303 
L 3450 5303 
L 3450 3741 
L 6075 3741 
L 6075 3322 
L 3450 3322 
L 3450 2953 
L 3625 3191 
Q 5325 2528 6231 2128 
L 6013 1722 
Q 4956 2266 3450 2847 
L 3450 2197 
L 2975 2197 
L 2975 3241 
Q 1863 2191 450 1741 
Q 319 1934 144 2153 
Q 1569 2553 2538 3322 
L 325 3322 
L 325 3741 
z
M 5550 4784 
Q 5163 4459 4394 3891 
L 4069 4222 
Q 4569 4578 5194 5122 
L 5550 4784 
z
M 900 4791 
L 1206 5122 
Q 1875 4647 2306 4266 
L 1969 3897 
Q 1581 4284 900 4791 
z
" transform="scale(0.015625)"/>
       <path id="MicrosoftYaHei-522b" d="M 538 4959 
L 3375 4959 
L 3375 2772 
L 2888 2772 
L 2888 3028 
L 1025 3028 
L 1025 2772 
L 538 2772 
L 538 4959 
z
M 300 2116 
L 1316 2116 
Q 1331 2431 1338 2822 
L 1825 2822 
Q 1816 2431 1797 2116 
L 3431 2116 
Q 3413 1028 3363 328 
Q 3319 -684 2431 -678 
Q 2006 -678 1563 -641 
Q 1531 -347 1469 -122 
Q 1963 -203 2350 -203 
Q 2850 -209 2875 378 
Q 2925 891 2938 1666 
L 1769 1666 
Q 1688 53 431 -859 
Q 300 -666 88 -441 
Q 1238 366 1288 1666 
L 300 1666 
L 300 2116 
z
M 5425 5278 
L 5944 5278 
L 5944 53 
Q 5944 -747 5163 -747 
Q 4756 -747 4175 -741 
Q 4138 -484 4081 -178 
Q 4725 -228 4994 -228 
Q 5425 -228 5425 191 
L 5425 5278 
z
M 4138 4647 
L 4644 4647 
L 4644 666 
L 4138 666 
L 4138 4647 
z
M 2888 4509 
L 1025 4509 
L 1025 3478 
L 2888 3478 
L 2888 4509 
z
" transform="scale(0.015625)"/>
      </defs>
      <use xlink:href="#MicrosoftYaHei-7c7b"/>
      <use xlink:href="#MicrosoftYaHei-522b" transform="translate(100 0)"/>
      <use xlink:href="#MicrosoftYaHei-20" transform="translate(200 0)"/>
      <use xlink:href="#MicrosoftYaHei-30" transform="translate(229.589844 0)"/>
      <use xlink:href="#MicrosoftYaHei-20" transform="translate(288.232422 0)"/>
      <use xlink:href="#MicrosoftYaHei-28" transform="translate(317.822266 0)"/>
      <use xlink:href="#MicrosoftYaHei-41" transform="translate(351.220703 0)"/>
      <use xlink:href="#MicrosoftYaHei-55" transform="translate(420.207031 0)"/>
      <use xlink:href="#MicrosoftYaHei-43" transform="translate(494.865234 0)"/>
      <use xlink:href="#MicrosoftYaHei-20" transform="translate(561.759766 0)"/>
      <use xlink:href="#MicrosoftYaHei-3d" transform="translate(591.349609 0)"/>
      <use xlink:href="#MicrosoftYaHei-20" transform="translate(665.519531 0)"/>
      <use xlink:href="#MicrosoftYaHei-30" transform="translate(695.109375 0)"/>
      <use xlink:href="#MicrosoftYaHei-2e" transform="translate(753.751953 0)"/>
      <use xlink:href="#MicrosoftYaHei-39" transform="translate(777.824219 0)"/>
      <use xlink:href="#MicrosoftYaHei-39" transform="translate(836.466797 0)"/>
      <use xlink:href="#MicrosoftYaHei-39" transform="translate(895.109375 0)"/>
      <use xlink:href="#MicrosoftYaHei-39" transform="translate(953.751953 0)"/>
      <use xlink:href="#MicrosoftYaHei-29" transform="translate(1012.394531 0)"/>
     </g>
    </g>
    <g id="line2d_27">
     <path d="M 520.553125 388.407812 
L 530.553125 388.407812 
L 540.553125 388.407812 
" style="fill: none; stroke-dasharray: 5.55,2.4; stroke-dashoffset: 0; stroke: #2ca02c; stroke-width: 1.5"/>
    </g>
    <g id="text_18">
     <!-- 类别 1 (AUC = 0.9999) -->
     <g transform="translate(548.553125 391.907812) scale(0.1 -0.1)">
      <use xlink:href="#MicrosoftYaHei-7c7b"/>
      <use xlink:href="#MicrosoftYaHei-522b" transform="translate(100 0)"/>
      <use xlink:href="#MicrosoftYaHei-20" transform="translate(200 0)"/>
      <use xlink:href="#MicrosoftYaHei-31" transform="translate(229.589844 0)"/>
      <use xlink:href="#MicrosoftYaHei-20" transform="translate(288.232422 0)"/>
      <use xlink:href="#MicrosoftYaHei-28" transform="translate(317.822266 0)"/>
      <use xlink:href="#MicrosoftYaHei-41" transform="translate(351.220703 0)"/>
      <use xlink:href="#MicrosoftYaHei-55" transform="translate(420.207031 0)"/>
      <use xlink:href="#MicrosoftYaHei-43" transform="translate(494.865234 0)"/>
      <use xlink:href="#MicrosoftYaHei-20" transform="translate(561.759766 0)"/>
      <use xlink:href="#MicrosoftYaHei-3d" transform="translate(591.349609 0)"/>
      <use xlink:href="#MicrosoftYaHei-20" transform="translate(665.519531 0)"/>
      <use xlink:href="#MicrosoftYaHei-30" transform="translate(695.109375 0)"/>
      <use xlink:href="#MicrosoftYaHei-2e" transform="translate(753.751953 0)"/>
      <use xlink:href="#MicrosoftYaHei-39" transform="translate(777.824219 0)"/>
      <use xlink:href="#MicrosoftYaHei-39" transform="translate(836.466797 0)"/>
      <use xlink:href="#MicrosoftYaHei-39" transform="translate(895.109375 0)"/>
      <use xlink:href="#MicrosoftYaHei-39" transform="translate(953.751953 0)"/>
      <use xlink:href="#MicrosoftYaHei-29" transform="translate(1012.394531 0)"/>
     </g>
    </g>
    <g id="line2d_28">
     <path d="M 520.553125 403.8875 
L 530.553125 403.8875 
L 540.553125 403.8875 
" style="fill: none; stroke-dasharray: 5.55,2.4; stroke-dashoffset: 0; stroke: #d62728; stroke-width: 1.5"/>
    </g>
    <g id="text_19">
     <!-- 类别 2 (AUC = 0.9994) -->
     <g transform="translate(548.553125 407.3875) scale(0.1 -0.1)">
      <use xlink:href="#MicrosoftYaHei-7c7b"/>
      <use xlink:href="#MicrosoftYaHei-522b" transform="translate(100 0)"/>
      <use xlink:href="#MicrosoftYaHei-20" transform="translate(200 0)"/>
      <use xlink:href="#MicrosoftYaHei-32" transform="translate(229.589844 0)"/>
      <use xlink:href="#MicrosoftYaHei-20" transform="translate(288.232422 0)"/>
      <use xlink:href="#MicrosoftYaHei-28" transform="translate(317.822266 0)"/>
      <use xlink:href="#MicrosoftYaHei-41" transform="translate(351.220703 0)"/>
      <use xlink:href="#MicrosoftYaHei-55" transform="translate(420.207031 0)"/>
      <use xlink:href="#MicrosoftYaHei-43" transform="translate(494.865234 0)"/>
      <use xlink:href="#MicrosoftYaHei-20" transform="translate(561.759766 0)"/>
      <use xlink:href="#MicrosoftYaHei-3d" transform="translate(591.349609 0)"/>
      <use xlink:href="#MicrosoftYaHei-20" transform="translate(665.519531 0)"/>
      <use xlink:href="#MicrosoftYaHei-30" transform="translate(695.109375 0)"/>
      <use xlink:href="#MicrosoftYaHei-2e" transform="translate(753.751953 0)"/>
      <use xlink:href="#MicrosoftYaHei-39" transform="translate(777.824219 0)"/>
      <use xlink:href="#MicrosoftYaHei-39" transform="translate(836.466797 0)"/>
      <use xlink:href="#MicrosoftYaHei-39" transform="translate(895.109375 0)"/>
      <use xlink:href="#MicrosoftYaHei-34" transform="translate(953.751953 0)"/>
      <use xlink:href="#MicrosoftYaHei-29" transform="translate(1012.394531 0)"/>
     </g>
    </g>
    <g id="line2d_29">
     <path d="M 520.553125 419.367188 
L 530.553125 419.367188 
L 540.553125 419.367188 
" style="fill: none; stroke-dasharray: 5.55,2.4; stroke-dashoffset: 0; stroke: #9467bd; stroke-width: 1.5"/>
    </g>
    <g id="text_20">
     <!-- 类别 3 (AUC = 0.9991) -->
     <g transform="translate(548.553125 422.867188) scale(0.1 -0.1)">
      <defs>
       <path id="MicrosoftYaHei-33" d="M 447 809 
Q 944 425 1569 425 
Q 2069 425 2361 670 
Q 2653 916 2653 1328 
Q 2653 2247 1338 2247 
L 934 2247 
L 934 2753 
L 1319 2753 
Q 2484 2753 2484 3616 
Q 2484 4413 1594 4413 
Q 1084 4413 634 4069 
L 634 4647 
Q 1109 4922 1744 4922 
Q 2363 4922 2738 4598 
Q 3113 4275 3113 3759 
Q 3113 2809 2144 2538 
L 2144 2525 
Q 2669 2469 2973 2155 
Q 3278 1841 3278 1372 
Q 3278 719 2808 319 
Q 2338 -81 1556 -81 
Q 869 -81 447 175 
L 447 809 
z
" transform="scale(0.015625)"/>
      </defs>
      <use xlink:href="#MicrosoftYaHei-7c7b"/>
      <use xlink:href="#MicrosoftYaHei-522b" transform="translate(100 0)"/>
      <use xlink:href="#MicrosoftYaHei-20" transform="translate(200 0)"/>
      <use xlink:href="#MicrosoftYaHei-33" transform="translate(229.589844 0)"/>
      <use xlink:href="#MicrosoftYaHei-20" transform="translate(288.232422 0)"/>
      <use xlink:href="#MicrosoftYaHei-28" transform="translate(317.822266 0)"/>
      <use xlink:href="#MicrosoftYaHei-41" transform="translate(351.220703 0)"/>
      <use xlink:href="#MicrosoftYaHei-55" transform="translate(420.207031 0)"/>
      <use xlink:href="#MicrosoftYaHei-43" transform="translate(494.865234 0)"/>
      <use xlink:href="#MicrosoftYaHei-20" transform="translate(561.759766 0)"/>
      <use xlink:href="#MicrosoftYaHei-3d" transform="translate(591.349609 0)"/>
      <use xlink:href="#MicrosoftYaHei-20" transform="translate(665.519531 0)"/>
      <use xlink:href="#MicrosoftYaHei-30" transform="translate(695.109375 0)"/>
      <use xlink:href="#MicrosoftYaHei-2e" transform="translate(753.751953 0)"/>
      <use xlink:href="#MicrosoftYaHei-39" transform="translate(777.824219 0)"/>
      <use xlink:href="#MicrosoftYaHei-39" transform="translate(836.466797 0)"/>
      <use xlink:href="#MicrosoftYaHei-39" transform="translate(895.109375 0)"/>
      <use xlink:href="#MicrosoftYaHei-31" transform="translate(953.751953 0)"/>
      <use xlink:href="#MicrosoftYaHei-29" transform="translate(1012.394531 0)"/>
     </g>
    </g>
    <g id="line2d_30">
     <path d="M 520.553125 434.846875 
L 530.553125 434.846875 
L 540.553125 434.846875 
" style="fill: none; stroke-dasharray: 5.55,2.4; stroke-dashoffset: 0; stroke: #8c564b; stroke-width: 1.5"/>
    </g>
    <g id="text_21">
     <!-- 类别 4 (AUC = 0.9998) -->
     <g transform="translate(548.553125 438.346875) scale(0.1 -0.1)">
      <use xlink:href="#MicrosoftYaHei-7c7b"/>
      <use xlink:href="#MicrosoftYaHei-522b" transform="translate(100 0)"/>
      <use xlink:href="#MicrosoftYaHei-20" transform="translate(200 0)"/>
      <use xlink:href="#MicrosoftYaHei-34" transform="translate(229.589844 0)"/>
      <use xlink:href="#MicrosoftYaHei-20" transform="translate(288.232422 0)"/>
      <use xlink:href="#MicrosoftYaHei-28" transform="translate(317.822266 0)"/>
      <use xlink:href="#MicrosoftYaHei-41" transform="translate(351.220703 0)"/>
      <use xlink:href="#MicrosoftYaHei-55" transform="translate(420.207031 0)"/>
      <use xlink:href="#MicrosoftYaHei-43" transform="translate(494.865234 0)"/>
      <use xlink:href="#MicrosoftYaHei-20" transform="translate(561.759766 0)"/>
      <use xlink:href="#MicrosoftYaHei-3d" transform="translate(591.349609 0)"/>
      <use xlink:href="#MicrosoftYaHei-20" transform="translate(665.519531 0)"/>
      <use xlink:href="#MicrosoftYaHei-30" transform="translate(695.109375 0)"/>
      <use xlink:href="#MicrosoftYaHei-2e" transform="translate(753.751953 0)"/>
      <use xlink:href="#MicrosoftYaHei-39" transform="translate(777.824219 0)"/>
      <use xlink:href="#MicrosoftYaHei-39" transform="translate(836.466797 0)"/>
      <use xlink:href="#MicrosoftYaHei-39" transform="translate(895.109375 0)"/>
      <use xlink:href="#MicrosoftYaHei-38" transform="translate(953.751953 0)"/>
      <use xlink:href="#MicrosoftYaHei-29" transform="translate(1012.394531 0)"/>
     </g>
    </g>
    <g id="line2d_31">
     <path d="M 520.553125 450.326562 
L 530.553125 450.326562 
L 540.553125 450.326562 
" style="fill: none; stroke-dasharray: 5.55,2.4; stroke-dashoffset: 0; stroke: #e377c2; stroke-width: 1.5"/>
    </g>
    <g id="text_22">
     <!-- 类别 5 (AUC = 0.9997) -->
     <g transform="translate(548.553125 453.826562) scale(0.1 -0.1)">
      <defs>
       <path id="MicrosoftYaHei-37" d="M 3422 4463 
Q 2659 3131 2223 1998 
Q 1788 866 1684 0 
L 1047 0 
Q 1163 853 1594 1947 
Q 2025 3041 2747 4300 
L 347 4300 
L 347 4841 
L 3422 4841 
L 3422 4463 
z
" transform="scale(0.015625)"/>
      </defs>
      <use xlink:href="#MicrosoftYaHei-7c7b"/>
      <use xlink:href="#MicrosoftYaHei-522b" transform="translate(100 0)"/>
      <use xlink:href="#MicrosoftYaHei-20" transform="translate(200 0)"/>
      <use xlink:href="#MicrosoftYaHei-35" transform="translate(229.589844 0)"/>
      <use xlink:href="#MicrosoftYaHei-20" transform="translate(288.232422 0)"/>
      <use xlink:href="#MicrosoftYaHei-28" transform="translate(317.822266 0)"/>
      <use xlink:href="#MicrosoftYaHei-41" transform="translate(351.220703 0)"/>
      <use xlink:href="#MicrosoftYaHei-55" transform="translate(420.207031 0)"/>
      <use xlink:href="#MicrosoftYaHei-43" transform="translate(494.865234 0)"/>
      <use xlink:href="#MicrosoftYaHei-20" transform="translate(561.759766 0)"/>
      <use xlink:href="#MicrosoftYaHei-3d" transform="translate(591.349609 0)"/>
      <use xlink:href="#MicrosoftYaHei-20" transform="translate(665.519531 0)"/>
      <use xlink:href="#MicrosoftYaHei-30" transform="translate(695.109375 0)"/>
      <use xlink:href="#MicrosoftYaHei-2e" transform="translate(753.751953 0)"/>
      <use xlink:href="#MicrosoftYaHei-39" transform="translate(777.824219 0)"/>
      <use xlink:href="#MicrosoftYaHei-39" transform="translate(836.466797 0)"/>
      <use xlink:href="#MicrosoftYaHei-39" transform="translate(895.109375 0)"/>
      <use xlink:href="#MicrosoftYaHei-37" transform="translate(953.751953 0)"/>
      <use xlink:href="#MicrosoftYaHei-29" transform="translate(1012.394531 0)"/>
     </g>
    </g>
    <g id="line2d_32">
     <path d="M 520.553125 465.80625 
L 530.553125 465.80625 
L 540.553125 465.80625 
" style="fill: none; stroke-dasharray: 5.55,2.4; stroke-dashoffset: 0; stroke: #7f7f7f; stroke-width: 1.5"/>
    </g>
    <g id="text_23">
     <!-- 类别 6 (AUC = 0.9996) -->
     <g transform="translate(548.553125 469.30625) scale(0.1 -0.1)">
      <use xlink:href="#MicrosoftYaHei-7c7b"/>
      <use xlink:href="#MicrosoftYaHei-522b" transform="translate(100 0)"/>
      <use xlink:href="#MicrosoftYaHei-20" transform="translate(200 0)"/>
      <use xlink:href="#MicrosoftYaHei-36" transform="translate(229.589844 0)"/>
      <use xlink:href="#MicrosoftYaHei-20" transform="translate(288.232422 0)"/>
      <use xlink:href="#MicrosoftYaHei-28" transform="translate(317.822266 0)"/>
      <use xlink:href="#MicrosoftYaHei-41" transform="translate(351.220703 0)"/>
      <use xlink:href="#MicrosoftYaHei-55" transform="translate(420.207031 0)"/>
      <use xlink:href="#MicrosoftYaHei-43" transform="translate(494.865234 0)"/>
      <use xlink:href="#MicrosoftYaHei-20" transform="translate(561.759766 0)"/>
      <use xlink:href="#MicrosoftYaHei-3d" transform="translate(591.349609 0)"/>
      <use xlink:href="#MicrosoftYaHei-20" transform="translate(665.519531 0)"/>
      <use xlink:href="#MicrosoftYaHei-30" transform="translate(695.109375 0)"/>
      <use xlink:href="#MicrosoftYaHei-2e" transform="translate(753.751953 0)"/>
      <use xlink:href="#MicrosoftYaHei-39" transform="translate(777.824219 0)"/>
      <use xlink:href="#MicrosoftYaHei-39" transform="translate(836.466797 0)"/>
      <use xlink:href="#MicrosoftYaHei-39" transform="translate(895.109375 0)"/>
      <use xlink:href="#MicrosoftYaHei-36" transform="translate(953.751953 0)"/>
      <use xlink:href="#MicrosoftYaHei-29" transform="translate(1012.394531 0)"/>
     </g>
    </g>
    <g id="line2d_33">
     <path d="M 520.553125 481.285937 
L 530.553125 481.285937 
L 540.553125 481.285937 
" style="fill: none; stroke-dasharray: 5.55,2.4; stroke-dashoffset: 0; stroke: #bcbd22; stroke-width: 1.5"/>
    </g>
    <g id="text_24">
     <!-- 类别 7 (AUC = 0.9995) -->
     <g transform="translate(548.553125 484.785937) scale(0.1 -0.1)">
      <use xlink:href="#MicrosoftYaHei-7c7b"/>
      <use xlink:href="#MicrosoftYaHei-522b" transform="translate(100 0)"/>
      <use xlink:href="#MicrosoftYaHei-20" transform="translate(200 0)"/>
      <use xlink:href="#MicrosoftYaHei-37" transform="translate(229.589844 0)"/>
      <use xlink:href="#MicrosoftYaHei-20" transform="translate(288.232422 0)"/>
      <use xlink:href="#MicrosoftYaHei-28" transform="translate(317.822266 0)"/>
      <use xlink:href="#MicrosoftYaHei-41" transform="translate(351.220703 0)"/>
      <use xlink:href="#MicrosoftYaHei-55" transform="translate(420.207031 0)"/>
      <use xlink:href="#MicrosoftYaHei-43" transform="translate(494.865234 0)"/>
      <use xlink:href="#MicrosoftYaHei-20" transform="translate(561.759766 0)"/>
      <use xlink:href="#MicrosoftYaHei-3d" transform="translate(591.349609 0)"/>
      <use xlink:href="#MicrosoftYaHei-20" transform="translate(665.519531 0)"/>
      <use xlink:href="#MicrosoftYaHei-30" transform="translate(695.109375 0)"/>
      <use xlink:href="#MicrosoftYaHei-2e" transform="translate(753.751953 0)"/>
      <use xlink:href="#MicrosoftYaHei-39" transform="translate(777.824219 0)"/>
      <use xlink:href="#MicrosoftYaHei-39" transform="translate(836.466797 0)"/>
      <use xlink:href="#MicrosoftYaHei-39" transform="translate(895.109375 0)"/>
      <use xlink:href="#MicrosoftYaHei-35" transform="translate(953.751953 0)"/>
      <use xlink:href="#MicrosoftYaHei-29" transform="translate(1012.394531 0)"/>
     </g>
    </g>
    <g id="line2d_34">
     <path d="M 520.553125 496.765625 
L 530.553125 496.765625 
L 540.553125 496.765625 
" style="fill: none; stroke-dasharray: 5.55,2.4; stroke-dashoffset: 0; stroke: #17becf; stroke-width: 1.5"/>
    </g>
    <g id="text_25">
     <!-- 类别 8 (AUC = 0.9992) -->
     <g transform="translate(548.553125 500.265625) scale(0.1 -0.1)">
      <use xlink:href="#MicrosoftYaHei-7c7b"/>
      <use xlink:href="#MicrosoftYaHei-522b" transform="translate(100 0)"/>
      <use xlink:href="#MicrosoftYaHei-20" transform="translate(200 0)"/>
      <use xlink:href="#MicrosoftYaHei-38" transform="translate(229.589844 0)"/>
      <use xlink:href="#MicrosoftYaHei-20" transform="translate(288.232422 0)"/>
      <use xlink:href="#MicrosoftYaHei-28" transform="translate(317.822266 0)"/>
      <use xlink:href="#MicrosoftYaHei-41" transform="translate(351.220703 0)"/>
      <use xlink:href="#MicrosoftYaHei-55" transform="translate(420.207031 0)"/>
      <use xlink:href="#MicrosoftYaHei-43" transform="translate(494.865234 0)"/>
      <use xlink:href="#MicrosoftYaHei-20" transform="translate(561.759766 0)"/>
      <use xlink:href="#MicrosoftYaHei-3d" transform="translate(591.349609 0)"/>
      <use xlink:href="#MicrosoftYaHei-20" transform="translate(665.519531 0)"/>
      <use xlink:href="#MicrosoftYaHei-30" transform="translate(695.109375 0)"/>
      <use xlink:href="#MicrosoftYaHei-2e" transform="translate(753.751953 0)"/>
      <use xlink:href="#MicrosoftYaHei-39" transform="translate(777.824219 0)"/>
      <use xlink:href="#MicrosoftYaHei-39" transform="translate(836.466797 0)"/>
      <use xlink:href="#MicrosoftYaHei-39" transform="translate(895.109375 0)"/>
      <use xlink:href="#MicrosoftYaHei-32" transform="translate(953.751953 0)"/>
      <use xlink:href="#MicrosoftYaHei-29" transform="translate(1012.394531 0)"/>
     </g>
    </g>
    <g id="line2d_35">
     <path d="M 520.553125 512.245312 
L 530.553125 512.245312 
L 540.553125 512.245312 
" style="fill: none; stroke-dasharray: 5.55,2.4; stroke-dashoffset: 0; stroke: #1f77b4; stroke-width: 1.5"/>
    </g>
    <g id="text_26">
     <!-- 类别 9 (AUC = 0.9990) -->
     <g transform="translate(548.553125 515.745312) scale(0.1 -0.1)">
      <use xlink:href="#MicrosoftYaHei-7c7b"/>
      <use xlink:href="#MicrosoftYaHei-522b" transform="translate(100 0)"/>
      <use xlink:href="#MicrosoftYaHei-20" transform="translate(200 0)"/>
      <use xlink:href="#MicrosoftYaHei-39" transform="translate(229.589844 0)"/>
      <use xlink:href="#MicrosoftYaHei-20" transform="translate(288.232422 0)"/>
      <use xlink:href="#MicrosoftYaHei-28" transform="translate(317.822266 0)"/>
      <use xlink:href="#MicrosoftYaHei-41" transform="translate(351.220703 0)"/>
      <use xlink:href="#MicrosoftYaHei-55" transform="translate(420.207031 0)"/>
      <use xlink:href="#MicrosoftYaHei-43" transform="translate(494.865234 0)"/>
      <use xlink:href="#MicrosoftYaHei-20" transform="translate(561.759766 0)"/>
      <use xlink:href="#MicrosoftYaHei-3d" transform="translate(591.349609 0)"/>
      <use xlink:href="#MicrosoftYaHei-20" transform="translate(665.519531 0)"/>
      <use xlink:href="#MicrosoftYaHei-30" transform="translate(695.109375 0)"/>
      <use xlink:href="#MicrosoftYaHei-2e" transform="translate(753.751953 0)"/>
      <use xlink:href="#MicrosoftYaHei-39" transform="translate(777.824219 0)"/>
      <use xlink:href="#MicrosoftYaHei-39" transform="translate(836.466797 0)"/>
      <use xlink:href="#MicrosoftYaHei-39" transform="translate(895.109375 0)"/>
      <use xlink:href="#MicrosoftYaHei-30" transform="translate(953.751953 0)"/>
      <use xlink:href="#MicrosoftYaHei-29" transform="translate(1012.394531 0)"/>
     </g>
    </g>
   </g>
  </g>
 </g>
 <defs>
  <clipPath id="p1af8d8a7a2">
   <rect x="42.815625" y="24.39125" width="661.75" height="502.84"/>
  </clipPath>
 </defs>
</svg>
